<?xml version="1.0" encoding="utf-8"?>
<!-- Generator: Adobe Illustrator 16.0.0, SVG Export Plug-In . SVG Version: 6.00 Build 0)  -->
<!DOCTYPE svg PUBLIC "-//W3C//DTD SVG 1.0//EN" "http://www.w3.org/TR/2001/REC-SVG-20010904/DTD/svg10.dtd">
<svg version="1.0" id="Layer_5" xmlns="http://www.w3.org/2000/svg" xmlns:xlink="http://www.w3.org/1999/xlink" x="0px" y="0px"
	 width="130px" height="130px" viewBox="0 0 130 130" enable-background="new 0 0 130 130" xml:space="preserve">
<path fill="#FFFFFF" d="M65.209,2.334L65.209,2.334c-7.315,0-14.575,1.28-21.45,3.782s-13.26,6.188-18.864,10.891
	c-5.604,4.703-10.343,10.35-14.001,16.686v0.001c-3.658,6.335-6.179,13.263-7.45,20.467c-1.271,7.207-1.271,14.578,0,21.782
	c1.271,7.205,3.792,14.133,7.45,20.469c3.658,6.336,8.396,11.982,14.001,16.686c5.604,4.703,11.989,8.389,18.864,10.891
	c6.875,2.503,14.135,3.783,21.45,3.783c7.316,0,14.576-1.28,21.451-3.783c6.875-2.502,13.259-6.188,18.863-10.891
	c5.605-4.703,10.344-10.35,14.001-16.686c3.658-6.336,6.18-13.264,7.45-20.469c1.271-7.204,1.271-14.576,0-21.782
	c-1.271-7.204-3.792-14.132-7.45-20.467v-0.001c-3.657-6.336-8.396-11.983-14.001-16.686C99.919,12.304,93.535,8.619,86.66,6.116
	S72.525,2.334,65.209,2.334"/>
<path fill="none" stroke="#00ACF2" stroke-width="2" stroke-miterlimit="10" d="M65.209,2.334L65.209,2.334
	c-7.315,0-14.575,1.28-21.45,3.782s-13.26,6.188-18.864,10.891c-5.604,4.703-10.343,10.35-14.001,16.686v0.001
	c-3.658,6.335-6.179,13.263-7.45,20.467c-1.271,7.207-1.271,14.578,0,21.782c1.271,7.205,3.792,14.133,7.45,20.469
	c3.658,6.336,8.396,11.982,14.001,16.686c5.604,4.703,11.989,8.389,18.864,10.891c6.875,2.503,14.135,3.783,21.45,3.783
	c7.316,0,14.576-1.28,21.451-3.783c6.875-2.502,13.259-6.188,18.863-10.891c5.605-4.703,10.344-10.35,14.001-16.686
	c3.658-6.336,6.18-13.264,7.45-20.469c1.271-7.204,1.271-14.576,0-21.782c-1.271-7.204-3.792-14.132-7.45-20.467v-0.001
	c-3.657-6.336-8.396-11.983-14.001-16.686C99.919,12.304,93.535,8.619,86.66,6.116S72.525,2.334,65.209,2.334z"/>
<path fill="#A81D3F" d="M65.209,118.219L65.209,118.219c-29.364,0-53.167-23.804-53.167-53.167s23.804-53.167,53.167-53.167
	c29.363,0,53.167,23.804,53.167,53.167S94.572,118.219,65.209,118.219"/>
<path fill="#FFFFFF" d="M66.17,77.3c11.779-0.028,21.243-9.454,21.271-21.188c0.028-11.883-9.555-21.496-21.409-21.473
	c-11.828,0.021-21.3,9.659-21.236,21.606C44.857,67.985,54.34,77.326,66.17,77.3"/>
<path fill="#FFFFFF" d="M33.818,50.977c2.864,1.53,5.388,2.88,7.956,4.251c2.064-6.34,2.06-6.36-3.973-5.303
	C36.625,50.131,35.333,49.856,33.818,50.977"/>
<path fill="#FFFFFF" d="M97.953,50.937c-0.056-0.226-0.113-0.452-0.17-0.679c-2.488-0.373-4.98-0.719-7.463-1.131
	c-1.373-0.228-1.538,0.366-1.259,1.511c0.238,0.977,0.389,1.981,0.491,2.982c0.128,1.247,0.652,1.581,1.771,0.959
	C93.527,53.355,95.742,52.149,97.953,50.937"/>
<path fill="#FFFFFF" d="M53.178,36.053c-2.893-1.726-5.392-3.216-8.674-5.175c1.24,3.154,2.115,5.417,3.024,7.665
	c0.198,0.493,0.518,0.938,0.865,1.552C49.973,38.761,51.399,37.556,53.178,36.053"/>
<path fill="#FFFFFF" d="M66.004,23.347c-0.613,1.621-1.068,2.725-1.452,3.852c-1.946,5.726-1.94,5.728,4.437,5.111
	C68.441,29.373,67.326,26.657,66.004,23.347"/>
<path fill="#FFFFFF" d="M87.018,31.764c-0.22-0.143-0.438-0.286-0.657-0.429c-2.442,1.509-4.883,3.019-7.526,4.651
	c1.455,1.269,2.645,2.254,3.773,3.306c0.85,0.792,1.279,0.549,1.65-0.44C85.15,36.479,86.094,34.125,87.018,31.764"/>
<path fill="#FFFFFF" d="M61.063,79.609c-2.252-0.746-4.008-1.329-6.012-1.992c-0.1,3.205-0.473,6.122,0.104,9.46
	C57.197,84.497,58.971,82.256,61.063,79.609"/>
<path fill="#FFFFFF" d="M43.869,65.405c-2.105,2.403-4.051,4.623-5.995,6.843c3.215-0.125,6.219-0.26,9.168-1.543
	C45.941,68.868,44.983,67.267,43.869,65.405"/>
<path fill="#FFFFFF" d="M76.697,86.523c0.232-0.101,0.463-0.201,0.693-0.301c0-0.996,0.012-1.991-0.002-2.987
	c-0.092-6.057-0.094-6.057-5.646-3.817c-0.076,0.03-0.109,0.166-0.345,0.545C73.117,82.091,74.908,84.307,76.697,86.523"/>
<path fill="#FFFFFF" d="M94.599,72.559c-1.255-1.463-1.969-2.302-2.691-3.133c-3.931-4.521-3.931-4.52-6.585,1.345
	C88.1,71.657,90.92,72.147,94.599,72.559"/>
<path fill="#FFFFFF" d="M84.543,78.378c-0.494-1.715-0.412-3.722-2.078-4.649c-0.332-0.188-2.242,1.298-2.143,1.682
	C80.819,77.335,82.999,77.396,84.543,78.378"/>
<path fill="#FFFFFF" d="M47.724,78.543c1.364-1.162,3.711-1.006,4.055-3.167c0.071-0.444-1.515-1.734-1.886-1.577
	C47.941,74.63,48.2,76.736,47.724,78.543"/>
<path fill="#FFFFFF" d="M94.857,61.259c-2.051-0.955-3.224-2.677-5.074-2.004c-0.606,0.219-0.954,2.228-0.277,2.622
	C91.056,62.781,92.695,61.863,94.857,61.259"/>
<path fill="#FFFFFF" d="M37.251,61.388c2.166,0.75,3.841,1.494,5.479,0.479c0.298-0.185,0.072-2.208-0.349-2.392
	C40.323,58.563,39.303,60.642,37.251,61.388"/>
<path fill="#FFFFFF" d="M90.977,42.381c-1.837-0.267-3.775-0.667-4.814,0.744c-0.42,0.572,0.543,2.021,1.743,2.736
	C88.93,44.7,89.954,43.54,90.977,42.381"/>
<path fill="#FFFFFF" d="M56.125,29.542c-0.3,1.673-1.013,3.444,0.212,4.697c0.522,0.534,2.405-0.18,2.537-0.857
	C59.24,31.51,57.231,30.803,56.125,29.542"/>
<path fill="#FFFFFF" d="M66.079,84.959c0.62-1.531,2.184-2.914,1.358-4.74c-0.17-0.373-2.097-0.542-2.419-0.15
	C63.579,81.816,65.593,83.184,66.079,84.959"/>
<path fill="#FFFFFF" d="M40.512,42.099c1.643,1.428,2.198,3.406,3.871,3.598c0.845,0.097,1.411-1.61,1.632-2.831
	C44.339,42.453,42.893,41.859,40.512,42.099"/>
<path fill="#FFFFFF" d="M75.918,28.943c-3.786,4.382-3.786,4.382-0.138,5.394C76.205,32.732,76.131,31.137,75.918,28.943"/>
<path fill-rule="evenodd" clip-rule="evenodd" fill="#FFFFFF" d="M66.17,77.3c-11.83,0.026-21.312-9.314-21.374-21.056
	c-0.064-11.947,9.408-21.585,21.236-21.606c11.854-0.022,21.438,9.59,21.409,21.473C87.413,67.846,77.949,77.271,66.17,77.3"/>
<path fill-rule="evenodd" clip-rule="evenodd" fill="#FFFFFF" d="M33.818,50.977c1.515-1.121,2.807-0.846,3.983-1.052
	c6.032-1.057,6.037-1.037,3.973,5.303C39.207,53.857,36.683,52.507,33.818,50.977"/>
<path fill-rule="evenodd" clip-rule="evenodd" fill="#FFFFFF" d="M97.953,50.937c-2.211,1.213-4.426,2.419-6.629,3.642
	c-1.119,0.622-1.644,0.288-1.771-0.959c-0.103-1-0.253-2.005-0.491-2.982c-0.279-1.145-0.114-1.738,1.259-1.511
	c2.482,0.412,4.975,0.758,7.463,1.131C97.84,50.484,97.897,50.711,97.953,50.937"/>
<path fill-rule="evenodd" clip-rule="evenodd" fill="#FFFFFF" d="M53.178,36.053c-1.779,1.502-3.206,2.708-4.785,4.042
	c-0.348-0.615-0.667-1.06-0.865-1.552c-0.909-2.249-1.784-4.511-3.024-7.665C47.786,32.837,50.285,34.328,53.178,36.053"/>
<path fill-rule="evenodd" clip-rule="evenodd" fill="#FFFFFF" d="M66.004,23.347c1.322,3.31,2.438,6.026,2.985,8.963
	c-6.377,0.617-6.383,0.615-4.437-5.111C64.936,26.071,65.391,24.968,66.004,23.347"/>
<path fill-rule="evenodd" clip-rule="evenodd" fill="#FFFFFF" d="M87.018,31.764c-0.924,2.361-1.867,4.716-2.76,7.088
	c-0.371,0.989-0.801,1.232-1.65,0.44c-1.129-1.051-2.318-2.037-3.773-3.306c2.644-1.633,5.084-3.142,7.526-4.651
	C86.579,31.478,86.798,31.621,87.018,31.764"/>
<path fill-rule="evenodd" clip-rule="evenodd" fill="#FFFFFF" d="M61.063,79.609c-2.092,2.646-3.866,4.888-5.907,7.468
	c-0.578-3.338-0.204-6.255-0.104-9.46C57.055,78.28,58.811,78.863,61.063,79.609"/>
<path fill-rule="evenodd" clip-rule="evenodd" fill="#FFFFFF" d="M43.869,65.405c1.115,1.861,2.073,3.463,3.173,5.3
	c-2.949,1.283-5.953,1.418-9.168,1.543C39.817,70.028,41.764,67.809,43.869,65.405"/>
<path fill-rule="evenodd" clip-rule="evenodd" fill="#FFFFFF" d="M76.697,86.523c-1.789-2.217-3.58-4.433-5.299-6.561
	c0.235-0.379,0.269-0.515,0.345-0.545c5.552-2.239,5.554-2.239,5.646,3.817c0.014,0.996,0.002,1.991,0.002,2.987
	C77.16,86.322,76.93,86.423,76.697,86.523"/>
<path fill-rule="evenodd" clip-rule="evenodd" fill="#FFFFFF" d="M94.599,72.559c-3.679-0.411-6.499-0.901-9.276-1.788
	c2.654-5.864,2.654-5.865,6.585-1.345C92.63,70.257,93.344,71.096,94.599,72.559"/>
<path fill-rule="evenodd" clip-rule="evenodd" fill="#FFFFFF" d="M84.543,78.378c-1.544-0.982-3.724-1.043-4.221-2.968
	c-0.1-0.384,1.811-1.869,2.143-1.682C84.131,74.656,84.049,76.663,84.543,78.378"/>
<path fill-rule="evenodd" clip-rule="evenodd" fill="#FFFFFF" d="M47.724,78.543c0.476-1.807,0.217-3.913,2.169-4.744
	c0.372-0.157,1.957,1.133,1.886,1.577C51.435,77.537,49.088,77.381,47.724,78.543"/>
<path fill-rule="evenodd" clip-rule="evenodd" fill="#FFFFFF" d="M94.857,61.259c-2.162,0.604-3.802,1.522-5.352,0.618
	c-0.677-0.395-0.329-2.403,0.277-2.622C91.634,58.583,92.807,60.304,94.857,61.259"/>
<path fill-rule="evenodd" clip-rule="evenodd" fill="#FFFFFF" d="M37.251,61.388c2.051-0.747,3.072-2.825,5.13-1.913
	c0.421,0.185,0.647,2.208,0.349,2.392C41.092,62.882,39.417,62.139,37.251,61.388"/>
<path fill-rule="evenodd" clip-rule="evenodd" fill="#FFFFFF" d="M90.977,42.381c-1.022,1.159-2.047,2.319-3.071,3.48
	c-1.2-0.714-2.163-2.164-1.743-2.736C87.201,41.714,89.14,42.114,90.977,42.381"/>
<path fill-rule="evenodd" clip-rule="evenodd" fill="#FFFFFF" d="M56.125,29.542c1.106,1.26,3.115,1.967,2.75,3.839
	c-0.132,0.677-2.015,1.392-2.537,0.857C55.112,32.986,55.825,31.216,56.125,29.542"/>
<path fill-rule="evenodd" clip-rule="evenodd" fill="#FFFFFF" d="M66.079,84.959c-0.486-1.775-2.5-3.143-1.061-4.891
	c0.322-0.392,2.25-0.223,2.419,0.15C68.263,82.045,66.699,83.428,66.079,84.959"/>
<path fill-rule="evenodd" clip-rule="evenodd" fill="#FFFFFF" d="M40.512,42.099c2.381-0.24,3.828,0.354,5.502,0.767
	c-0.221,1.221-0.787,2.928-1.632,2.831C42.71,45.505,42.154,43.527,40.512,42.099"/>
<path fill-rule="evenodd" clip-rule="evenodd" fill="#FFFFFF" d="M75.918,28.943c0.213,2.194,0.287,3.789-0.138,5.394
	C72.132,33.325,72.132,33.325,75.918,28.943"/>
<path fill-rule="evenodd" clip-rule="evenodd" fill="#FFFFFF" d="M52.834,92.53c2.305-2.522,6.819-2.01,10.635-1.97
	c2.239,0.021,3.621,0.896,3.938,2.975c0.268,1.75,1.155,2.092,2.677,2.117c3.787,0.066,7.586,0.405,11.301-0.623
	c1.075-0.297,2.138-0.697,3.141-1.186c2.011-0.979,3.172-2.642,3.107-4.888c-0.063-2.224-0.688-5.207-3.321-7.429
	c-0.561-0.474,1.744-2.569,3.283-2.6c3.283,2.736,4.65,6.155,4.377,10.567c0.051,4.42-3.012,7.393-8.03,9.01
	c-4.556,1.467-9.267,1.631-13.989,1.161c-1.385-0.137-2.319-0.066-2.805,1.484c-0.522,1.666-1.867,2.247-3.589,2.309
	c-2.571,0.091-4.623,0.091-7.348,0.116c-2.624,0.024-1.454-2.825-3.376-2.429c0.202-0.202,0.402-0.405,0.604-0.608
	c1.061-2.463,1.06-4.927-0.001-7.39C53.235,92.942,53.034,92.736,52.834,92.53"/>
<path fill-rule="evenodd" clip-rule="evenodd" fill="#FFFFFF" d="M53.438,100.538c-0.201,0.204-0.402,0.406-0.603,0.608
	c-2.123,0.044-4.247,0.104-6.371,0.124c-0.718,0.009-1.569-0.057-1.54-1.019c0.028-0.925,0.866-0.991,1.591-0.997
	c1.925-0.014,3.85,0,5.775-0.004C53.166,99.249,53.626,99.6,53.438,100.538"/>
<path fill-rule="evenodd" clip-rule="evenodd" fill="#FFFFFF" d="M52.834,92.53c0.2,0.206,0.401,0.412,0.603,0.618
	c0.186,0.927-0.254,1.3-1.137,1.298c-1.923-0.004-3.847,0.02-5.77-0.016c-0.675-0.012-1.589,0.076-1.593-0.936
	c-0.002-1.212,0.902-1.11,1.747-0.956c0.42,0.545,0.837,0.869,1.234-0.018C49.557,92.524,51.195,92.527,52.834,92.53"/>
<path fill-rule="evenodd" clip-rule="evenodd" fill="#FFFFFF" d="M47.918,92.522c-0.398,0.886-0.815,0.562-1.234,0.017
	C47.095,92.533,47.506,92.528,47.918,92.522"/>
<path fill="#A81D3F" d="M69.863,41.678c0.41,0.397,0.885,0.748,1.214,1.204c0.49,0.677,0.901,1.415,1.296,2.153
	c0.308,0.577,0.621,1.049,1.388,0.99c0.187-0.015,0.429,0.162,0.582,0.313c1.347,1.329,2.696,2.658,4.012,4.018
	c0.865,0.894,1.212,2.045,1.319,3.245c0.21,2.336-0.181,4.604-0.96,6.939c-0.601-0.594-1.16-1.129-1.69-1.694
	c-0.085-0.092-0.022-0.316-0.045-0.476c-0.149-1.087-0.275-2.179-0.472-3.258c-0.065-0.362-0.286-0.708-0.484-1.028
	c-0.936-1.502-1.535-1.573-2.785-0.329c-2.29,2.282-4.578,4.565-6.843,6.871c-0.202,0.206-0.321,0.577-0.329,0.875
	c-0.012,0.522-0.161,0.926-0.537,1.299c-2.34,2.322-4.672,4.651-6.985,7c-0.56,0.569-1.188,0.639-1.864,0.389
	c-1.155-0.428-1.958-1.254-2.407-2.395c-0.279-0.708-0.174-1.339,0.409-1.914c2.332-2.3,4.64-4.625,6.948-6.947
	c0.364-0.365,0.759-0.638,1.292-0.539c0.408,0.077,0.667-0.083,0.943-0.363c1.974-1.996,3.961-3.979,5.944-5.965
	c0.075-0.076,0.148-0.153,0.218-0.233c1.348-1.564,0.816-3.36-1.211-3.732c-1.4-0.257-2.081-1.309-2.938-2.188
	c-0.333-0.341,0.001-0.683,0.251-0.934c1.109-1.109,2.233-2.203,3.353-3.304H69.863z"/>
<path fill="#A81D3F" d="M57.606,41.678c1.452,0.214,2.792,0.697,3.892,1.704c1.63,1.492,2.628,3.265,2.379,5.563
	c-0.021,0.188-0.04,0.401-0.138,0.55c-0.462,0.697-0.128,1.137,0.402,1.604c0.656,0.573,1.247,1.216,1.932,1.894
	c-1.103,1.09-2.172,2.171-3.272,3.22c-0.293,0.281-0.639,0.237-0.946-0.084c-0.588-0.615-1.188-1.22-1.81-1.799
	c-0.138-0.129-0.432-0.247-0.578-0.188c-2.05,0.836-3.847,0.225-5.482-1.009c-1.532-1.155-2.499-2.691-2.772-4.629
	c-0.075-0.533,0.082-0.907,0.573-1.166c0.548,0.548,1.134,1.074,1.65,1.661c0.703,0.803,1.567,0.937,2.547,0.751
	c1.398-0.267,3.091-2.104,3.251-3.513c0.095-0.835-0.099-1.556-0.724-2.144c-0.587-0.553-1.167-1.116-1.794-1.717
	c0.25-0.274,0.442-0.487,0.636-0.699H57.606z"/>
<path fill="#A81D3F" d="M75.991,70.403c-1.052-0.126-1.534-0.946-2.049-1.707c-1.463-2.169-3.441-3.861-5.249-5.711
	c-0.877-0.898-0.883-0.952-0.016-1.823c0.912-0.917,1.82-1.841,2.777-2.809c1.046,1.06,2.09,2.056,3.063,3.115
	c1.332,1.45,2.9,2.607,4.474,3.765c0.78,0.573,0.852,1.509,0.195,2.173c-0.984,0.995-1.961,1.998-2.94,2.997H75.991z M77.391,66.476
	c0.002-0.822-0.729-1.553-1.542-1.542c-0.783,0.01-1.5,0.74-1.501,1.525c0,0.806,0.687,1.509,1.486,1.521
	C76.681,67.994,77.388,67.311,77.391,66.476"/>
<path fill="#FFFFFF" d="M77.391,66.476c-0.003,0.835-0.71,1.519-1.557,1.504c-0.8-0.013-1.486-0.716-1.486-1.521
	c0.001-0.785,0.718-1.515,1.501-1.525C76.662,64.923,77.393,65.653,77.391,66.476"/>
</svg>
