<?xml version="1.0" encoding="utf-8"?>
<!-- Generator: Adobe Illustrator 16.0.0, SVG Export Plug-In . SVG Version: 6.00 Build 0)  -->
<!DOCTYPE svg PUBLIC "-//W3C//DTD SVG 1.1//EN" "http://www.w3.org/Graphics/SVG/1.1/DTD/svg11.dtd">
<svg version="1.1" id="Layer_2" xmlns="http://www.w3.org/2000/svg" xmlns:xlink="http://www.w3.org/1999/xlink" x="0px" y="0px"
	 width="260px" height="100px" viewBox="-65 15 260 100" enable-background="new -65 15 260 100" xml:space="preserve">
<g>
	<g>
		<path fill="#012445" d="M135.089,46.127c-2.928,0-5.291-1.658-5.291-5.997V27.147c0-4.339,2.363-5.998,5.291-5.998
			c2.929,0,5.292,1.658,5.292,5.998V40.13C140.381,44.469,138.018,46.127,135.089,46.127z M135.089,23.408
			c-1.94,0-2.893,1.164-2.893,4.339V39.53c0,3.175,0.952,4.339,2.893,4.339s2.894-1.164,2.894-4.339V27.747
			C137.982,24.572,137.029,23.408,135.089,23.408z"/>
		<path fill="#012445" d="M143.379,21.291h9.172c0.529,0,0.706,0.176,0.706,0.706v0.847c0,0.529-0.177,0.706-0.706,0.706h-2.681
			c-0.706,0-0.706,0-0.706,0.706V45.28c0,0.529-0.176,0.706-0.705,0.706h-0.988c-0.528,0-0.705-0.176-0.705-0.706V24.254
			c0-0.706,0-0.706-0.67-0.706h-2.717c-0.529,0-0.705-0.176-0.705-0.706v-0.847C142.674,21.467,142.85,21.291,143.379,21.291z"/>
		<path fill="#012445" d="M163.381,34.097h-4.374c-0.706,0-0.706,0-0.706,0.706V45.28c0,0.529-0.176,0.706-0.705,0.706h-0.988
			c-0.529,0-0.705-0.176-0.705-0.706V21.997c0-0.529,0.176-0.706,0.705-0.706h0.988c0.529,0,0.705,0.176,0.705,0.706v9.137
			c0,0.706,0,0.706,0.706,0.706h4.374c0.706,0,0.706,0,0.706-0.706v-9.137c0-0.529,0.177-0.706,0.705-0.706h0.988
			c0.529,0,0.705,0.176,0.705,0.706V45.28c0,0.529-0.176,0.706-0.705,0.706h-0.988c-0.528,0-0.705-0.176-0.705-0.706V34.803
			C164.087,34.097,164.087,34.097,163.381,34.097z"/>
		<path fill="#012445" d="M170.365,45.28V21.997c0-0.529,0.176-0.706,0.705-0.706h7.092c0.528,0,0.705,0.176,0.705,0.706v0.847
			c0,0.529-0.177,0.706-0.705,0.706h-4.692c-0.706,0-0.706,0-0.706,0.706v6.879c0,0.706,0,0.706,0.706,0.706h4.692
			c0.528,0,0.705,0.176,0.705,0.706v0.847c0,0.529-0.177,0.706-0.705,0.706h-4.692c-0.706,0-0.706,0-0.706,0.706v8.22
			c0,0.706,0,0.706,0.706,0.706h4.692c0.528,0,0.705,0.176,0.705,0.706v0.847c0,0.529-0.177,0.706-0.705,0.706h-7.092
			C170.541,45.986,170.365,45.81,170.365,45.28z"/>
		<path fill="#012445" d="M182.395,45.28V21.997c0-0.529,0.176-0.706,0.705-0.706h4.022c2.928,0,5.291,1.658,5.291,5.997v1.94
			c0,2.646-0.882,4.304-2.222,5.186l2.187,10.972c0.106,0.6-0.247,0.6-0.6,0.6h-1.022c-0.459,0-0.671,0-0.776-0.529l-1.94-9.702
			c-0.105-0.529-0.177-0.529-0.67-0.529h-1.87c-0.706,0-0.706,0-0.706,0.706v9.349c0,0.529-0.176,0.706-0.705,0.706H183.1
			C182.57,45.986,182.395,45.81,182.395,45.28z M184.793,32.263c0,0.706,0,0.706,0.706,0.706h1.623c1.94,0,2.893-1.165,2.893-4.339
			v-0.741c0-3.175-0.952-4.339-2.893-4.339h-1.623c-0.706,0-0.706,0-0.706,0.706V32.263z"/>
	</g>
	<g>
		<path fill="#012445" d="M129.621,60.167h9.172c0.529,0,0.706,0.176,0.706,0.706v0.847c0,0.529-0.177,0.706-0.706,0.706h-2.681
			c-0.706,0-0.706,0-0.706,0.706v21.026c0,0.529-0.176,0.705-0.705,0.705h-0.988c-0.528,0-0.705-0.176-0.705-0.705V63.13
			c0-0.706,0-0.706-0.67-0.706h-2.717c-0.529,0-0.705-0.176-0.705-0.706v-0.847C128.916,60.343,129.092,60.167,129.621,60.167z"/>
		<path fill="#012445" d="M147.083,85.002c-2.928,0-5.291-1.658-5.291-5.997V66.022c0-4.339,2.363-5.997,5.291-5.997
			c2.929,0,5.292,1.658,5.292,5.997v12.982C152.375,83.344,150.012,85.002,147.083,85.002z M147.083,62.283
			c-1.94,0-2.893,1.164-2.893,4.34v11.782c0,3.175,0.952,4.339,2.893,4.339s2.894-1.164,2.894-4.339V66.623
			C149.977,63.447,149.023,62.283,147.083,62.283z"/>
		<path fill="#012445" d="M158.301,84.156c0,0.529-0.176,0.705-0.705,0.705h-0.988c-0.529,0-0.705-0.176-0.705-0.705V60.872
			c0-0.529,0.176-0.706,0.705-0.706h4.022c2.928,0,5.291,1.658,5.291,5.998v4.021c0,4.34-2.363,5.997-5.291,5.997h-1.623
			c-0.706,0-0.706,0-0.706,0.706V84.156z M158.301,73.22c0,0.705,0,0.705,0.706,0.705h1.623c1.94,0,2.893-1.164,2.893-4.339v-2.822
			c0-3.175-0.952-4.339-2.893-4.339h-1.623c-0.706,0-0.706,0-0.706,0.706V73.22z"/>
		<path fill="#012445" d="M177.351,79.429h1.093c0.459,0,0.564,0.07,0.636,0.705c0.141,1.481,1.058,2.61,2.434,2.61
			c1.306,0,2.505-0.952,2.505-3.28v-6.845c0-2.328-1.164-3.28-2.469-3.28c-1.235,0-2.47,0.952-2.47,3.28v0.812
			c0,0.529-0.177,0.705-0.706,0.705h-0.987c-0.529,0-0.706-0.176-0.706-0.705v-12.56c0-0.529,0.177-0.706,0.706-0.706h8.325
			c0.529,0,0.706,0.176,0.706,0.706v0.847c0,0.529-0.177,0.706-0.706,0.706h-5.927c-0.6,0-0.705,0.141-0.705,0.706v5.433
			c0.776-1.059,1.834-1.481,2.822-1.481c2.505,0,4.516,1.517,4.516,6.209v5.503c0,4.692-2.046,6.209-4.904,6.209
			c-2.857,0-4.304-1.587-4.727-4.268C176.645,79.605,176.75,79.429,177.351,79.429z"/>
	</g>
	<path fill="#00ACF2" d="M116.793,33.931c0,8.672-7.031,15.703-15.703,15.703s-15.703-7.031-15.703-15.703
		s7.031-15.703,15.703-15.703S116.793,25.259,116.793,33.931"/>
	<path fill="#FBAE17" d="M116.793,71.933c0,8.672-7.031,15.703-15.703,15.703s-15.703-7.031-15.703-15.703
		s7.031-15.703,15.703-15.703S116.793,63.261,116.793,71.933"/>
</g>
</svg>
