<?xml version="1.0" encoding="utf-8"?>
<!-- Generator: Adobe Illustrator 16.0.0, SVG Export Plug-In . SVG Version: 6.00 Build 0)  -->
<!DOCTYPE svg PUBLIC "-//W3C//DTD SVG 1.0//EN" "http://www.w3.org/TR/2001/REC-SVG-20010904/DTD/svg10.dtd">
<svg version="1.0" id="Layer_1" xmlns="http://www.w3.org/2000/svg" xmlns:xlink="http://www.w3.org/1999/xlink" x="0px" y="0px"
	 width="130px" height="130px" viewBox="0 0 130 130" enable-background="new 0 0 130 130" xml:space="preserve">
<path fill="#FFFFFF" d="M65.69,3.042L65.69,3.042c-7.291,0-14.524,1.276-21.375,3.769c-6.852,2.494-13.213,6.167-18.799,10.853
	c-5.584,4.687-10.307,10.314-13.953,16.628C7.919,40.606,5.406,47.509,4.14,54.689c-1.266,7.181-1.266,14.526,0,21.706
	c1.267,7.18,3.779,14.084,7.424,20.396c3.646,6.314,8.369,11.941,13.953,16.629c5.586,4.686,11.947,8.359,18.799,10.854
	c6.851,2.492,14.084,3.768,21.375,3.768s14.525-1.275,21.377-3.768c6.851-2.494,13.213-6.168,18.798-10.854
	c5.585-4.688,10.307-10.314,13.952-16.629c3.646-6.312,6.158-13.217,7.425-20.396c1.265-7.18,1.265-14.525,0-21.706
	c-1.267-7.18-3.779-14.083-7.425-20.397s-8.367-11.941-13.952-16.628c-5.585-4.686-11.947-8.359-18.798-10.853
	C80.216,4.318,72.981,3.042,65.69,3.042"/>
<path fill="none" stroke="#00ACF2" stroke-width="2" stroke-miterlimit="10" d="M65.69,3.042L65.69,3.042
	c-7.291,0-14.524,1.276-21.375,3.769c-6.852,2.494-13.213,6.167-18.799,10.853c-5.584,4.687-10.307,10.314-13.953,16.628
	C7.919,40.606,5.406,47.509,4.14,54.689c-1.266,7.181-1.266,14.526,0,21.706c1.267,7.18,3.779,14.084,7.424,20.396
	c3.646,6.314,8.369,11.941,13.953,16.629c5.586,4.686,11.947,8.359,18.799,10.854c6.851,2.492,14.084,3.768,21.375,3.768
	s14.525-1.275,21.377-3.768c6.851-2.494,13.213-6.168,18.798-10.854c5.585-4.688,10.307-10.314,13.952-16.629
	c3.646-6.312,6.158-13.217,7.425-20.396c1.265-7.18,1.265-14.525,0-21.706c-1.267-7.18-3.779-14.083-7.425-20.397
	s-8.367-11.941-13.952-16.628c-5.585-4.686-11.947-8.359-18.798-10.853C80.216,4.318,72.981,3.042,65.69,3.042z"/>
<path fill="#792491" d="M111.616,65.542c0-25.323-20.529-45.853-45.854-45.853c-25.323,0-45.852,20.529-45.852,45.853
	c0,25.324,20.528,45.853,45.852,45.853C91.087,111.395,111.616,90.865,111.616,65.542"/>
<line fill="none" stroke="#FFFFFF" stroke-width="6.394" stroke-miterlimit="10" x1="89.263" y1="42.042" x2="33.341" y2="97.965"/>
<polyline fill="none" stroke="#FFFFFF" stroke-width="6.394" stroke-miterlimit="10" points="89.079,62.284 89.079,42.227 
	69.021,42.227 "/>
</svg>
