<?xml version="1.0" encoding="utf-8"?>
<!-- Generator: Adobe Illustrator 16.0.0, SVG Export Plug-In . SVG Version: 6.00 Build 0)  -->
<!DOCTYPE svg PUBLIC "-//W3C//DTD SVG 1.1//EN" "http://www.w3.org/Graphics/SVG/1.1/DTD/svg11.dtd">
<svg version="1.1" id="Layer_9" xmlns="http://www.w3.org/2000/svg" xmlns:xlink="http://www.w3.org/1999/xlink" x="0px" y="0px"
	 width="130px" height="130px" viewBox="0 0 130 130" enable-background="new 0 0 130 130" xml:space="preserve">
<g>
	<path fill="#FFFFFF" d="M65,1.7L65,1.7c-7.384,0-14.711,1.292-21.649,3.817c-6.939,2.525-13.383,6.246-19.039,10.992
		c-5.657,4.746-10.44,10.446-14.131,16.841c-3.693,6.395-6.237,13.386-7.52,20.658c-1.282,7.271-1.282,14.711,0,21.984
		c1.282,7.271,3.827,14.263,7.52,20.658c3.691,6.395,8.474,12.094,14.131,16.84c5.656,4.747,12.099,8.467,19.039,10.992
		c6.938,2.526,14.266,3.818,21.649,3.818s14.711-1.292,21.65-3.818c6.938-2.525,13.382-6.245,19.038-10.992
		c5.657-4.746,10.438-10.445,14.132-16.84c3.691-6.396,6.236-13.387,7.518-20.658c1.283-7.272,1.283-14.712,0-21.984
		c-1.281-7.272-3.826-14.263-7.518-20.658c-3.693-6.395-8.475-12.095-14.132-16.841c-5.656-4.747-12.1-8.467-19.038-10.992
		C79.711,2.992,72.384,1.7,65,1.7"/>
	<path fill="none" stroke="#A81D3F" stroke-width="2" stroke-linecap="round" stroke-linejoin="round" stroke-miterlimit="10" d="
		M65,1.7L65,1.7c-7.384,0-14.711,1.292-21.649,3.817c-6.939,2.525-13.383,6.246-19.039,10.992
		c-5.657,4.746-10.44,10.446-14.131,16.841c-3.693,6.395-6.237,13.386-7.52,20.658c-1.282,7.271-1.282,14.711,0,21.984
		c1.282,7.271,3.827,14.263,7.52,20.658c3.691,6.395,8.474,12.094,14.131,16.84c5.656,4.747,12.099,8.467,19.039,10.992
		c6.938,2.526,14.266,3.818,21.649,3.818s14.711-1.292,21.65-3.818c6.938-2.525,13.382-6.245,19.038-10.992
		c5.657-4.746,10.438-10.445,14.132-16.84c3.691-6.396,6.236-13.387,7.518-20.658c1.283-7.272,1.283-14.712,0-21.984
		c-1.281-7.272-3.826-14.263-7.518-20.658c-3.693-6.395-8.475-12.095-14.132-16.841c-5.656-4.747-12.1-8.467-19.038-10.992
		C79.711,2.992,72.384,1.7,65,1.7z"/>
	<path fill="#A81D3F" d="M65,112.476L65,112.476C38.78,112.476,17.524,91.22,17.524,65v0C17.524,38.78,38.78,17.524,65,17.524
		c26.219,0,47.474,21.256,47.474,47.475v0C112.475,91.22,91.22,112.476,65,112.476"/>
	<path fill="#FFFFFF" d="M54.565,30.197c-13.261,0-24.01,10.75-24.01,24.011c0,13.261,10.75,24.011,24.01,24.011
		s24.011-10.75,24.011-24.011C78.576,40.948,67.826,30.197,54.565,30.197 M54.565,72.729c-10.228,0-18.52-8.292-18.52-18.52
		c0-10.229,8.292-18.52,18.52-18.52s18.521,8.292,18.521,18.52C73.086,64.437,64.793,72.729,54.565,72.729"/>
	<path fill="#FFFFFF" d="M95.851,89.183l-6.312,6.312c-0.825,0.825-2.163,0.825-2.988,0L71.643,80.586
		c-0.825-0.826-0.825-2.164,0-2.989l6.312-6.311c0.825-0.826,2.163-0.826,2.988,0l14.908,14.908
		C96.676,87.019,96.676,88.357,95.851,89.183"/>
	
		<rect x="69.185" y="66.039" transform="matrix(0.707 -0.7072 0.7072 0.707 -30.1047 73.1927)" fill="#FFFFFF" width="8.207" height="13.784"/>
	<path fill="#FFFFFF" d="M53.486,45.939h-6.663c-0.764,0-1.389,0.625-1.389,1.388V61.09c0,0.763,0.625,1.388,1.389,1.388h6.663
		c0.764,0,1.389-0.625,1.389-1.388V47.327C54.875,46.563,54.25,45.939,53.486,45.939 M52.792,60.257h-5.275V48.16h5.275V60.257z"/>
	<path fill="#FFFFFF" d="M60.705,62.478h2.082V47.327c0-0.763-0.625-1.388-1.388-1.388h-3.332v2.221h2.638V62.478z"/>
</g>
</svg>
