<?xml version="1.0" encoding="utf-8"?>
<!-- Generator: Adobe Illustrator 16.0.0, SVG Export Plug-In . SVG Version: 6.00 Build 0)  -->
<!DOCTYPE svg PUBLIC "-//W3C//DTD SVG 1.1//EN" "http://www.w3.org/Graphics/SVG/1.1/DTD/svg11.dtd">
<svg version="1.1" id="Layer_9" xmlns="http://www.w3.org/2000/svg" xmlns:xlink="http://www.w3.org/1999/xlink" x="0px" y="0px"
	 width="130px" height="130px" viewBox="0 0 130 130" enable-background="new 0 0 130 130" xml:space="preserve">
<g>
	<path fill="#FFFFFF" d="M64.996,1.501C30.103,1.506,1.55,29.986,1.507,64.833c-0.044,34.985,28.271,63.652,62.882,63.666
		c35.319,0.014,63.829-28.089,64.103-62.669C128.757,31.532,101.511,1.843,64.996,1.501"/>
	<path fill="#FFFFFF" d="M75.96,74.546c-2.866-0.328-5.712-0.196-8.55-0.146c-1.205,0.025-1.591-0.507-1.636-1.503
		c-0.119-2.598,0.822-4.684,3.088-6.074c2.202-1.359,5.235-1.209,7.292,0.405c2.021,1.581,2.747,3.715,2.367,6.223
		C78.256,75.15,76.846,74.287,75.96,74.546"/>
	<path fill="#BCD031" d="M9.239,65.03c0-30.479,24.713-55.188,55.189-55.188c30.484,0,55.191,24.71,55.191,55.188
		s-24.707,55.191-55.191,55.191C33.952,120.222,9.239,95.509,9.239,65.03"/>
	<path fill="#FFFFFF" d="M74.029,80.7c3.028,0,6.057-0.081,9.086,0.019c7.278,0.229,9.926,4.338,9.521,10.824
		c-0.377,5.969-3.653,8.967-9.65,9.177c-5.363,0.187-10.718-0.142-16.03-0.811c-4.231-0.538-8.185-2.058-11.826-4.281
		c-2.854-1.74-5.63-3.595-8.446-5.391c-0.592-0.378-1.143-0.795-1.519-1.392c-0.83-1.305-1.353-2.658-0.081-3.96
		c1.236-1.262,2.688-1.29,4.13-0.369c2.235,1.417,4.435,2.893,6.658,4.329c6.182,3.987,12.911,4.168,19.87,2.877
		c0.965-0.18,1.048-0.746,0.957-1.491c-0.227-1.756-1.553-2.367-3.013-2.707c-2.662-0.627-5.397-0.303-8.101-0.467
		c-0.688-0.043-1.386-0.068-2.062-0.186c-1.611-0.282-2.944-0.898-2.845-2.876c0.086-1.732,1.319-3.058,3.132-3.223
		c1.315-0.113,2.648-0.033,3.973-0.039c2.082,0,4.165,0,6.247,0V80.7z"/>
	<path fill="#FFFFFF" d="M77.886,53.768c-1.083-2.197-2.536-3.944-4.968-4.635c-0.806-0.235-1.682-0.511-2.417-0.244
		c-1.983,0.72-3.377-0.238-4.73-1.402c-1.12-0.965-2.271-1.268-3.797-0.965c-3.089,0.606-6.224,0.965-9.342,1.417
		c-0.751,0.104-1.53,0.117-1.692,1.122c-0.164,1.033,0.329,1.693,1.174,2.15c1.307,0.705,2.739,0.938,4.193,1.022
		c2.581,0.157,5.164,0.025,7.75-0.102c1.831-0.092,3.278,1.351,3.37,3.122c0.093,1.697-1.13,3.286-2.875,3.41
		c-7.613,0.515-15.234,1.001-22.851,0.052c-5.847-0.727-8.793-4.339-8.464-10.229c0.31-5.376,2.212-7.577,7.532-8.849
		c2.911-0.694,5.877-0.762,8.833-0.794c4.861-0.062,9.721,0.017,14.582-0.045c1.49-0.018,2.701,0.426,3.782,1.403
		c3.138,2.833,6.312,5.623,9.426,8.481C79.108,50.259,79.223,51.682,77.886,53.768"/>
	<path fill="#FFFFFF" d="M52.65,68.062c0.016-3.692,2.779-6.392,6.509-6.361c3.544,0.04,6.306,2.866,6.269,6.438
		c-0.033,3.521-2.892,6.404-6.365,6.417C55.466,74.567,52.635,71.702,52.65,68.062"/>
	<path fill="#FFFFFF" d="M76.584,56.871c-0.087,1.541-1.083,3.172-3.074,4.158c-2.081,1.021-4.026,0.663-5.872-0.613
		c-0.679-0.47-0.884-0.802-0.166-1.572c2.004-2.122,2.193-3.765,0.625-6.102c-0.725-1.078-0.284-1.341,0.58-1.732
		C72.518,49.275,76.617,51.961,76.584,56.871"/>
</g>
</svg>
