<?xml version="1.0" encoding="utf-8"?>
<!-- Generator: Adobe Illustrator 16.0.0, SVG Export Plug-In . SVG Version: 6.00 Build 0)  -->
<!DOCTYPE svg PUBLIC "-//W3C//DTD SVG 1.1//EN" "http://www.w3.org/Graphics/SVG/1.1/DTD/svg11.dtd">
<svg version="1.1" id="Layer_9" xmlns="http://www.w3.org/2000/svg" xmlns:xlink="http://www.w3.org/1999/xlink" x="0px" y="0px"
	 width="130px" height="130px" viewBox="0 0 130 130" enable-background="new 0 0 130 130" xml:space="preserve">
<g>
	<path fill="#FFFFFF" d="M65,1.751L65,1.751c-7.378,0-14.7,1.291-21.631,3.814c-6.934,2.523-13.373,6.241-19.024,10.983
		c-5.652,4.742-10.431,10.438-14.119,16.827c-3.689,6.39-6.232,13.375-7.513,20.642c-1.281,7.266-1.281,14.699,0,21.966
		c1.281,7.266,3.824,14.251,7.513,20.642c3.688,6.39,8.467,12.084,14.119,16.826c5.651,4.742,12.09,8.46,19.024,10.983
		c6.932,2.523,14.253,3.814,21.631,3.814c7.377,0,14.699-1.291,21.633-3.814c6.933-2.523,13.37-6.241,19.023-10.983
		c5.652-4.742,10.43-10.437,14.119-16.826c3.689-6.391,6.231-13.376,7.513-20.642c1.28-7.267,1.28-14.7,0-21.966
		c-1.281-7.266-3.823-14.252-7.513-20.642s-8.467-12.085-14.119-16.827c-5.653-4.743-12.091-8.46-19.023-10.983
		C79.699,3.042,72.377,1.751,65,1.751"/>
	<path fill="none" stroke="#A81D3F" stroke-width="2" stroke-linecap="round" stroke-linejoin="round" stroke-miterlimit="10" d="
		M65,1.751L65,1.751c-7.378,0-14.7,1.291-21.631,3.814c-6.934,2.523-13.373,6.241-19.024,10.983
		c-5.652,4.742-10.431,10.438-14.119,16.827c-3.689,6.39-6.232,13.375-7.513,20.642c-1.281,7.266-1.281,14.699,0,21.966
		c1.281,7.266,3.824,14.251,7.513,20.642c3.688,6.39,8.467,12.084,14.119,16.826c5.651,4.742,12.09,8.46,19.024,10.983
		c6.932,2.523,14.253,3.814,21.631,3.814c7.377,0,14.699-1.291,21.633-3.814c6.933-2.523,13.37-6.241,19.023-10.983
		c5.652-4.742,10.43-10.437,14.119-16.826c3.689-6.391,6.231-13.376,7.513-20.642c1.28-7.267,1.28-14.7,0-21.966
		c-1.281-7.266-3.823-14.252-7.513-20.642s-8.467-12.085-14.119-16.827c-5.653-4.743-12.091-8.46-19.023-10.983
		C79.699,3.042,72.377,1.751,65,1.751z"/>
	<path fill="#A81D3F" d="M65,112.437L65,112.437c-26.2,0-47.438-21.238-47.438-47.437v0c0-26.198,21.238-47.437,47.438-47.437
		c26.198,0,47.436,21.239,47.436,47.437v0C112.437,91.198,91.198,112.437,65,112.437"/>
	<path fill="#FFFFFF" d="M73.021,57.68l-4.589-1.75c0.182-1.003,0.282-2.036,0.282-3.092c0-1.394-0.17-2.748-0.484-4.044
		l4.481-2.008c0.811-0.363,1.173-1.314,0.811-2.125l-1.233-2.752c-0.362-0.811-1.314-1.174-2.125-0.811l-4.481,2.008
		c-1.366-1.976-3.133-3.653-5.188-4.906l1.749-4.586c0.316-0.829-0.1-1.759-0.929-2.076l-2.818-1.074
		c-0.83-0.317-1.76,0.1-2.076,0.93l-1.75,4.589c-1.003-0.183-2.037-0.284-3.092-0.284c-1.394,0-2.748,0.169-4.045,0.484l-2.007-4.48
		c-0.363-0.811-1.315-1.173-2.125-0.811l-2.751,1.232c-0.811,0.363-1.174,1.315-0.811,2.126l2.007,4.481
		c-1.976,1.365-3.651,3.134-4.906,5.188l-4.586-1.749c-0.83-0.316-1.76,0.1-2.076,0.931l-1.074,2.817
		c-0.317,0.83,0.1,1.76,0.929,2.075l4.589,1.75c-0.182,1.004-0.283,2.036-0.283,3.092c0,1.394,0.169,2.748,0.483,4.045l-4.48,2.007
		c-0.81,0.363-1.173,1.315-0.81,2.125l1.232,2.751c0.363,0.811,1.315,1.174,2.126,0.811l4.481-2.008
		c1.366,1.976,3.133,3.652,5.188,4.906l-1.749,4.586c-0.315,0.83,0.1,1.759,0.931,2.075l2.817,1.075
		c0.83,0.315,1.759-0.101,2.075-0.929l1.75-4.59c1.004,0.183,2.036,0.283,3.092,0.283c1.394,0,2.748-0.171,4.045-0.484l2.006,4.479
		c0.363,0.812,1.315,1.175,2.125,0.812l2.751-1.232c0.811-0.363,1.174-1.315,0.811-2.126l-2.007-4.481
		c1.976-1.366,3.652-3.133,4.906-5.189l4.586,1.749c0.829,0.317,1.759-0.1,2.076-0.931l1.073-2.816
		C74.268,58.926,73.852,57.996,73.021,57.68 M51.578,63.745c-6.023,0-10.905-4.883-10.905-10.907
		c0-6.023,4.882-10.905,10.905-10.905c6.023,0,10.907,4.882,10.907,10.905C62.484,58.861,57.601,63.745,51.578,63.745"/>
	<path fill="#FFFFFF" d="M91.213,89.716l-2.578-2.714c0.456-0.63,0.865-1.307,1.214-2.033c0.459-0.959,0.786-1.946,0.999-2.941
		l3.74,0.097c0.678,0.018,1.24-0.519,1.259-1.196l0.058-2.297c0.017-0.676-0.518-1.24-1.193-1.258l-3.743-0.095
		c-0.289-1.808-0.952-3.543-1.952-5.082l2.712-2.577c0.491-0.466,0.511-1.242,0.044-1.733l-1.582-1.667
		c-0.467-0.49-1.243-0.511-1.735-0.045l-2.714,2.58c-0.629-0.457-1.307-0.866-2.032-1.214c-0.958-0.459-1.945-0.787-2.941-0.999
		l0.097-3.741c0.018-0.677-0.519-1.241-1.195-1.256l-2.297-0.06c-0.677-0.017-1.241,0.518-1.258,1.195l-0.096,3.743
		c-1.808,0.288-3.544,0.951-5.082,1.952l-2.577-2.713c-0.466-0.491-1.243-0.511-1.733-0.044l-1.667,1.582
		c-0.491,0.466-0.511,1.243-0.044,1.735l2.58,2.714c-0.456,0.629-0.866,1.306-1.214,2.032c-0.459,0.959-0.787,1.945-1,2.94
		l-3.741-0.096c-0.678-0.018-1.241,0.518-1.258,1.195l-0.058,2.299c-0.019,0.677,0.517,1.239,1.194,1.256l3.743,0.096
		c0.289,1.809,0.953,3.544,1.951,5.082l-2.712,2.577c-0.491,0.466-0.511,1.242-0.043,1.735l1.583,1.665
		c0.467,0.491,1.242,0.511,1.732,0.045l2.716-2.58c0.63,0.457,1.306,0.867,2.032,1.213c0.958,0.459,1.945,0.789,2.941,1
		l-0.097,3.742c-0.017,0.676,0.518,1.239,1.194,1.257l2.298,0.06c0.677,0.017,1.24-0.519,1.257-1.195l0.098-3.743
		c1.808-0.289,3.541-0.952,5.081-1.952l2.577,2.712c0.467,0.491,1.243,0.512,1.733,0.046l1.666-1.583
		C91.661,90.983,91.68,90.207,91.213,89.716 M75.994,83.645c-2.386-1.143-3.393-4.002-2.25-6.39c1.143-2.386,4.003-3.394,6.389-2.25
		c2.386,1.142,3.395,4.002,2.252,6.389C81.24,83.779,78.38,84.786,75.994,83.645"/>
	<path fill="#FFFFFF" d="M97.99,41.72l-4.409,14.047c-0.169,0.537-1.034,0.713-1.417,0.29l-5.226-5.78
		c-0.31-0.341-0.974-0.305-1.294,0.07l-6.81,7.982c-0.541,0.631-1.707,0.207-1.382-0.503l7.43-16.229
		c0.226-0.493,1.031-0.621,1.392-0.222l4.515,4.995c0.304,0.336,0.956,0.308,1.282-0.056l4.525-5.042
		C97.118,40.69,98.204,41.041,97.99,41.72"/>
</g>
</svg>
