<?xml version="1.0" encoding="utf-8"?>
<!-- Generator: Adobe Illustrator 16.0.0, SVG Export Plug-In . SVG Version: 6.00 Build 0)  -->
<!DOCTYPE svg PUBLIC "-//W3C//DTD SVG 1.1//EN" "http://www.w3.org/Graphics/SVG/1.1/DTD/svg11.dtd">
<svg version="1.1" id="Layer_9" xmlns="http://www.w3.org/2000/svg" xmlns:xlink="http://www.w3.org/1999/xlink" x="0px" y="0px"
	 width="130px" height="130px" viewBox="0 0 130 130" enable-background="new 0 0 130 130" xml:space="preserve">
<g>
	<path fill="#FFFFFF" d="M65,1.887L65,1.887c-7.362,0-14.667,1.288-21.586,3.806C36.496,8.21,30.072,11.92,24.432,16.652
		c-5.639,4.732-10.408,10.415-14.089,16.792C6.662,39.82,4.124,46.791,2.846,54.041s-1.278,14.668,0,21.918
		c1.278,7.251,3.816,14.221,7.497,20.598c3.682,6.375,8.45,12.059,14.089,16.79c5.64,4.732,12.064,8.442,18.982,10.96
		c6.919,2.519,14.224,3.807,21.586,3.807s14.668-1.288,21.586-3.807c6.919-2.518,13.344-6.228,18.983-10.96
		c5.64-4.731,10.407-10.415,14.088-16.79h0.001c3.681-6.377,6.218-13.347,7.496-20.598c1.278-7.25,1.278-14.668,0-21.918
		s-3.815-14.221-7.496-20.596h-0.001c-3.681-6.377-8.448-12.06-14.088-16.792S93.505,8.21,86.586,5.693
		C79.668,3.175,72.362,1.887,65,1.887"/>
	<path fill="none" stroke="#A81D3F" stroke-width="2" stroke-linecap="round" stroke-linejoin="round" stroke-miterlimit="10" d="
		M65,1.887L65,1.887c-7.362,0-14.667,1.288-21.586,3.806C36.496,8.21,30.072,11.92,24.432,16.652
		c-5.639,4.732-10.408,10.415-14.089,16.792C6.662,39.82,4.124,46.791,2.846,54.041s-1.278,14.668,0,21.918
		c1.278,7.251,3.816,14.221,7.497,20.598c3.682,6.375,8.45,12.059,14.089,16.79c5.64,4.732,12.064,8.442,18.982,10.96
		c6.919,2.519,14.224,3.807,21.586,3.807s14.668-1.288,21.586-3.807c6.919-2.518,13.344-6.228,18.983-10.96
		c5.64-4.731,10.407-10.415,14.088-16.79h0.001c3.681-6.377,6.218-13.347,7.496-20.598c1.278-7.25,1.278-14.668,0-21.918
		s-3.815-14.221-7.496-20.596h-0.001c-3.681-6.377-8.448-12.06-14.088-16.792S93.505,8.21,86.586,5.693
		C79.668,3.175,72.362,1.887,65,1.887z"/>
	<path fill="#A81D3F" d="M65,112.335L65,112.335c-26.142,0-47.334-21.192-47.334-47.335v0c0-26.142,21.192-47.335,47.334-47.335
		c26.143,0,47.335,21.193,47.335,47.335v0C112.335,91.143,91.143,112.335,65,112.335"/>
	<path fill="#FFFFFF" d="M33.057,93.927h1.718c0.734,0,1.331-0.597,1.331-1.332v-8.374c0-0.734,0.596-1.331,1.332-1.331h2.115
		c0.735,0,1.332,0.597,1.332,1.331v8.374c0,0.735,0.597,1.332,1.332,1.332h2.115c0.735,0,1.331-0.597,1.331-1.332V47.961
		c0-0.735-0.596-1.332-1.331-1.332H33.057c-0.735,0-1.331,0.596-1.331,1.332v44.633C31.726,93.33,32.322,93.927,33.057,93.927"/>
	<path fill="#FFFFFF" d="M49.782,93.927h2.117c0.735,0,1.331-0.597,1.331-1.332v-8.374c0-0.734,0.596-1.331,1.331-1.331h2.116
		c0.736,0,1.332,0.597,1.332,1.331v8.374c0,0.735,0.596,1.332,1.332,1.332h1.717c0.735,0,1.332-0.597,1.332-1.332V36.4
		c0-0.736-0.597-1.333-1.332-1.333H49.782c-0.735,0-1.332,0.596-1.332,1.333v56.194C48.45,93.33,49.047,93.927,49.782,93.927"/>
	<path fill="#FFFFFF" d="M66.507,93.927h2.117c0.734,0,1.331-0.597,1.331-1.332v-8.374c0-0.734,0.596-1.331,1.331-1.331h2.115
		c0.736,0,1.332,0.597,1.332,1.331v8.374c0,0.735,0.595,1.332,1.331,1.332h1.718c0.735,0,1.331-0.597,1.331-1.332V31.671
		c0-0.912-0.895-1.554-1.759-1.261l-11.275,3.826c-0.54,0.184-0.903,0.692-0.903,1.261v57.098
		C65.176,93.33,65.771,93.927,66.507,93.927"/>
	<path fill="#FFFFFF" d="M94.508,58.191H83.232c-0.734,0-1.331,0.596-1.331,1.332v33.072c0,0.735,0.597,1.332,1.331,1.332h2.116
		c0.735,0,1.331-0.597,1.331-1.332v-8.372c0-0.736,0.596-1.333,1.331-1.333h2.116c0.735,0,1.332,0.597,1.332,1.333v8.372
		c0,0.735,0.596,1.332,1.33,1.332h1.719c0.734,0,1.331-0.597,1.331-1.332V59.523C95.839,58.787,95.242,58.191,94.508,58.191"/>
</g>
</svg>
