<?xml version="1.0" encoding="utf-8"?>
<!-- Generator: Adobe Illustrator 16.0.0, SVG Export Plug-In . SVG Version: 6.00 Build 0)  -->
<!DOCTYPE svg PUBLIC "-//W3C//DTD SVG 1.1//EN" "http://www.w3.org/Graphics/SVG/1.1/DTD/svg11.dtd">
<svg version="1.1" id="Layer_9" xmlns="http://www.w3.org/2000/svg" xmlns:xlink="http://www.w3.org/1999/xlink" x="0px" y="0px"
	 width="130px" height="130px" viewBox="0 0 130 130" enable-background="new 0 0 130 130" xml:space="preserve">
<g>
	<path fill="#FFFFFF" d="M65,1.708L65,1.708c-7.383,0-14.709,1.292-21.647,3.817c-6.938,2.525-13.38,6.245-19.036,10.99
		S13.88,26.96,10.188,33.354C6.497,39.749,3.952,46.739,2.67,54.01s-1.282,14.71,0,21.98s3.827,14.261,7.518,20.655
		c3.692,6.394,8.474,12.093,14.129,16.838c5.656,4.746,12.098,8.466,19.036,10.991s14.264,3.816,21.647,3.816
		c7.384,0,14.709-1.291,21.646-3.816c6.938-2.525,13.381-6.245,19.036-10.991c5.656-4.745,10.438-10.444,14.129-16.838h0.001
		c3.69-6.395,6.235-13.385,7.517-20.655c1.282-7.271,1.282-14.71,0-21.98c-1.281-7.271-3.826-14.261-7.517-20.655h-0.001
		c-3.691-6.394-8.473-12.093-14.129-16.838c-5.655-4.746-12.098-8.465-19.036-10.99C79.709,3,72.384,1.708,65,1.708"/>
	<path fill="none" stroke="#A81D3F" stroke-width="2" stroke-linecap="round" stroke-linejoin="round" stroke-miterlimit="10" d="
		M65,1.708L65,1.708c-7.383,0-14.709,1.292-21.647,3.817c-6.938,2.525-13.38,6.245-19.036,10.99S13.88,26.96,10.188,33.354
		C6.497,39.749,3.952,46.739,2.67,54.01s-1.282,14.71,0,21.98s3.827,14.261,7.518,20.655c3.692,6.394,8.474,12.093,14.129,16.838
		c5.656,4.746,12.098,8.466,19.036,10.991s14.264,3.816,21.647,3.816c7.384,0,14.709-1.291,21.646-3.816
		c6.938-2.525,13.381-6.245,19.036-10.991c5.656-4.745,10.438-10.444,14.129-16.838h0.001c3.69-6.395,6.235-13.385,7.517-20.655
		c1.282-7.271,1.282-14.71,0-21.98c-1.281-7.271-3.826-14.261-7.517-20.655h-0.001c-3.691-6.394-8.473-12.093-14.129-16.838
		c-5.655-4.746-12.098-8.465-19.036-10.99C79.709,3,72.384,1.708,65,1.708z"/>
	<path fill="#A81D3F" d="M65,112.469L65,112.469c-26.216,0-47.468-21.252-47.468-47.469v0c0-26.215,21.252-47.468,47.468-47.468
		c26.217,0,47.469,21.253,47.469,47.468v0C112.469,91.217,91.217,112.469,65,112.469"/>
	<path fill="#FFFFFF" d="M61.898,80.044c-0.377-0.305-0.597-0.764-0.6-1.248c-0.002-0.484,0.212-0.945,0.586-1.255l4.081-3.386
		l-4.028-3.805c-0.585-0.553-0.675-1.452-0.21-2.109l2.794-3.959H28.698c-0.004,0.24-0.018,0.477-0.018,0.717
		c0,6.397,1.659,12.404,4.562,17.623h31.837L61.898,80.044z"/>
	<path fill="#FFFFFF" d="M101.302,64.282h-32.82l-3.302,4.679l4.336,4.096c0.337,0.318,0.521,0.766,0.506,1.229
		s-0.228,0.897-0.583,1.193l-3.97,3.294l4.749,3.85h26.541c2.903-5.22,4.562-11.227,4.562-17.622
		C101.32,64.759,101.307,64.521,101.302,64.282"/>
	<path fill="#FFFFFF" d="M69.568,24.101L62,41.812c-0.16,0.374,0.033,0.848,0.347,0.848h8.222c0.29,0,0.485,0.414,0.37,0.785
		l-5.088,16.331c-0.187,0.601,0.392,1.084,0.686,0.573l13.668-23.765c0.211-0.368,0.023-0.912-0.314-0.912H69.638
		c-0.245,0-0.434-0.302-0.399-0.64l1.076-10.565C70.376,23.86,69.793,23.574,69.568,24.101"/>
</g>
</svg>
