<?xml version="1.0" encoding="utf-8"?>
<!-- Generator: Adobe Illustrator 16.0.0, SVG Export Plug-In . SVG Version: 6.00 Build 0)  -->
<!DOCTYPE svg PUBLIC "-//W3C//DTD SVG 1.1//EN" "http://www.w3.org/Graphics/SVG/1.1/DTD/svg11.dtd">
<svg version="1.1" id="Layer_2" xmlns="http://www.w3.org/2000/svg" xmlns:xlink="http://www.w3.org/1999/xlink" x="0px" y="0px"
	 width="260px" height="100px" viewBox="-65 15 260 100" enable-background="new -65 15 260 100" xml:space="preserve">
<g>
	<g>
		<path fill="#012445" d="M-55.002,44.169l-3.034-12.523c-0.035-0.177-0.211-0.142-0.211,0v12.312c0,0.529-0.176,0.706-0.706,0.706
			h-0.988c-0.529,0-0.706-0.177-0.706-0.706V20.674c0-0.529,0.176-0.706,0.706-0.706h0.706c0.423,0,0.6,0.106,0.67,0.424
			l4.304,17.745c0.035,0.176,0.247,0.176,0.282,0l4.304-17.745c0.07-0.317,0.247-0.424,0.67-0.424h0.706
			c0.529,0,0.706,0.177,0.706,0.706v23.283c0,0.529-0.176,0.706-0.706,0.706h-0.988c-0.529,0-0.706-0.177-0.706-0.706V31.646
			c0-0.142-0.176-0.177-0.211,0l-3.034,12.523c-0.141,0.494-0.423,0.494-0.776,0.494h-0.212
			C-54.579,44.663-54.861,44.663-55.002,44.169z"/>
		<path fill="#012445" d="M-34.401,44.663c-0.459,0-0.67,0-0.776-0.529l-0.423-2.435c-0.141-0.705-0.141-0.705-0.776-0.705h-4.339
			c-0.706,0-0.67,0-0.812,0.705l-0.423,2.435c-0.105,0.529-0.317,0.529-0.776,0.529h-1.059c-0.353,0-0.706,0-0.6-0.6l4.41-23.461
			c0.106-0.528,0.212-0.635,0.776-0.635h1.27c0.564,0,0.67,0.106,0.776,0.635l4.41,23.461c0.105,0.6-0.247,0.6-0.6,0.6H-34.401z
			 M-40.857,38.03c-0.106,0.706-0.106,0.706,0.6,0.706h3.387c0.706,0,0.706,0,0.6-0.706l-2.152-12.523
			c-0.035-0.177-0.247-0.177-0.282,0L-40.857,38.03z"/>
		<path fill="#012445" d="M-29.533,43.957V20.674c0-0.529,0.176-0.706,0.706-0.706h4.021c2.928,0,5.292,1.658,5.292,5.997v1.94
			c0,2.646-0.882,4.305-2.223,5.187l2.188,10.972c0.105,0.6-0.247,0.6-0.6,0.6h-1.023c-0.458,0-0.67,0-0.776-0.529l-1.94-9.702
			c-0.106-0.528-0.176-0.528-0.67-0.528h-1.87c-0.706,0-0.706,0-0.706,0.705v9.349c0,0.529-0.177,0.706-0.706,0.706h-0.988
			C-29.357,44.663-29.533,44.486-29.533,43.957z M-27.134,30.939c0,0.706,0,0.706,0.706,0.706h1.623c1.94,0,2.893-1.165,2.893-4.34
			v-0.74c0-3.176-0.953-4.34-2.893-4.34h-1.623c-0.706,0-0.706,0-0.706,0.706V30.939z"/>
		<path fill="#012445" d="M-14.294,44.663h-0.988c-0.529,0-0.706-0.177-0.706-0.706V20.674c0-0.529,0.176-0.706,0.706-0.706h0.988
			c0.529,0,0.706,0.177,0.706,0.706v10.936c0,0.142,0.176,0.212,0.282,0l5.927-11.112c0.282-0.529,0.317-0.529,0.776-0.529h1.199
			c0.282,0,0.635,0.106,0.317,0.741l-4.445,8.432c-0.211,0.388-0.176,0.529-0.07,0.847c1.27,3.916,4.622,13.935,4.622,13.935
			c0.176,0.564-0.177,0.741-0.459,0.741h-1.094c-0.459,0-0.6,0-0.776-0.529l-3.88-11.713c-0.036-0.141-0.176-0.141-0.247,0
			l-2.011,3.916c-0.141,0.282-0.141,0.529-0.141,0.776v6.844C-13.588,44.486-13.765,44.663-14.294,44.663z"/>
		<path fill="#012445" d="M-2.265,43.957V20.674c0-0.529,0.177-0.706,0.706-0.706h7.091c0.529,0,0.705,0.177,0.705,0.706v0.847
			c0,0.529-0.176,0.705-0.705,0.705H0.84c-0.706,0-0.706,0-0.706,0.706v6.879c0,0.706,0,0.706,0.706,0.706h4.691
			c0.529,0,0.705,0.176,0.705,0.705v0.847c0,0.529-0.176,0.706-0.705,0.706H0.84c-0.706,0-0.706,0-0.706,0.705v8.22
			c0,0.706,0,0.706,0.706,0.706h4.691c0.529,0,0.705,0.176,0.705,0.705v0.847c0,0.529-0.176,0.706-0.705,0.706h-7.091
			C-2.088,44.663-2.265,44.486-2.265,43.957z"/>
		<path fill="#012445" d="M9.235,19.968h9.172c0.529,0,0.706,0.177,0.706,0.706v0.847c0,0.529-0.177,0.705-0.706,0.705h-2.681
			c-0.706,0-0.706,0-0.706,0.706v21.025c0,0.529-0.176,0.706-0.705,0.706h-0.988c-0.529,0-0.705-0.177-0.705-0.706V22.932
			c0-0.706,0-0.706-0.67-0.706H9.235c-0.529,0-0.705-0.176-0.705-0.705v-0.847C8.53,20.145,8.706,19.968,9.235,19.968z"/>
		<path fill="#012445" d="M39.043,38.065c0.529,0,0.741,0.212,0.706,0.812c-0.035,4.34-2.399,5.927-5.292,5.927
			c-2.928,0-5.291-1.658-5.291-5.997V25.824c0-4.339,2.363-5.997,5.291-5.997c2.893,0,5.257,1.587,5.292,5.927
			c0.035,0.6-0.177,0.812-0.706,0.812h-0.987c-0.493,0-0.706-0.142-0.706-0.564c-0.105-2.894-1.058-3.916-2.893-3.916
			c-1.939,0-2.893,1.164-2.893,4.339v11.783c0,3.175,0.953,4.339,2.893,4.339c1.835,0,2.787-1.022,2.893-3.916
			c0-0.423,0.213-0.564,0.706-0.564H39.043z"/>
		<path fill="#012445" d="M48.075,44.804c-2.929,0-5.293-1.658-5.293-5.997V25.824c0-4.339,2.364-5.997,5.293-5.997
			c2.928,0,5.291,1.658,5.291,5.997v12.982C53.366,43.146,51.002,44.804,48.075,44.804z M48.075,22.085
			c-1.941,0-2.894,1.164-2.894,4.339v11.783c0,3.175,0.952,4.339,2.894,4.339c1.939,0,2.893-1.164,2.893-4.339V26.424
			C50.967,23.249,50.014,22.085,48.075,22.085z"/>
		<path fill="#012445" d="M65.818,44.663c-0.318,0-0.564-0.071-0.706-0.424l-5.538-15.734c-0.071-0.246-0.283-0.176-0.283,0v15.452
			c0,0.529-0.176,0.706-0.705,0.706h-0.988c-0.529,0-0.705-0.177-0.705-0.706V20.674c0-0.529,0.176-0.706,0.705-0.706h0.706
			c0.388,0,0.564,0.07,0.706,0.459l5.538,15.734c0.07,0.211,0.282,0.176,0.282,0V20.674c0-0.529,0.176-0.706,0.705-0.706h0.988
			c0.529,0,0.705,0.177,0.705,0.706v23.283c0,0.529-0.176,0.706-0.705,0.706H65.818z"/>
		<path fill="#012445" d="M80.635,38.065c0.529,0,0.74,0.212,0.705,0.812c-0.035,4.34-2.398,5.927-5.291,5.927
			c-2.928,0-5.293-1.658-5.293-5.997V25.824c0-4.339,2.365-5.997,5.293-5.997c2.893,0,5.256,1.587,5.291,5.927
			c0.035,0.6-0.176,0.812-0.705,0.812h-0.988c-0.494,0-0.705-0.142-0.705-0.564c-0.105-2.894-1.059-3.916-2.893-3.916
			c-1.941,0-2.893,1.164-2.893,4.339v11.783c0,3.175,0.951,4.339,2.893,4.339c1.834,0,2.787-1.022,2.893-3.916
			c0-0.423,0.211-0.564,0.705-0.564H80.635z"/>
		<path fill="#012445" d="M84.727,43.957V20.674c0-0.529,0.176-0.706,0.705-0.706h7.092c0.529,0,0.705,0.177,0.705,0.706v0.847
			c0,0.529-0.176,0.705-0.705,0.705H87.83c-0.705,0-0.705,0-0.705,0.706v6.879c0,0.706,0,0.706,0.705,0.706h4.693
			c0.529,0,0.705,0.176,0.705,0.705v0.847c0,0.529-0.176,0.706-0.705,0.706H87.83c-0.705,0-0.705,0-0.705,0.705v8.22
			c0,0.706,0,0.706,0.705,0.706h4.693c0.529,0,0.705,0.176,0.705,0.705v0.847c0,0.529-0.176,0.706-0.705,0.706h-7.092
			C84.902,44.663,84.727,44.486,84.727,43.957z"/>
		<path fill="#012445" d="M105.68,44.663c-0.316,0-0.564-0.071-0.705-0.424l-5.539-15.734c-0.07-0.246-0.281-0.176-0.281,0v15.452
			c0,0.529-0.176,0.706-0.705,0.706h-0.988c-0.529,0-0.705-0.177-0.705-0.706V20.674c0-0.529,0.176-0.706,0.705-0.706h0.705
			c0.389,0,0.564,0.07,0.705,0.459l5.539,15.734c0.07,0.211,0.283,0.176,0.283,0V20.674c0-0.529,0.176-0.706,0.705-0.706h0.988
			c0.529,0,0.705,0.177,0.705,0.706v23.283c0,0.529-0.176,0.706-0.705,0.706H105.68z"/>
		<path fill="#012445" d="M110.443,19.968h9.172c0.529,0,0.705,0.177,0.705,0.706v0.847c0,0.529-0.176,0.705-0.705,0.705h-2.682
			c-0.705,0-0.705,0-0.705,0.706v21.025c0,0.529-0.176,0.706-0.705,0.706h-0.988c-0.529,0-0.705-0.177-0.705-0.706V22.932
			c0-0.706,0-0.706-0.672-0.706h-2.715c-0.529,0-0.707-0.176-0.707-0.705v-0.847C109.736,20.145,109.914,19.968,110.443,19.968z"/>
		<path fill="#012445" d="M122.967,43.957V20.674c0-0.529,0.176-0.706,0.705-0.706h4.021c2.928,0,5.291,1.658,5.291,5.997v1.94
			c0,2.646-0.881,4.305-2.223,5.187l2.188,10.972c0.105,0.6-0.246,0.6-0.6,0.6h-1.023c-0.457,0-0.67,0-0.775-0.529l-1.939-9.702
			c-0.107-0.528-0.178-0.528-0.672-0.528h-1.869c-0.705,0-0.705,0-0.705,0.705v9.349c0,0.529-0.176,0.706-0.705,0.706h-0.988
			C123.143,44.663,122.967,44.486,122.967,43.957z M125.365,30.939c0,0.706,0,0.706,0.705,0.706h1.623
			c1.939,0,2.893-1.165,2.893-4.34v-0.74c0-3.176-0.953-4.34-2.893-4.34h-1.623c-0.705,0-0.705,0-0.705,0.706V30.939z"/>
		<path fill="#012445" d="M145.332,44.663c-0.459,0-0.672,0-0.777-0.529l-0.424-2.435c-0.141-0.705-0.141-0.705-0.775-0.705h-4.34
			c-0.705,0-0.67,0-0.811,0.705l-0.424,2.435c-0.105,0.529-0.316,0.529-0.775,0.529h-1.059c-0.354,0-0.705,0-0.6-0.6l4.41-23.461
			c0.105-0.528,0.211-0.635,0.775-0.635h1.27c0.564,0,0.672,0.106,0.777,0.635l4.41,23.461c0.105,0.6-0.248,0.6-0.602,0.6H145.332z
			 M138.875,38.03c-0.105,0.706-0.105,0.706,0.6,0.706h3.387c0.705,0,0.705,0,0.6-0.706l-2.152-12.523
			c-0.035-0.177-0.246-0.177-0.281,0L138.875,38.03z"/>
		<path fill="#012445" d="M148.611,19.968h9.172c0.529,0,0.707,0.177,0.707,0.706v0.847c0,0.529-0.178,0.705-0.707,0.705h-2.68
			c-0.707,0-0.707,0-0.707,0.706v21.025c0,0.529-0.176,0.706-0.705,0.706h-0.988c-0.529,0-0.705-0.177-0.705-0.706V22.932
			c0-0.706,0-0.706-0.67-0.706h-2.717c-0.529,0-0.705-0.176-0.705-0.705v-0.847C147.906,20.145,148.082,19.968,148.611,19.968z"/>
		<path fill="#012445" d="M162.828,44.663h-0.988c-0.529,0-0.705-0.177-0.705-0.706V20.674c0-0.529,0.176-0.706,0.705-0.706h0.988
			c0.529,0,0.705,0.177,0.705,0.706v23.283C163.533,44.486,163.357,44.663,162.828,44.663z"/>
		<path fill="#012445" d="M172.354,44.804c-2.93,0-5.293-1.658-5.293-5.997V25.824c0-4.339,2.363-5.997,5.293-5.997
			c2.928,0,5.291,1.658,5.291,5.997v12.982C177.645,43.146,175.281,44.804,172.354,44.804z M172.354,22.085
			c-1.941,0-2.895,1.164-2.895,4.339v11.783c0,3.175,0.953,4.339,2.895,4.339c1.939,0,2.893-1.164,2.893-4.339V26.424
			C175.246,23.249,174.293,22.085,172.354,22.085z"/>
		<path fill="#012445" d="M190.098,44.663c-0.318,0-0.564-0.071-0.707-0.424l-5.537-15.734c-0.072-0.246-0.283-0.176-0.283,0v15.452
			c0,0.529-0.176,0.706-0.705,0.706h-0.988c-0.529,0-0.705-0.177-0.705-0.706V20.674c0-0.529,0.176-0.706,0.705-0.706h0.705
			c0.389,0,0.564,0.07,0.707,0.459l5.537,15.734c0.072,0.211,0.283,0.176,0.283,0V20.674c0-0.529,0.176-0.706,0.705-0.706h0.988
			c0.529,0,0.705,0.177,0.705,0.706v23.283c0,0.529-0.176,0.706-0.705,0.706H190.098z"/>
	</g>
	<g>
		<path fill="#012445" d="M-55.708,84.173c-2.928,0-5.292-1.658-5.292-5.997V65.193c0-4.339,2.364-5.997,5.292-5.997
			s5.292,1.658,5.292,5.997v12.982C-50.417,82.515-52.78,84.173-55.708,84.173z M-55.708,61.454c-1.94,0-2.893,1.164-2.893,4.339
			v11.782c0,3.176,0.953,4.34,2.893,4.34c1.94,0,2.893-1.164,2.893-4.34V65.793C-52.815,62.618-53.768,61.454-55.708,61.454z"/>
		<path fill="#012445" d="M-46.889,83.326V60.043c0-0.529,0.176-0.706,0.706-0.706h7.091c0.529,0,0.706,0.177,0.706,0.706v0.847
			c0,0.529-0.176,0.705-0.706,0.705h-4.692c-0.706,0-0.706,0-0.706,0.706v6.879c0,0.706,0,0.706,0.706,0.706h3.598
			c0.529,0,0.706,0.176,0.706,0.705v0.847c0,0.529-0.176,0.706-0.706,0.706h-3.598c-0.706,0-0.706,0-0.706,0.705v10.478
			c0,0.529-0.176,0.706-0.706,0.706h-0.988C-46.713,84.032-46.889,83.855-46.889,83.326z"/>
		<path fill="#012445" d="M-25.053,83.326c0,0.529-0.177,0.706-0.706,0.706h-0.988c-0.529,0-0.706-0.177-0.706-0.706V60.043
			c0-0.529,0.176-0.706,0.706-0.706h4.021c2.928,0,5.292,1.658,5.292,5.997v4.022c0,4.339-2.364,5.997-5.292,5.997h-1.623
			c-0.706,0-0.706,0-0.706,0.705V83.326z M-25.053,72.39c0,0.706,0,0.706,0.706,0.706h1.623c1.94,0,2.893-1.165,2.893-4.339v-2.822
			c0-3.176-0.953-4.34-2.893-4.34h-1.623c-0.706,0-0.706,0-0.706,0.706V72.39z"/>
		<path fill="#012445" d="M-12.565,84.032h-0.988c-0.529,0-0.706-0.177-0.706-0.706V60.043c0-0.529,0.176-0.706,0.706-0.706h0.988
			c0.529,0,0.706,0.177,0.706,0.706v23.283C-11.86,83.855-12.037,84.032-12.565,84.032z"/>
		<path fill="#012445" d="M1.545,77.435c0.529,0,0.741,0.212,0.705,0.812c-0.035,4.339-2.398,5.927-5.291,5.927
			c-2.928,0-5.292-1.658-5.292-5.997V65.193c0-4.339,2.364-5.997,5.292-5.997c2.893,0,5.256,1.587,5.291,5.927
			c0.036,0.6-0.176,0.812-0.705,0.812H0.557c-0.493,0-0.705-0.142-0.705-0.564c-0.105-2.894-1.059-3.916-2.893-3.916
			c-1.94,0-2.893,1.164-2.893,4.339v11.782c0,3.176,0.952,4.34,2.893,4.34c1.834,0,2.787-1.023,2.893-3.916
			c0-0.424,0.212-0.564,0.705-0.564H1.545z"/>
		<path fill="#012445" d="M10.576,84.173c-2.929,0-5.292-1.658-5.292-5.997V65.193c0-4.339,2.363-5.997,5.292-5.997
			c2.928,0,5.292,1.658,5.292,5.997v12.982C15.868,82.515,13.503,84.173,10.576,84.173z M10.576,61.454
			c-1.94,0-2.894,1.164-2.894,4.339v11.782c0,3.176,0.953,4.34,2.894,4.34s2.893-1.164,2.893-4.34V65.793
			C13.468,62.618,12.516,61.454,10.576,61.454z"/>
		<path fill="#012445" d="M36.469,84.032c-0.459,0-0.671,0-0.777-0.529l-0.423-2.435c-0.142-0.706-0.142-0.706-0.776-0.706h-4.339
			c-0.706,0-0.671,0-0.812,0.706l-0.424,2.435c-0.105,0.529-0.316,0.529-0.775,0.529h-1.059c-0.353,0-0.705,0-0.6-0.6l4.41-23.461
			c0.105-0.528,0.211-0.635,0.775-0.635h1.271c0.564,0,0.67,0.106,0.776,0.635l4.409,23.461c0.106,0.6-0.247,0.6-0.6,0.6H36.469z
			 M30.012,77.399c-0.105,0.705-0.105,0.705,0.6,0.705h3.387c0.706,0,0.706,0,0.601-0.705l-2.152-12.523
			c-0.035-0.177-0.247-0.177-0.282,0L30.012,77.399z"/>
		<path fill="#012445" d="M41.336,83.326V60.043c0-0.529,0.176-0.706,0.705-0.706h7.092c0.529,0,0.705,0.177,0.705,0.706v0.847
			c0,0.529-0.176,0.705-0.705,0.705h-4.692c-0.706,0-0.706,0-0.706,0.706v6.879c0,0.706,0,0.706,0.706,0.706h3.599
			c0.529,0,0.705,0.176,0.705,0.705v0.847c0,0.529-0.176,0.706-0.705,0.706h-3.599c-0.706,0-0.706,0-0.706,0.705v10.478
			c0,0.529-0.176,0.706-0.705,0.706h-0.988C41.512,84.032,41.336,83.855,41.336,83.326z"/>
		<path fill="#012445" d="M53.012,83.326V60.043c0-0.529,0.177-0.706,0.706-0.706h7.091c0.529,0,0.705,0.177,0.705,0.706v0.847
			c0,0.529-0.176,0.705-0.705,0.705h-4.691c-0.706,0-0.706,0-0.706,0.706v6.879c0,0.706,0,0.706,0.706,0.706h3.598
			c0.529,0,0.705,0.176,0.705,0.705v0.847c0,0.529-0.176,0.706-0.705,0.706h-3.598c-0.706,0-0.706,0-0.706,0.705v10.478
			c0,0.529-0.177,0.706-0.706,0.706h-0.987C53.189,84.032,53.012,83.855,53.012,83.326z"/>
		<path fill="#012445" d="M66.383,84.032h-0.988c-0.529,0-0.705-0.177-0.705-0.706V60.043c0-0.529,0.176-0.706,0.705-0.706h0.988
			c0.529,0,0.705,0.177,0.705,0.706v23.283C67.088,83.855,66.912,84.032,66.383,84.032z"/>
		<path fill="#012445" d="M70.969,83.326V60.043c0-0.529,0.176-0.706,0.705-0.706h0.988c0.529,0,0.705,0.177,0.705,0.706v21.025
			c0,0.706,0,0.706,0.705,0.706h5.045c0.529,0,0.705,0.176,0.705,0.705v0.847c0,0.529-0.176,0.706-0.705,0.706h-7.443
			C71.145,84.032,70.969,83.855,70.969,83.326z"/>
		<path fill="#012445" d="M84.162,84.032h-0.988c-0.529,0-0.705-0.177-0.705-0.706V60.043c0-0.529,0.176-0.706,0.705-0.706h0.988
			c0.529,0,0.705,0.177,0.705,0.706v23.283C84.867,83.855,84.691,84.032,84.162,84.032z"/>
		<path fill="#012445" d="M98.061,84.032c-0.459,0-0.67,0-0.775-0.529l-0.424-2.435c-0.141-0.706-0.141-0.706-0.775-0.706h-4.34
			c-0.705,0-0.67,0-0.812,0.706l-0.422,2.435c-0.105,0.529-0.318,0.529-0.777,0.529h-1.059c-0.352,0-0.705,0-0.6-0.6l4.41-23.461
			c0.105-0.528,0.213-0.635,0.777-0.635h1.27c0.564,0,0.67,0.106,0.775,0.635l4.41,23.461c0.105,0.6-0.246,0.6-0.6,0.6H98.061z
			 M91.605,77.399c-0.107,0.705-0.107,0.705,0.6,0.705h3.387c0.705,0,0.705,0,0.6-0.705l-2.152-12.523
			c-0.035-0.177-0.246-0.177-0.283,0L91.605,77.399z"/>
		<path fill="#012445" d="M101.34,59.337h9.174c0.529,0,0.705,0.177,0.705,0.706v0.847c0,0.529-0.176,0.705-0.705,0.705h-2.682
			c-0.705,0-0.705,0-0.705,0.706v21.025c0,0.529-0.178,0.706-0.707,0.706h-0.986c-0.529,0-0.707-0.177-0.707-0.706V62.301
			c0-0.706,0-0.706-0.67-0.706h-2.717c-0.529,0-0.705-0.176-0.705-0.705v-0.847C100.635,59.514,100.811,59.337,101.34,59.337z"/>
		<path fill="#012445" d="M113.863,83.326V60.043c0-0.529,0.178-0.706,0.707-0.706h7.09c0.529,0,0.705,0.177,0.705,0.706v0.847
			c0,0.529-0.176,0.705-0.705,0.705h-4.691c-0.705,0-0.705,0-0.705,0.706v6.879c0,0.706,0,0.706,0.705,0.706h4.691
			c0.529,0,0.705,0.176,0.705,0.705v0.847c0,0.529-0.176,0.706-0.705,0.706h-4.691c-0.705,0-0.705,0-0.705,0.705v8.22
			c0,0.706,0,0.706,0.705,0.706h4.691c0.529,0,0.705,0.176,0.705,0.705v0.847c0,0.529-0.176,0.706-0.705,0.706h-7.09
			C114.041,84.032,113.863,83.855,113.863,83.326z"/>
		<path fill="#012445" d="M125.469,77.964h1.094c0.459,0,0.707,0.176,0.707,0.812c0.105,1.587,1.34,3.14,3.244,3.14
			c2.4,0,3.529-2.152,3.316-3.986c-0.529-4.692-8.113-7.338-8.432-13.159c-0.176-3.104,1.977-5.573,5.045-5.573
			c2.398,0,4.799,1.834,4.939,4.974c-0.035,0.424-0.248,0.494-0.74,0.494h-0.777c-0.459,0-0.67-0.07-0.705-0.494
			c-0.141-1.552-1.164-2.716-2.717-2.716c-1.588,0-2.998,1.305-2.717,3.527c0.529,4.304,7.727,7.021,8.396,12.807
			c0.354,3.174-1.975,6.385-5.609,6.385c-3.033,0-5.432-2.363-5.645-5.256C124.834,78.423,124.834,77.964,125.469,77.964z"/>
	</g>
</g>
</svg>
