<?xml version="1.0" encoding="utf-8"?>
<!-- Generator: Adobe Illustrator 16.0.0, SVG Export Plug-In . SVG Version: 6.00 Build 0)  -->
<!DOCTYPE svg PUBLIC "-//W3C//DTD SVG 1.1//EN" "http://www.w3.org/Graphics/SVG/1.1/DTD/svg11.dtd">
<svg version="1.1" id="Layer_9" xmlns="http://www.w3.org/2000/svg" xmlns:xlink="http://www.w3.org/1999/xlink" x="0px" y="0px"
	 width="130px" height="130px" viewBox="0 0 130 130" enable-background="new 0 0 130 130" xml:space="preserve">
<g>
	<path fill="#FFFFFF" d="M65,2.669L65,2.669c-7.271,0-14.486,1.271-21.318,3.759c-6.834,2.487-13.178,6.15-18.749,10.824
		c-5.569,4.673-10.279,10.286-13.914,16.583c-3.636,6.296-6.141,13.182-7.404,20.341c-1.262,7.161-1.262,14.487,0,21.647
		c1.263,7.16,3.768,14.045,7.404,20.342c3.635,6.297,8.345,11.909,13.914,16.583c5.57,4.674,11.915,8.337,18.749,10.823
		c6.832,2.488,14.047,3.76,21.318,3.76c7.271,0,14.486-1.271,21.318-3.76c6.832-2.486,13.178-6.149,18.746-10.823
		c5.57-4.674,10.279-10.286,13.916-16.583c3.635-6.297,6.141-13.182,7.402-20.342c1.264-7.16,1.264-14.486,0-21.647
		c-1.262-7.159-3.768-14.045-7.402-20.341c-3.637-6.297-8.346-11.91-13.916-16.583C99.496,12.578,93.15,8.915,86.318,6.428
		S72.271,2.669,65,2.669"/>
	<path fill="none" stroke="#7F47DD" stroke-width="2" stroke-linecap="round" stroke-linejoin="round" stroke-miterlimit="10" d="
		M65,2.669L65,2.669c-7.271,0-14.486,1.271-21.318,3.759c-6.834,2.487-13.178,6.15-18.749,10.824
		c-5.569,4.673-10.279,10.286-13.914,16.583c-3.636,6.296-6.141,13.182-7.404,20.341c-1.262,7.161-1.262,14.487,0,21.647
		c1.263,7.16,3.768,14.045,7.404,20.342c3.635,6.297,8.345,11.909,13.914,16.583c5.57,4.674,11.915,8.337,18.749,10.823
		c6.832,2.488,14.047,3.76,21.318,3.76c7.271,0,14.486-1.271,21.318-3.76c6.832-2.486,13.178-6.149,18.746-10.823
		c5.57-4.674,10.279-10.286,13.916-16.583c3.635-6.297,6.141-13.182,7.402-20.342c1.264-7.16,1.264-14.486,0-21.647
		c-1.262-7.159-3.768-14.045-7.402-20.341c-3.637-6.297-8.346-11.91-13.916-16.583C99.496,12.578,93.15,8.915,86.318,6.428
		S72.271,2.669,65,2.669z"/>
	<path fill="#7F47DD" d="M65,111.748L65,111.748c-25.818,0-46.749-20.931-46.749-46.748v-0.001c0-25.816,20.93-46.748,46.749-46.748
		c25.818,0,46.748,20.932,46.748,46.748V65C111.748,90.817,90.818,111.748,65,111.748"/>
	<rect x="37.331" y="79.21" fill="#FFFFFF" width="14.736" height="14.324"/>
	<rect x="56.319" y="68.61" fill="#FFFFFF" width="14.736" height="24.924"/>
	<rect x="75.307" y="58.869" fill="#FFFFFF" width="14.738" height="34.665"/>
	<polygon fill="#FFFFFF" points="75.146,34.804 80.217,39.876 64.773,55.319 56.872,47.419 53.435,50.857 51.808,52.483 
		37.331,66.962 37.331,77.091 56.872,57.548 64.773,65.448 67.064,63.157 69.836,60.384 85.281,44.939 90.33,49.988 90.33,34.804 	
		"/>
</g>
</svg>
