<?xml version="1.0" encoding="utf-8"?>
<!-- Generator: Adobe Illustrator 16.0.0, SVG Export Plug-In . SVG Version: 6.00 Build 0)  -->
<!DOCTYPE svg PUBLIC "-//W3C//DTD SVG 1.1//EN" "http://www.w3.org/Graphics/SVG/1.1/DTD/svg11.dtd">
<svg version="1.1" id="Layer_9" xmlns="http://www.w3.org/2000/svg" xmlns:xlink="http://www.w3.org/1999/xlink" x="0px" y="0px"
	 width="130px" height="130px" viewBox="0 0 130 130" enable-background="new 0 0 130 130" xml:space="preserve">
<g>
	<path fill="#FFFFFF" d="M65,2.669L65,2.669c-7.271,0-14.486,1.271-21.318,3.759c-6.834,2.487-13.178,6.15-18.748,10.824
		c-5.57,4.673-10.28,10.286-13.915,16.583c-3.636,6.296-6.141,13.182-7.404,20.341c-1.262,7.161-1.262,14.487,0,21.647
		c1.263,7.16,3.768,14.045,7.404,20.342c3.635,6.297,8.345,11.909,13.915,16.583c5.569,4.674,11.914,8.337,18.748,10.823
		c6.832,2.488,14.047,3.76,21.318,3.76c7.271,0,14.486-1.271,21.318-3.76c6.832-2.486,13.178-6.149,18.746-10.823
		c5.57-4.674,10.279-10.286,13.916-16.583c3.635-6.297,6.141-13.182,7.402-20.342c1.264-7.16,1.264-14.486,0-21.647
		c-1.262-7.159-3.768-14.045-7.402-20.341c-3.637-6.297-8.346-11.91-13.916-16.583C99.496,12.578,93.15,8.915,86.318,6.428
		S72.271,2.669,65,2.669"/>
	<path fill="none" stroke="#00ACF2" stroke-width="2" stroke-linecap="round" stroke-linejoin="round" stroke-miterlimit="10" d="
		M65,2.669L65,2.669c-7.271,0-14.486,1.271-21.318,3.759c-6.834,2.487-13.178,6.15-18.748,10.824
		c-5.57,4.673-10.28,10.286-13.915,16.583c-3.636,6.296-6.141,13.182-7.404,20.341c-1.262,7.161-1.262,14.487,0,21.647
		c1.263,7.16,3.768,14.045,7.404,20.342c3.635,6.297,8.345,11.909,13.915,16.583c5.569,4.674,11.914,8.337,18.748,10.823
		c6.832,2.488,14.047,3.76,21.318,3.76c7.271,0,14.486-1.271,21.318-3.76c6.832-2.486,13.178-6.149,18.746-10.823
		c5.57-4.674,10.279-10.286,13.916-16.583c3.635-6.297,6.141-13.182,7.402-20.342c1.264-7.16,1.264-14.486,0-21.647
		c-1.262-7.159-3.768-14.045-7.402-20.341c-3.637-6.297-8.346-11.91-13.916-16.583C99.496,12.578,93.15,8.915,86.318,6.428
		S72.271,2.669,65,2.669z"/>
	<path fill="#00ACF2" d="M65,111.748L65,111.748c-25.818,0-46.749-20.931-46.749-46.748v-0.001c0-25.816,20.93-46.748,46.749-46.748
		c25.818,0,46.748,20.932,46.748,46.748V65C111.748,90.817,90.818,111.748,65,111.748"/>
	<path fill="#FFFFFF" d="M38.701,89.155h-3.629c-0.966,0-1.749-0.782-1.749-1.748V70.093c0-0.966,0.783-1.749,1.749-1.749h3.629
		c0.966,0,1.749,0.783,1.749,1.749v17.314C40.45,88.373,39.667,89.155,38.701,89.155"/>
	<path fill="#FFFFFF" d="M43.016,72.05c-0.31,0,3.479-1.087,7.018-2.083c3.784-1.067,7.79-1.06,11.57,0.022l18.277,5.222
		c2.072,0.592,3.154,2.867,2.305,4.849c-0.582,1.358-1.939,2.219-3.418,2.164l-13.229-0.48l3.832,2.076
		c1.957,1.061,4.199,1.479,6.406,1.196l7.551-0.964c1.609-0.205,3.137-0.818,4.441-1.783c2.604-1.924,6.236-1.59,8.445,0.777
		l0.115,0.123l-9.773,7.037c-2.945,2.121-6.354,3.51-9.941,4.051c-6.289,0.949-12.718-0.012-18.453-2.759l-11.441-5.478h-3.705
		V72.05z"/>
	<path fill="#FFFFFF" d="M61.604,67.708l17.351,4.957c5.746-4.594,22.889-19.931,12.529-31.691
		c-10.078-11.438-19.893-0.246-20.752,0.779c-0.859-1.025-10.674-12.217-20.75-0.779c-7.571,8.594-0.455,19.098,6.168,25.924
		C57.987,66.931,59.821,67.198,61.604,67.708"/>
</g>
</svg>
