<?xml version="1.0" encoding="utf-8"?>
<!-- Generator: Adobe Illustrator 16.0.0, SVG Export Plug-In . SVG Version: 6.00 Build 0)  -->
<!DOCTYPE svg PUBLIC "-//W3C//DTD SVG 1.1//EN" "http://www.w3.org/Graphics/SVG/1.1/DTD/svg11.dtd">
<svg version="1.1" id="Layer_9" xmlns="http://www.w3.org/2000/svg" xmlns:xlink="http://www.w3.org/1999/xlink" x="0px" y="0px"
	 width="130px" height="130px" viewBox="0 0 130 130" enable-background="new 0 0 130 130" xml:space="preserve">
<g>
	<path fill="#FFFFFF" d="M64.994,1.501C30.104,1.506,1.549,29.986,1.508,64.833c-0.047,34.986,28.27,63.652,62.879,63.666
		c35.318,0.014,63.832-28.088,64.102-62.669C128.758,31.532,101.51,1.843,64.994,1.501"/>
	<path fill="#EA7825" d="M62.912,39.583c-0.037,1.904,0.715,3.213,2.377,3.703c1.885,0.559,3.139-0.458,4.184-1.822
		c0.898-1.165,1.303-2.561,1.531-4.001c0.371-2.375-0.256-3.393-2.527-4.088c-2.549-0.789-3.719-0.249-4.725,2.242
		C63.283,36.782,62.908,37.985,62.912,39.583 M68.85,52.536c0.252,1.312,0.412,2.177,0.586,3.043 M51.174,117.62
		c-0.234,0.035-0.299,0.066-0.359,0.061c-4.562-1.002-4.562-1.002-4.562-5.645c0-2.396-0.047-4.797,0.02-7.195
		c0.023-1.031-0.217-1.465-1.35-1.428c-2.523,0.08-5.053,0.08-7.58,0c-1.123-0.037-1.381,0.395-1.346,1.424
		c0.068,2.008,0.02,4.02,0.02,6.416c-7.012-4.312-12.488-9.746-16.809-16.352c-7.051-10.793-10.078-22.65-8.779-35.472
		C13.271,31.27,36.109,11.05,62.697,9.966c27.301-1.115,50.926,17.582,56.164,44.564c4.984,25.648-9.301,48.791-27.193,57.879
		v-2.098c0-9.791-0.029-19.582,0.035-29.373c0.006-1.422-0.367-1.875-1.793-1.791c-2.082,0.123-4.178,0.135-6.252,0
		c-1.66-0.109-2.229,0.305-2.211,2.119c0.094,11.307,0.059,22.609,0.025,33.92c0,0.676,0.461,1.658-0.518,1.996
		c-1.305,0.447-2.625,1.061-4.018,0.938c-0.711-0.057-0.352-0.947-0.354-1.441c-0.021-8.65-0.072-17.303,0.029-25.961
		c0.021-1.895-0.354-2.689-2.418-2.484c-2.066,0.201-4.174,0.133-6.246,0.012c-1.393-0.076-1.648,0.449-1.641,1.721
		c0.053,9.221-0.051,18.441,0.086,27.66c0.029,2.025-0.834,2.104-2.322,1.996c-1.389-0.1-2.805,0.416-2.732-2.066
		c0.193-6.818,0.035-13.643,0.096-20.465c0.012-1.264-0.223-1.777-1.619-1.707c-2.396,0.123-4.807,0.102-7.201,0.008
		c-1.182-0.049-1.479,0.311-1.469,1.475c0.061,6.254,0.027,12.506,0.027,18.76V117.62z"/>
	<path fill="#FFFFFF" d="M68.85,51.613c-1.973,3.108-3.691,5.883-5.488,8.604c-0.637,0.956,0.049,1.145,0.633,1.483
		c3.605,2.076,7.189,4.192,10.822,6.214c1.557,0.861,2.293,1.998,2.156,3.816c-0.229,3.082-0.285,6.172-0.492,9.252
		c-0.162,2.449-1.436,3.629-3.664,3.74c-1.137,0.061-1.518-0.26-1.531-1.459c-0.023-3.279-0.258-6.557-0.303-9.832
		c-0.016-1.141-0.295-1.592-1.512-1.811c-3.398-0.617-6.834-1.096-10.129-2.266c-5.074-1.803-7.285-6.361-5.41-11.497
		c0.699-1.919,1.516-3.804,1.939-5.922c-2.867,2.425-5.74,4.852-8.771,7.42c-0.518-1.931-0.463-3.436,0.877-4.842
		c3.002-3.152,5.93-6.373,8.857-9.594c0.902-0.996,1.949-1.544,3.303-1.534c2.709,0.018,5.422-0.054,8.131,0.021
		c3.031,0.084,3.764,0.819,4.098,3.778c0.092,0.811,0.207,1.625,0.324,2.437c0.471,3.262,0.471,3.262,3.834,3.181
		c0.947-0.02,1.895-0.052,2.84-0.042c1.029,0.008,1.811,0.504,2.346,1.359c0.518,0.818,0.654,1.468-0.656,1.694
		c-2.609,0.441-5.193,1.018-7.797,1.479c-2.119,0.373-3.404-0.543-3.82-2.641C69.748,56.21,69.596,55.491,68.85,51.613"/>
	<path fill="#FFFFFF" d="M55.324,66.08c2.008,1.616,3.477,2.95,5.518,3.522c0.912,0.264,0.891,0.814,0.963,1.549
		c0.672,6.715-2.076,12.539-4.758,18.367c-0.846,1.85-2.984,2.719-4.955,2.367c-1.203-0.215-0.523-0.934-0.367-1.391
		c0.99-2.918,1.908-5.873,3.109-8.703c1.084-2.553,1.133-5.08,0.736-7.738c-0.346-2.281-0.508-4.59-0.799-7.308"/>
</g>
</svg>
