<?xml version="1.0" encoding="utf-8"?>
<!-- Generator: Adobe Illustrator 16.0.0, SVG Export Plug-In . SVG Version: 6.00 Build 0)  -->
<!DOCTYPE svg PUBLIC "-//W3C//DTD SVG 1.1//EN" "http://www.w3.org/Graphics/SVG/1.1/DTD/svg11.dtd">
<svg version="1.1" id="Layer_2" xmlns="http://www.w3.org/2000/svg" xmlns:xlink="http://www.w3.org/1999/xlink" x="0px" y="0px"
	 width="270px" height="100px" viewBox="0 0 270 100" enable-background="new 0 0 270 100" xml:space="preserve">
<g>
	<path fill="#012445" d="M19.449,40.551h-5.08c-0.529,0-0.705-0.176-0.705-0.706V16.562c0-0.529,0.176-0.706,0.705-0.706h5.08
		c2.929,0,5.292,1.658,5.292,5.998v12.7C24.741,38.893,22.378,40.551,19.449,40.551z M16.062,37.587c0,0.706,0,0.706,0.706,0.706
		h2.681c1.94,0,2.894-1.164,2.894-4.339v-11.5c0-3.175-0.953-4.339-2.894-4.339h-2.681c-0.706,0-0.706,0-0.706,0.706V37.587z"/>
	<path fill="#012445" d="M29.962,40.551h-0.988c-0.528,0-0.705-0.176-0.705-0.706V16.562c0-0.529,0.177-0.706,0.705-0.706h0.988
		c0.529,0,0.705,0.176,0.705,0.706v23.284C30.667,40.375,30.491,40.551,29.962,40.551z"/>
	<path fill="#012445" d="M41.673,28.662h-1.411c-0.529,0-0.705-0.177-0.705-0.706V27.11c0-0.529,0.176-0.706,0.705-0.706h3.811
		c0.529,0,0.705,0.176,0.705,0.706v7.584c0,4.339-2.363,5.998-5.292,5.998c-2.928,0-5.291-1.658-5.291-5.998V21.712
		c0-4.339,2.363-5.997,5.291-5.997c2.894,0,5.222,1.623,5.292,5.927c0.035,0.6-0.176,0.812-0.705,0.812h-0.988
		c-0.494,0-0.67-0.141-0.705-0.564c-0.106-2.857-1.059-3.916-2.894-3.916c-1.94,0-2.893,1.164-2.893,4.339v11.783
		c0,3.175,0.952,4.339,2.893,4.339s2.894-1.164,2.894-4.339v-4.727C42.379,28.662,42.379,28.662,41.673,28.662z"/>
	<path fill="#012445" d="M50.034,40.551h-0.988c-0.528,0-0.705-0.176-0.705-0.706V16.562c0-0.529,0.177-0.706,0.705-0.706h0.988
		c0.529,0,0.705,0.176,0.705,0.706v23.284C50.739,40.375,50.563,40.551,50.034,40.551z"/>
	<path fill="#012445" d="M54.09,15.856h9.172c0.529,0,0.706,0.176,0.706,0.706v0.847c0,0.529-0.177,0.706-0.706,0.706h-2.681
		c-0.706,0-0.706,0-0.706,0.706v21.026c0,0.529-0.176,0.706-0.705,0.706h-0.988c-0.528,0-0.705-0.176-0.705-0.706V18.819
		c0-0.706,0-0.706-0.67-0.706H54.09c-0.529,0-0.705-0.176-0.705-0.706v-0.847C53.385,16.032,53.561,15.856,54.09,15.856z"/>
	<path fill="#012445" d="M68.307,40.551h-0.988c-0.529,0-0.705-0.176-0.705-0.706V16.562c0-0.529,0.176-0.706,0.705-0.706h0.988
		c0.529,0,0.705,0.176,0.705,0.706v23.284C69.012,40.375,68.836,40.551,68.307,40.551z"/>
	<path fill="#012445" d="M82.206,40.551c-0.459,0-0.671,0-0.776-0.529l-0.423-2.434c-0.142-0.706-0.142-0.706-0.776-0.706h-4.34
		c-0.705,0-0.67,0-0.811,0.706l-0.424,2.434c-0.105,0.529-0.317,0.529-0.776,0.529h-1.058c-0.354,0-0.706,0-0.6-0.6l4.409-23.46
		c0.106-0.529,0.212-0.635,0.776-0.635h1.27c0.564,0,0.671,0.106,0.776,0.635l4.41,23.46c0.105,0.6-0.247,0.6-0.6,0.6H82.206z
		 M75.75,33.918c-0.105,0.706-0.105,0.706,0.6,0.706h3.387c0.706,0,0.706,0,0.6-0.706l-2.151-12.524
		c-0.036-0.176-0.247-0.176-0.282,0L75.75,33.918z"/>
	<path fill="#012445" d="M87.073,39.845V16.562c0-0.529,0.177-0.706,0.705-0.706h0.988c0.529,0,0.705,0.176,0.705,0.706v21.026
		c0,0.706,0,0.706,0.706,0.706h5.045c0.529,0,0.705,0.176,0.705,0.706v0.847c0,0.529-0.176,0.706-0.705,0.706h-7.444
		C87.25,40.551,87.073,40.375,87.073,39.845z"/>
	<path fill="#012445" d="M106.334,39.845V16.562c0-0.529,0.176-0.706,0.705-0.706h7.092c0.528,0,0.705,0.176,0.705,0.706v0.847
		c0,0.529-0.177,0.706-0.705,0.706h-4.692c-0.706,0-0.706,0-0.706,0.706v6.879c0,0.706,0,0.706,0.706,0.706h3.599
		c0.529,0,0.705,0.176,0.705,0.706v0.847c0,0.529-0.176,0.706-0.705,0.706h-3.599c-0.706,0-0.706,0-0.706,0.706v10.478
		c0,0.529-0.176,0.706-0.705,0.706h-0.988C106.51,40.551,106.334,40.375,106.334,39.845z"/>
	<path fill="#012445" d="M119.704,40.551h-0.988c-0.528,0-0.705-0.176-0.705-0.706V16.562c0-0.529,0.177-0.706,0.705-0.706h0.988
		c0.529,0,0.705,0.176,0.705,0.706v23.284C120.409,40.375,120.233,40.551,119.704,40.551z"/>
	<path fill="#012445" d="M133.215,40.551c-0.318,0-0.564-0.07-0.706-0.423l-5.539-15.734c-0.07-0.247-0.282-0.177-0.282,0v15.452
		c0,0.529-0.176,0.706-0.705,0.706h-0.988c-0.529,0-0.705-0.176-0.705-0.706V16.562c0-0.529,0.176-0.706,0.705-0.706h0.706
		c0.388,0,0.564,0.071,0.705,0.458l5.539,15.734c0.07,0.211,0.282,0.176,0.282,0V16.562c0-0.529,0.177-0.706,0.705-0.706h0.988
		c0.529,0,0.705,0.176,0.705,0.706v23.284c0,0.529-0.176,0.706-0.705,0.706H133.215z"/>
	<path fill="#012445" d="M147.819,40.551c-0.459,0-0.671,0-0.776-0.529l-0.423-2.434c-0.142-0.706-0.142-0.706-0.776-0.706h-4.34
		c-0.705,0-0.67,0-0.811,0.706l-0.424,2.434c-0.105,0.529-0.317,0.529-0.776,0.529h-1.058c-0.354,0-0.706,0-0.6-0.6l4.409-23.46
		c0.106-0.529,0.212-0.635,0.776-0.635h1.27c0.564,0,0.671,0.106,0.776,0.635l4.41,23.46c0.105,0.6-0.247,0.6-0.6,0.6H147.819z
		 M141.363,33.918c-0.105,0.706-0.105,0.706,0.6,0.706h3.387c0.706,0,0.706,0,0.6-0.706l-2.151-12.524
		c-0.036-0.176-0.247-0.176-0.282,0L141.363,33.918z"/>
	<path fill="#012445" d="M161.613,40.551c-0.318,0-0.564-0.07-0.706-0.423l-5.539-15.734c-0.07-0.247-0.282-0.177-0.282,0v15.452
		c0,0.529-0.176,0.706-0.705,0.706h-0.988c-0.529,0-0.705-0.176-0.705-0.706V16.562c0-0.529,0.176-0.706,0.705-0.706h0.706
		c0.388,0,0.564,0.071,0.705,0.458l5.539,15.734c0.07,0.211,0.282,0.176,0.282,0V16.562c0-0.529,0.177-0.706,0.705-0.706h0.988
		c0.529,0,0.705,0.176,0.705,0.706v23.284c0,0.529-0.176,0.706-0.705,0.706H161.613z"/>
	<path fill="#012445" d="M176.43,33.954c0.529,0,0.74,0.212,0.705,0.812c-0.035,4.339-2.398,5.927-5.292,5.927
		c-2.928,0-5.291-1.658-5.291-5.998V21.712c0-4.339,2.363-5.997,5.291-5.997c2.894,0,5.257,1.587,5.292,5.927
		c0.035,0.6-0.176,0.812-0.705,0.812h-0.988c-0.494,0-0.705-0.141-0.705-0.564c-0.106-2.893-1.059-3.916-2.894-3.916
		c-1.94,0-2.893,1.164-2.893,4.339v11.783c0,3.175,0.952,4.339,2.893,4.339c1.835,0,2.787-1.023,2.894-3.916
		c0-0.423,0.211-0.564,0.705-0.564H176.43z"/>
	<path fill="#012445" d="M180.521,39.845V16.562c0-0.529,0.177-0.706,0.705-0.706h7.091c0.529,0,0.706,0.176,0.706,0.706v0.847
		c0,0.529-0.177,0.706-0.706,0.706h-4.691c-0.706,0-0.706,0-0.706,0.706v6.879c0,0.706,0,0.706,0.706,0.706h4.691
		c0.529,0,0.706,0.176,0.706,0.706v0.847c0,0.529-0.177,0.706-0.706,0.706h-4.691c-0.706,0-0.706,0-0.706,0.706v8.22
		c0,0.706,0,0.706,0.706,0.706h4.691c0.529,0,0.706,0.176,0.706,0.706v0.847c0,0.529-0.177,0.706-0.706,0.706h-7.091
		C180.697,40.551,180.521,40.375,180.521,39.845z"/>
	<path fill="#012445" d="M205.425,40.692c-2.928,0-5.292-1.658-5.292-5.998V16.562c0-0.529,0.177-0.706,0.706-0.706h0.987
		c0.529,0,0.706,0.176,0.706,0.706v17.533c0,3.175,0.952,4.339,2.893,4.339s2.893-1.164,2.893-4.339V16.562
		c0-0.529,0.177-0.706,0.706-0.706h0.987c0.529,0,0.706,0.176,0.706,0.706v18.133C210.717,39.034,208.353,40.692,205.425,40.692z"/>
	<path fill="#012445" d="M213.996,34.483h1.094c0.459,0,0.706,0.176,0.706,0.812c0.105,1.587,1.341,3.14,3.245,3.14
		c2.399,0,3.528-2.152,3.316-3.986c-0.529-4.692-8.114-7.338-8.432-13.159c-0.176-3.104,1.976-5.574,5.045-5.574
		c2.398,0,4.798,1.834,4.939,4.974c-0.036,0.423-0.247,0.494-0.741,0.494h-0.776c-0.459,0-0.67-0.071-0.705-0.494
		c-0.142-1.552-1.164-2.716-2.717-2.716c-1.588,0-2.999,1.305-2.717,3.528c0.529,4.304,7.727,7.021,8.396,12.806
		c0.353,3.175-1.976,6.385-5.609,6.385c-3.033,0-5.433-2.364-5.645-5.256C213.361,34.941,213.361,34.483,213.996,34.483z"/>
	<path fill="#012445" d="M227.685,39.845V16.562c0-0.529,0.177-0.706,0.705-0.706h7.091c0.529,0,0.706,0.176,0.706,0.706v0.847
		c0,0.529-0.177,0.706-0.706,0.706h-4.691c-0.706,0-0.706,0-0.706,0.706v6.879c0,0.706,0,0.706,0.706,0.706h4.691
		c0.529,0,0.706,0.176,0.706,0.706v0.847c0,0.529-0.177,0.706-0.706,0.706h-4.691c-0.706,0-0.706,0-0.706,0.706v8.22
		c0,0.706,0,0.706,0.706,0.706h4.691c0.529,0,0.706,0.176,0.706,0.706v0.847c0,0.529-0.177,0.706-0.706,0.706h-7.091
		C227.861,40.551,227.685,40.375,227.685,39.845z"/>
	<path fill="#012445" d="M239.713,39.845V16.562c0-0.529,0.176-0.706,0.705-0.706h4.022c2.928,0,5.291,1.658,5.291,5.998v1.94
		c0,2.646-0.882,4.304-2.222,5.186l2.187,10.972c0.106,0.6-0.247,0.6-0.6,0.6h-1.022c-0.459,0-0.671,0-0.776-0.529l-1.94-9.701
		c-0.105-0.529-0.177-0.529-0.67-0.529h-1.87c-0.706,0-0.706,0-0.706,0.706v9.349c0,0.529-0.176,0.706-0.705,0.706h-0.988
		C239.889,40.551,239.713,40.375,239.713,39.845z M242.111,26.828c0,0.706,0,0.706,0.706,0.706h1.623
		c1.94,0,2.893-1.164,2.893-4.339v-0.741c0-3.175-0.952-4.339-2.893-4.339h-1.623c-0.706,0-0.706,0-0.706,0.706V26.828z"/>
	<path fill="#012445" d="M252.835,34.483h1.094c0.459,0,0.706,0.176,0.706,0.812c0.105,1.587,1.34,3.14,3.245,3.14
		c2.399,0,3.528-2.152,3.316-3.986c-0.529-4.692-8.114-7.338-8.432-13.159c-0.177-3.104,1.976-5.574,5.045-5.574
		c2.399,0,4.798,1.834,4.938,4.974c-0.035,0.423-0.246,0.494-0.74,0.494h-0.776c-0.458,0-0.67-0.071-0.705-0.494
		c-0.142-1.552-1.165-2.716-2.717-2.716c-1.588,0-2.999,1.305-2.717,3.528c0.529,4.304,7.727,7.021,8.396,12.806
		c0.353,3.175-1.976,6.385-5.609,6.385c-3.034,0-5.433-2.364-5.645-5.256C252.2,34.941,252.2,34.483,252.835,34.483z"/>
	<path fill="#012445" d="M267.018,37.799c1.375,0,2.504,2.082-0.247,5.045c-0.106,0.106-0.177,0.177-0.353,0.071l-0.354-0.247
		c-0.141-0.106-0.176-0.211-0.07-0.353c1.553-2.152-0.353-1.623-0.353-3.14C265.642,38.469,266.241,37.799,267.018,37.799z"/>
</g>
<g>
	<path fill="#012445" d="M139.074,79.92h-0.988c-0.529,0-0.705-0.176-0.705-0.705V55.931c0-0.529,0.176-0.706,0.705-0.706h0.988
		c0.529,0,0.705,0.177,0.705,0.706v10.937c0,0.141,0.177,0.211,0.282,0l5.927-11.113c0.282-0.529,0.318-0.529,0.776-0.529h1.199
		c0.282,0,0.636,0.106,0.317,0.741l-4.444,8.432c-0.212,0.388-0.177,0.529-0.071,0.847c1.271,3.916,4.622,13.936,4.622,13.936
		c0.177,0.564-0.177,0.74-0.459,0.74h-1.094c-0.458,0-0.6,0-0.775-0.529l-3.881-11.713c-0.035-0.141-0.177-0.141-0.247,0
		l-2.011,3.916c-0.142,0.283-0.142,0.529-0.142,0.776v6.845C139.779,79.744,139.604,79.92,139.074,79.92z"/>
	<path fill="#012445" d="M151.104,79.215V55.931c0-0.529,0.176-0.706,0.705-0.706h7.092c0.528,0,0.705,0.177,0.705,0.706v0.847
		c0,0.529-0.177,0.705-0.705,0.705h-4.692c-0.706,0-0.706,0-0.706,0.706v6.88c0,0.705,0,0.705,0.706,0.705h4.692
		c0.528,0,0.705,0.176,0.705,0.705v0.848c0,0.528-0.177,0.705-0.705,0.705h-4.692c-0.706,0-0.706,0-0.706,0.705v8.221
		c0,0.705,0,0.705,0.706,0.705h4.692c0.528,0,0.705,0.176,0.705,0.705v0.848c0,0.529-0.177,0.705-0.705,0.705h-7.092
		C151.279,79.92,151.104,79.744,151.104,79.215z"/>
	<path fill="#012445" d="M172.059,79.92c-0.318,0-0.564-0.07-0.706-0.424l-5.539-15.733c-0.07-0.247-0.282-0.177-0.282,0v15.452
		c0,0.529-0.176,0.705-0.705,0.705h-0.988c-0.529,0-0.705-0.176-0.705-0.705V55.931c0-0.529,0.176-0.706,0.705-0.706h0.706
		c0.388,0,0.564,0.071,0.705,0.459l5.539,15.734c0.07,0.211,0.282,0.176,0.282,0V55.931c0-0.529,0.177-0.706,0.705-0.706h0.988
		c0.529,0,0.705,0.177,0.705,0.706v23.284c0,0.529-0.176,0.705-0.705,0.705H172.059z"/>
	<path fill="#012445" d="M180.735,79.215v-8.396l-4.375-14.994c-0.176-0.6,0.247-0.6,0.601-0.6h0.987c0.459,0,0.635,0,0.776,0.529
		l3.069,11.008c0.035,0.176,0.247,0.176,0.282,0l3.104-11.008c0.141-0.529,0.317-0.529,0.775-0.529h0.988c0.353,0,0.776,0,0.6,0.6
		l-4.41,14.994v8.396c0,0.529-0.176,0.705-0.705,0.705h-0.988C180.912,79.92,180.735,79.744,180.735,79.215z"/>
	<path fill="#012445" d="M198.374,79.92c-0.459,0-0.671,0-0.776-0.529l-0.423-2.434c-0.142-0.706-0.142-0.706-0.776-0.706h-4.34
		c-0.705,0-0.67,0-0.811,0.706l-0.424,2.434c-0.105,0.529-0.317,0.529-0.776,0.529h-1.058c-0.354,0-0.706,0-0.6-0.6l4.409-23.46
		c0.106-0.529,0.212-0.636,0.776-0.636h1.27c0.564,0,0.671,0.106,0.776,0.636l4.41,23.46c0.105,0.6-0.247,0.6-0.6,0.6H198.374z
		 M191.918,73.287c-0.105,0.706-0.105,0.706,0.6,0.706h3.387c0.706,0,0.706,0,0.6-0.706l-2.151-12.523
		c-0.036-0.176-0.247-0.176-0.282,0L191.918,73.287z"/>
	<path fill="#012445" d="M203.735,77.168c1.376,0,2.505,2.082-0.247,5.045c-0.106,0.105-0.177,0.177-0.354,0.07l-0.353-0.246
		c-0.141-0.106-0.176-0.212-0.07-0.354c1.552-2.152-0.353-1.623-0.353-3.14C202.359,77.838,202.959,77.168,203.735,77.168z"/>
	<path fill="#012445" d="M217.105,79.92h-0.988c-0.529,0-0.705-0.176-0.705-0.705V55.931c0-0.529,0.176-0.706,0.705-0.706h0.988
		c0.529,0,0.705,0.177,0.705,0.706v23.284C217.811,79.744,217.635,79.92,217.105,79.92z"/>
	<path fill="#012445" d="M230.615,79.92c-0.317,0-0.564-0.07-0.705-0.424l-5.539-15.733c-0.07-0.247-0.282-0.177-0.282,0v15.452
		c0,0.529-0.176,0.705-0.705,0.705h-0.988c-0.528,0-0.705-0.176-0.705-0.705V55.931c0-0.529,0.177-0.706,0.705-0.706h0.706
		c0.388,0,0.564,0.071,0.705,0.459l5.539,15.734c0.07,0.211,0.282,0.176,0.282,0V55.931c0-0.529,0.177-0.706,0.706-0.706h0.987
		c0.529,0,0.706,0.177,0.706,0.706v23.284c0,0.529-0.177,0.705-0.706,0.705H230.615z"/>
	<path fill="#012445" d="M241.692,79.92h-5.08c-0.528,0-0.705-0.176-0.705-0.705V55.931c0-0.529,0.177-0.706,0.705-0.706h5.08
		c2.929,0,5.292,1.658,5.292,5.998v12.7C246.984,78.262,244.621,79.92,241.692,79.92z M238.306,76.957c0,0.705,0,0.705,0.706,0.705
		h2.681c1.94,0,2.894-1.164,2.894-4.34v-11.5c0-3.176-0.953-4.34-2.894-4.34h-2.681c-0.706,0-0.706,0-0.706,0.706V76.957z"/>
	<path fill="#012445" d="M252.205,79.92h-0.988c-0.529,0-0.705-0.176-0.705-0.705V55.931c0-0.529,0.176-0.706,0.705-0.706h0.988
		c0.529,0,0.705,0.177,0.705,0.706v23.284C252.91,79.744,252.734,79.92,252.205,79.92z"/>
	<path fill="#012445" d="M266.104,79.92c-0.459,0-0.671,0-0.776-0.529l-0.423-2.434c-0.142-0.706-0.142-0.706-0.776-0.706h-4.34
		c-0.705,0-0.67,0-0.811,0.706l-0.424,2.434c-0.105,0.529-0.317,0.529-0.776,0.529h-1.058c-0.354,0-0.706,0-0.6-0.6l4.409-23.46
		c0.106-0.529,0.212-0.636,0.776-0.636h1.27c0.564,0,0.671,0.106,0.776,0.636l4.41,23.46c0.105,0.6-0.247,0.6-0.6,0.6H266.104z
		 M259.648,73.287c-0.105,0.706-0.105,0.706,0.6,0.706h3.387c0.706,0,0.706,0,0.6-0.706l-2.151-12.523
		c-0.036-0.176-0.247-0.176-0.282,0L259.648,73.287z"/>
</g>
</svg>
