<?xml version="1.0" encoding="utf-8"?>
<!-- Generator: Adobe Illustrator 16.0.0, SVG Export Plug-In . SVG Version: 6.00 Build 0)  -->
<!DOCTYPE svg PUBLIC "-//W3C//DTD SVG 1.0//EN" "http://www.w3.org/TR/2001/REC-SVG-20010904/DTD/svg10.dtd">
<svg version="1.0" id="Layer_4" xmlns="http://www.w3.org/2000/svg" xmlns:xlink="http://www.w3.org/1999/xlink" x="0px" y="0px"
	 width="130px" height="130px" viewBox="0 0 130 130" enable-background="new 0 0 130 130" xml:space="preserve">
<path fill="#FFFFFF" d="M64.908,2.936L64.908,2.936c-7.264,0-14.472,1.271-21.298,3.755c-6.826,2.484-13.165,6.144-18.729,10.814
	c-5.565,4.669-10.271,10.276-13.902,16.567v0c-3.632,6.291-6.135,13.168-7.396,20.322c-1.262,7.154-1.262,14.473,0,21.627
	c1.261,7.153,3.765,14.031,7.396,20.322s8.337,11.897,13.902,16.566c5.564,4.671,11.903,8.33,18.729,10.813
	c6.826,2.485,14.034,3.756,21.298,3.756c7.264,0,14.472-1.271,21.298-3.756c6.826-2.483,13.165-6.143,18.729-10.813
	c5.565-4.669,10.27-10.275,13.901-16.566c3.633-6.291,6.136-13.169,7.397-20.322c1.261-7.154,1.261-14.473,0-21.627
	c-1.262-7.154-3.765-14.031-7.397-20.322v0c-3.632-6.291-8.336-11.898-13.901-16.567c-5.564-4.67-11.903-8.33-18.729-10.814
	C79.38,4.207,72.172,2.936,64.908,2.936"/>
<path fill="none" stroke="#00ACF2" stroke-width="2" stroke-miterlimit="10" d="M64.908,2.936L64.908,2.936
	c-7.264,0-14.472,1.271-21.298,3.755c-6.826,2.484-13.165,6.144-18.729,10.814c-5.565,4.669-10.271,10.276-13.902,16.567v0
	c-3.632,6.291-6.135,13.168-7.396,20.322c-1.262,7.154-1.262,14.473,0,21.627c1.261,7.153,3.765,14.031,7.396,20.322
	s8.337,11.897,13.902,16.566c5.564,4.671,11.903,8.33,18.729,10.813c6.826,2.485,14.034,3.756,21.298,3.756
	c7.264,0,14.472-1.271,21.298-3.756c6.826-2.483,13.165-6.143,18.729-10.813c5.565-4.669,10.27-10.275,13.901-16.566
	c3.633-6.291,6.136-13.169,7.397-20.322c1.261-7.154,1.261-14.473,0-21.627c-1.262-7.154-3.765-14.031-7.397-20.322v0
	c-3.632-6.291-8.336-11.898-13.901-16.567c-5.564-4.67-11.903-8.33-18.729-10.814C79.38,4.207,72.172,2.936,64.908,2.936z"/>
<path fill="#7F47DD" d="M64.909,117.998L64.909,117.998c-29.155,0-52.79-23.635-52.79-52.79c0-29.154,23.634-52.789,52.79-52.789
	c29.154,0,52.789,23.634,52.789,52.789C117.697,94.363,94.062,117.998,64.909,117.998"/>
<path fill="#FFFFFF" d="M43.761,90.885c-0.782-0.144-1.617-0.237-1.615,0.883c0.003,0.935,0.848,0.854,1.472,0.865
	c1.778,0.032,3.556,0.011,5.334,0.015c0.814,0.001,1.223-0.343,1.05-1.2c0.982,2.277,0.983,4.554,0.001,6.831
	c0.175-0.866-0.251-1.192-1.059-1.189c-1.78,0.004-3.561-0.01-5.34,0.003c-0.671,0.005-1.445,0.067-1.471,0.923
	c-0.027,0.889,0.76,0.948,1.425,0.941c1.962-0.021,3.926-0.075,5.889-0.116c1.776-0.366,0.76,2.812,3.119,2.246
	c2.15-0.516,4.521-0.128,6.792-0.108c1.593,0.018,2.835-0.594,3.318-2.134c0.449-1.433,1.313-1.498,2.593-1.371
	c4.365,0.433,8.718,0.281,12.931-1.074c4.639-1.494,7.188-4.725,7.142-8.811c-0.042-3.571-2.463-6.086-7.37-7.48
	c-4.118-1.172-8.369-1.485-12.623-1.799c-6.034-0.445-12.134-0.345-18.052-1.841c-1.813-0.459-3.923-1.044-4.294-3.21
	c-0.321-1.878,1.333-2.989,2.618-4.105c0.429-0.371,0.846-0.8,1.349-1.032c1.835-0.849,1.163-1.936,0.452-3.167
	c-0.928-1.608-1.738-0.428-2.507,0.065c-0.871,0.558-1.697,1.214-2.454,1.923c-5.282,4.947-4.134,10.361,2.723,12.741
	c1.331,0.462,2.732,0.772,4.125,0.996c4.587,0.739,9.228,0.897,13.858,1.214c5.087,0.349,10.236,0.475,15.111,2.246
	c1.607,0.585,3.275,1.379,3.334,3.432c0.059,2.077-1.014,3.614-2.872,4.52c-0.928,0.451-1.91,0.821-2.903,1.097
	c-3.435,0.949-6.945,0.638-10.447,0.575c-1.408-0.023-2.228-0.34-2.475-1.957c-0.292-1.921-1.581-2.97-3.639-2.75
	c-3.323,0.356-7.003-1.209-9.832,1.821c-1.516-0.003-3.029-0.006-4.544-0.008C44.521,90.873,44.141,90.88,43.761,90.885"/>
<path fill="#FFFFFF" d="M65.67,67.145c9.912-0.024,17.879-7.957,17.902-17.832c0.023-10.001-8.041-18.09-18.019-18.073
	c-9.952,0.018-17.925,8.129-17.872,18.184C47.733,59.304,55.714,67.167,65.67,67.145"/>
<path fill="#FFFFFF" d="M38.443,44.991c2.411,1.289,4.535,2.423,6.695,3.578c1.737-5.336,1.734-5.353-3.343-4.463
	C40.806,44.279,39.718,44.048,38.443,44.991"/>
<path fill="#FFFFFF" d="M92.418,44.957c-0.047-0.191-0.096-0.381-0.143-0.571c-2.094-0.313-4.191-0.605-6.28-0.952
	c-1.155-0.192-1.295,0.308-1.06,1.271c0.199,0.823,0.326,1.668,0.413,2.51c0.107,1.05,0.55,1.331,1.492,0.808
	C88.694,46.993,90.559,45.978,92.418,44.957"/>
<path fill="#FFFFFF" d="M54.736,32.432c-2.435-1.452-4.537-2.707-7.299-4.355c1.042,2.654,1.779,4.558,2.544,6.451
	c0.167,0.415,0.436,0.788,0.728,1.306C52.039,34.711,53.241,33.697,54.736,32.432"/>
<path fill="#FFFFFF" d="M65.53,21.737c-0.516,1.365-0.899,2.293-1.222,3.242c-1.637,4.819-1.632,4.821,3.735,4.302
	C67.581,26.81,66.643,24.524,65.53,21.737"/>
<path fill="#FFFFFF" d="M83.215,28.821c-0.185-0.119-0.37-0.241-0.553-0.36c-2.055,1.27-4.11,2.541-6.334,3.915
	c1.225,1.067,2.226,1.896,3.175,2.782c0.715,0.667,1.077,0.461,1.389-0.371C81.644,32.79,82.438,30.809,83.215,28.821"/>
<path fill="#FFFFFF" d="M61.372,69.088c-1.895-0.628-3.374-1.118-5.059-1.677c-0.084,2.698-0.399,5.152,0.088,7.962
	C58.117,73.202,59.611,71.315,61.372,69.088"/>
<path fill="#FFFFFF" d="M46.903,57.134c-1.774,2.023-3.41,3.89-5.048,5.758c2.707-0.104,5.236-0.218,7.717-1.298
	C48.646,60.049,47.84,58.701,46.903,57.134"/>
<path fill="#FFFFFF" d="M74.531,74.906c0.194-0.083,0.388-0.168,0.582-0.252c0-0.839,0.01-1.676-0.002-2.514
	c-0.077-5.098-0.08-5.098-4.752-3.214c-0.062,0.025-0.091,0.14-0.289,0.459C71.518,71.176,73.024,73.041,74.531,74.906"/>
<path fill="#FFFFFF" d="M89.596,63.154c-1.057-1.23-1.657-1.937-2.266-2.636c-3.308-3.803-3.309-3.803-5.541,1.132
	C84.125,62.395,86.499,62.808,89.596,63.154"/>
<path fill="#FFFFFF" d="M81.132,68.052c-0.416-1.443-0.347-3.132-1.748-3.914c-0.28-0.156-1.887,1.093-1.804,1.416
	C77.998,67.174,79.832,67.225,81.132,68.052"/>
<path fill="#FFFFFF" d="M50.146,68.19c1.147-0.979,3.123-0.847,3.413-2.665c0.06-0.375-1.276-1.46-1.587-1.328
	C50.329,64.898,50.547,66.67,50.146,68.19"/>
<path fill="#FFFFFF" d="M89.812,53.644c-1.726-0.803-2.713-2.252-4.271-1.687c-0.509,0.186-0.803,1.875-0.233,2.207
	C86.613,54.926,87.993,54.153,89.812,53.644"/>
<path fill="#FFFFFF" d="M41.332,53.752c1.823,0.632,3.233,1.258,4.612,0.403c0.251-0.155,0.061-1.857-0.294-2.013
	C43.918,51.376,43.059,53.125,41.332,53.752"/>
<path fill="#FFFFFF" d="M86.548,37.757c-1.546-0.225-3.177-0.561-4.052,0.626c-0.354,0.481,0.457,1.701,1.467,2.302
	C84.824,39.708,85.686,38.732,86.548,37.757"/>
<path fill="#FFFFFF" d="M57.216,26.952c-0.252,1.407-0.853,2.898,0.179,3.952c0.439,0.451,2.024-0.151,2.135-0.721
	C59.838,28.607,58.147,28.013,57.216,26.952"/>
<path fill="#FFFFFF" d="M65.594,73.59c0.521-1.289,1.838-2.453,1.143-3.989c-0.142-0.314-1.765-0.455-2.036-0.127
	C63.491,70.946,65.186,72.096,65.594,73.59"/>
<path fill="#FFFFFF" d="M44.077,37.52c1.382,1.201,1.849,2.867,3.256,3.027c0.713,0.082,1.188-1.355,1.374-2.382
	C47.297,37.816,46.081,37.319,44.077,37.52"/>
<path fill="#FFFFFF" d="M73.874,26.447c-3.187,3.688-3.187,3.688-0.116,4.541C74.115,29.636,74.053,28.293,73.874,26.447"/>
<path fill-rule="evenodd" clip-rule="evenodd" fill="#FFFFFF" d="M65.67,67.145c-9.956,0.022-17.937-7.84-17.989-17.721
	c-0.053-10.055,7.92-18.167,17.872-18.184c9.978-0.018,18.042,8.071,18.019,18.073C83.549,59.188,75.582,67.12,65.67,67.145"/>
<path fill-rule="evenodd" clip-rule="evenodd" fill="#FFFFFF" d="M49.446,90.876c2.827-3.03,6.508-1.465,9.831-1.821
	c2.059-0.22,3.348,0.829,3.64,2.75c0.248,1.617,1.067,1.934,2.475,1.957c3.501,0.062,7.012,0.374,10.447-0.575
	c0.993-0.275,1.976-0.646,2.903-1.097c1.858-0.905,2.931-2.442,2.872-4.52c-0.059-2.053-1.727-2.847-3.334-3.432
	c-4.875-1.771-10.024-1.897-15.112-2.246c-4.629-0.316-9.27-0.475-13.857-1.214c-1.394-0.224-2.794-0.534-4.125-0.996
	c-6.857-2.38-8.005-7.794-2.723-12.741c0.757-0.709,1.582-1.365,2.454-1.924c0.769-0.493,1.579-1.672,2.507-0.064
	c0.71,1.231,1.383,2.318-0.453,3.167c-0.502,0.232-0.92,0.661-1.348,1.032c-1.285,1.116-2.939,2.228-2.618,4.105
	c0.372,2.166,2.481,2.751,4.295,3.21c5.917,1.496,12.016,1.396,18.051,1.841c4.254,0.313,8.505,0.627,12.623,1.799
	c4.907,1.395,7.328,3.909,7.37,7.48c0.046,4.086-2.503,7.316-7.142,8.811c-4.213,1.355-8.566,1.507-12.931,1.074
	c-1.28-0.127-2.144-0.062-2.593,1.371c-0.483,1.54-1.725,2.15-3.318,2.134c-2.271-0.02-4.642-0.407-6.792,0.108
	c-2.359,0.565-1.343-2.612-3.12-2.246c0.186-0.187,0.372-0.375,0.558-0.562c0.981-2.277,0.98-4.554-0.002-6.831
	C49.817,91.257,49.632,91.067,49.446,90.876"/>
<path fill-rule="evenodd" clip-rule="evenodd" fill="#FFFFFF" d="M38.443,44.991c1.274-0.943,2.363-0.712,3.352-0.885
	c5.078-0.89,5.081-0.873,3.343,4.463C42.978,47.414,40.854,46.28,38.443,44.991"/>
<path fill-rule="evenodd" clip-rule="evenodd" fill="#FFFFFF" d="M92.418,44.957c-1.859,1.021-3.724,2.036-5.577,3.065
	c-0.942,0.523-1.385,0.242-1.492-0.808c-0.087-0.842-0.214-1.687-0.413-2.51c-0.235-0.964-0.096-1.463,1.06-1.271
	c2.089,0.347,4.187,0.639,6.28,0.952C92.322,44.576,92.371,44.766,92.418,44.957"/>
<path fill-rule="evenodd" clip-rule="evenodd" fill="#FFFFFF" d="M54.736,32.432c-1.496,1.265-2.698,2.279-4.028,3.401
	c-0.292-0.518-0.561-0.891-0.728-1.306c-0.765-1.893-1.501-3.797-2.544-6.451C50.2,29.725,52.302,30.979,54.736,32.432"/>
<path fill-rule="evenodd" clip-rule="evenodd" fill="#FFFFFF" d="M65.53,21.737c1.113,2.787,2.051,5.073,2.513,7.544
	c-5.367,0.52-5.372,0.518-3.735-4.302C64.63,24.03,65.014,23.102,65.53,21.737"/>
<path fill-rule="evenodd" clip-rule="evenodd" fill="#FFFFFF" d="M83.215,28.821c-0.777,1.988-1.571,3.969-2.323,5.966
	c-0.312,0.832-0.674,1.038-1.389,0.371c-0.949-0.885-1.95-1.715-3.175-2.782c2.224-1.375,4.279-2.645,6.334-3.915
	C82.845,28.58,83.03,28.702,83.215,28.821"/>
<path fill-rule="evenodd" clip-rule="evenodd" fill="#FFFFFF" d="M61.372,69.088c-1.76,2.228-3.254,4.114-4.971,6.285
	c-0.487-2.81-0.172-5.264-0.088-7.962C57.998,67.97,59.477,68.46,61.372,69.088"/>
<path fill-rule="evenodd" clip-rule="evenodd" fill="#FFFFFF" d="M46.903,57.134c0.937,1.567,1.743,2.915,2.669,4.46
	c-2.481,1.081-5.01,1.194-7.717,1.298C43.493,61.023,45.129,59.157,46.903,57.134"/>
<path fill-rule="evenodd" clip-rule="evenodd" fill="#FFFFFF" d="M74.531,74.906c-1.507-1.865-3.014-3.73-4.461-5.521
	c0.198-0.319,0.227-0.434,0.289-0.459c4.672-1.884,4.675-1.884,4.752,3.214c0.012,0.838,0.002,1.675,0.002,2.514
	C74.919,74.738,74.726,74.823,74.531,74.906"/>
<path fill-rule="evenodd" clip-rule="evenodd" fill="#FFFFFF" d="M89.596,63.154c-3.097-0.346-5.471-0.759-7.807-1.504
	c2.232-4.935,2.233-4.935,5.541-1.132C87.938,61.217,88.539,61.923,89.596,63.154"/>
<path fill-rule="evenodd" clip-rule="evenodd" fill="#FFFFFF" d="M50.004,98.278c-0.185,0.187-0.371,0.375-0.556,0.562
	c-1.963,0.041-3.927,0.096-5.889,0.116c-0.665,0.007-1.452-0.054-1.425-0.942c0.026-0.854,0.8-0.917,1.471-0.922
	c1.779-0.013,3.56,0.001,5.34-0.003C49.753,97.086,50.179,97.412,50.004,98.278"/>
<path fill-rule="evenodd" clip-rule="evenodd" fill="#FFFFFF" d="M49.446,90.876c0.186,0.191,0.371,0.381,0.557,0.571
	c0.172,0.857-0.235,1.201-1.05,1.2c-1.778-0.004-3.557,0.018-5.334-0.015c-0.625-0.012-1.469,0.07-1.472-0.865
	c-0.002-1.12,0.832-1.027,1.615-0.883c0.387,0.504,0.772,0.803,1.141-0.017C46.417,90.87,47.931,90.873,49.446,90.876"/>
<path fill-rule="evenodd" clip-rule="evenodd" fill="#FFFFFF" d="M81.132,68.052c-1.3-0.827-3.134-0.878-3.552-2.498
	c-0.083-0.323,1.523-1.572,1.804-1.416C80.785,64.919,80.716,66.608,81.132,68.052"/>
<path fill-rule="evenodd" clip-rule="evenodd" fill="#FFFFFF" d="M50.146,68.19c0.4-1.521,0.182-3.292,1.826-3.993
	c0.311-0.132,1.647,0.953,1.587,1.328C53.27,67.344,51.294,67.212,50.146,68.19"/>
<path fill-rule="evenodd" clip-rule="evenodd" fill="#FFFFFF" d="M89.812,53.644c-1.819,0.509-3.199,1.282-4.504,0.521
	c-0.569-0.333-0.275-2.021,0.233-2.207C87.1,51.392,88.087,52.841,89.812,53.644"/>
<path fill-rule="evenodd" clip-rule="evenodd" fill="#FFFFFF" d="M41.332,53.752c1.728-0.627,2.586-2.376,4.318-1.609
	c0.355,0.155,0.545,1.857,0.294,2.013C44.565,55.01,43.154,54.384,41.332,53.752"/>
<path fill-rule="evenodd" clip-rule="evenodd" fill="#FFFFFF" d="M86.548,37.757c-0.862,0.975-1.724,1.951-2.585,2.928
	c-1.01-0.602-1.82-1.821-1.467-2.302C83.371,37.196,85.002,37.532,86.548,37.757"/>
<path fill-rule="evenodd" clip-rule="evenodd" fill="#FFFFFF" d="M57.216,26.952c0.931,1.061,2.622,1.655,2.313,3.231
	c-0.11,0.57-1.696,1.172-2.135,0.721C56.363,29.851,56.964,28.359,57.216,26.952"/>
<path fill-rule="evenodd" clip-rule="evenodd" fill="#FFFFFF" d="M65.594,73.59c-0.408-1.494-2.103-2.644-0.894-4.116
	c0.271-0.328,1.895-0.188,2.036,0.127C67.432,71.137,66.114,72.301,65.594,73.59"/>
<path fill-rule="evenodd" clip-rule="evenodd" fill="#FFFFFF" d="M44.077,37.52c2.004-0.201,3.22,0.296,4.629,0.645
	c-0.186,1.027-0.66,2.464-1.374,2.382C45.926,40.387,45.459,38.721,44.077,37.52"/>
<path fill-rule="evenodd" clip-rule="evenodd" fill="#FFFFFF" d="M73.874,26.447c0.179,1.846,0.241,3.188-0.116,4.541
	C70.688,30.135,70.688,30.135,73.874,26.447"/>
<path fill-rule="evenodd" clip-rule="evenodd" fill="#FFFFFF" d="M44.902,90.868c-0.369,0.819-0.753,0.521-1.141,0.017
	C44.142,90.879,44.521,90.873,44.902,90.868"/>
</svg>
