<?xml version="1.0" encoding="utf-8"?>
<!-- Generator: Adobe Illustrator 16.0.0, SVG Export Plug-In . SVG Version: 6.00 Build 0)  -->
<!DOCTYPE svg PUBLIC "-//W3C//DTD SVG 1.0//EN" "http://www.w3.org/TR/2001/REC-SVG-20010904/DTD/svg10.dtd">
<svg version="1.0" id="Layer_7" xmlns="http://www.w3.org/2000/svg" xmlns:xlink="http://www.w3.org/1999/xlink" x="0px" y="0px"
	 width="130px" height="130px" viewBox="0 0 130 130" enable-background="new 0 0 130 130" xml:space="preserve">
<path fill="#FFFFFF" d="M64.66,2.272L64.66,2.272c-7.357,0-14.658,1.288-21.572,3.804C36.176,8.592,29.754,12.3,24.119,17.028
	c-5.637,4.73-10.401,10.409-14.079,16.78C6.36,40.18,3.825,47.147,2.548,54.392c-1.278,7.244-1.278,14.658,0,21.904
	C3.825,83.543,6.36,90.508,10.04,96.88c3.678,6.371,8.442,12.051,14.079,16.78c5.635,4.729,12.057,8.434,18.969,10.95
	c6.915,2.518,14.215,3.806,21.572,3.806c7.356,0,14.658-1.288,21.572-3.806c6.913-2.517,13.333-6.222,18.97-10.95
	c5.637-4.729,10.399-10.409,14.079-16.78c3.679-6.372,6.215-13.337,7.491-20.584c1.278-7.246,1.278-14.66,0-21.904
	c-1.276-7.245-3.812-14.212-7.491-20.584c-3.68-6.371-8.442-12.049-14.079-16.78C99.565,12.3,93.146,8.592,86.232,6.076
	C79.318,3.56,72.017,2.272,64.66,2.272"/>
<path fill="none" stroke="#00ACF2" stroke-width="2" stroke-miterlimit="10" d="M64.66,2.272L64.66,2.272
	c-7.357,0-14.658,1.288-21.572,3.804C36.176,8.592,29.754,12.3,24.119,17.028c-5.637,4.73-10.401,10.409-14.079,16.78
	C6.36,40.18,3.825,47.147,2.548,54.392c-1.278,7.244-1.278,14.658,0,21.904C3.825,83.543,6.36,90.508,10.04,96.88
	c3.678,6.371,8.442,12.051,14.079,16.78c5.635,4.729,12.057,8.434,18.969,10.95c6.915,2.518,14.215,3.806,21.572,3.806
	c7.356,0,14.658-1.288,21.572-3.806c6.913-2.517,13.333-6.222,18.97-10.95c5.637-4.729,10.399-10.409,14.079-16.78
	c3.679-6.372,6.215-13.337,7.491-20.584c1.278-7.246,1.278-14.66,0-21.904c-1.276-7.245-3.812-14.212-7.491-20.584
	c-3.68-6.371-8.442-12.049-14.079-16.78C99.565,12.3,93.146,8.592,86.232,6.076C79.318,3.56,72.017,2.272,64.66,2.272z"/>
<path fill="#E4892C" d="M106.72,55.677c0-12.123-9.826-21.95-21.949-21.95c-8.993,0-16.72,5.412-20.11,13.154
	c-3.392-7.743-11.117-13.154-20.11-13.154c-12.122,0-21.95,9.827-21.95,21.95c0,6.519,2.845,12.37,7.357,16.39l32.864,32.086
	l1.839,1.796l1.839-1.796l32.864-32.086C103.875,68.047,106.72,62.195,106.72,55.677"/>
</svg>
