<?xml version="1.0" encoding="utf-8"?>
<!-- Generator: Adobe Illustrator 16.0.0, SVG Export Plug-In . SVG Version: 6.00 Build 0)  -->
<!DOCTYPE svg PUBLIC "-//W3C//DTD SVG 1.0//EN" "http://www.w3.org/TR/2001/REC-SVG-20010904/DTD/svg10.dtd">
<svg version="1.0" id="Layer_8" xmlns="http://www.w3.org/2000/svg" xmlns:xlink="http://www.w3.org/1999/xlink" x="0px" y="0px"
	 width="130px" height="130px" viewBox="0 0 130 130" enable-background="new 0 0 130 130" xml:space="preserve">
<path fill="#FFFFFF" d="M65.332,2.676L65.332,2.676c-7.271,0-14.485,1.272-21.317,3.759c-6.833,2.487-13.179,6.15-18.747,10.824
	c-5.57,4.673-10.28,10.286-13.915,16.583c-3.637,6.296-6.142,13.181-7.404,20.341c-1.262,7.161-1.262,14.487,0,21.647
	c1.263,7.161,3.768,14.045,7.404,20.342c3.635,6.297,8.345,11.909,13.915,16.583c5.568,4.674,11.914,8.337,18.747,10.824
	c6.832,2.486,14.047,3.759,21.317,3.759c7.271,0,14.486-1.272,21.318-3.759c6.833-2.487,13.178-6.15,18.747-10.824
	s10.279-10.286,13.915-16.583c3.635-6.297,6.141-13.181,7.403-20.342c1.263-7.16,1.263-14.486,0-21.647
	c-1.263-7.16-3.769-14.045-7.403-20.341c-3.636-6.297-8.346-11.91-13.915-16.583C99.828,12.585,93.483,8.922,86.65,6.435
	C79.818,3.948,72.604,2.676,65.332,2.676"/>
<path fill="none" stroke="#00ACF2" stroke-width="2" stroke-miterlimit="10" d="M65.332,2.676L65.332,2.676
	c-7.271,0-14.485,1.272-21.317,3.759c-6.833,2.487-13.179,6.15-18.747,10.824c-5.57,4.673-10.28,10.286-13.915,16.583
	c-3.637,6.296-6.142,13.181-7.404,20.341c-1.262,7.161-1.262,14.487,0,21.647c1.263,7.161,3.768,14.045,7.404,20.342
	c3.635,6.297,8.345,11.909,13.915,16.583c5.568,4.674,11.914,8.337,18.747,10.824c6.832,2.486,14.047,3.759,21.317,3.759
	c7.271,0,14.486-1.272,21.318-3.759c6.833-2.487,13.178-6.15,18.747-10.824s10.279-10.286,13.915-16.583
	c3.635-6.297,6.141-13.181,7.403-20.342c1.263-7.16,1.263-14.486,0-21.647c-1.263-7.16-3.769-14.045-7.403-20.341
	c-3.636-6.297-8.346-11.91-13.915-16.583C99.828,12.585,93.483,8.922,86.65,6.435C79.818,3.948,72.604,2.676,65.332,2.676z"/>
<path fill="#FFCB33" d="M65.332,111.755L65.332,111.755c-25.817,0-46.748-20.93-46.748-46.748v-0.001
	c0-25.817,20.931-46.748,46.748-46.748c25.818,0,46.748,20.931,46.748,46.748v0.001C112.08,90.825,91.15,111.755,65.332,111.755"/>
<polygon fill="#FFFFFF" points="72.663,27.676 44.663,70.676 63.663,70.676 56.663,102.676 86.663,54.676 67.663,54.676 "/>
</svg>
