<?xml version="1.0" encoding="utf-8"?>
<!-- Generator: Adobe Illustrator 16.0.0, SVG Export Plug-In . SVG Version: 6.00 Build 0)  -->
<!DOCTYPE svg PUBLIC "-//W3C//DTD SVG 1.0//EN" "http://www.w3.org/TR/2001/REC-SVG-20010904/DTD/svg10.dtd">
<svg version="1.0" id="Layer_1" xmlns="http://www.w3.org/2000/svg" xmlns:xlink="http://www.w3.org/1999/xlink" x="0px" y="0px"
	 width="800px" height="800px" viewBox="0 0 800 800" enable-background="new 0 0 800 800" xml:space="preserve">
<polygon fill="#FBAE17" points="228.638,5.88 349.692,92.126 313,80.881 64,132.88 777,640.857 777,31.105 742,5.88 "/>
<polygon fill="none" stroke="#FBAE17" stroke-width="2" stroke-linecap="round" stroke-linejoin="round" stroke-miterlimit="10" points="
	64,132.88 790,650.12 790,40.476 742,5.88 228.638,5.88 349.692,92.126 313,80.88 "/>
<polygon fill="#FFFFFF" points="64,5.88 64,132.88 335,132.88 364.645,132.88 400,168.235 435.355,132.88 742,132.88 742,5.88 "/>
<polygon fill="none" stroke="#FBAE17" stroke-width="2" stroke-linecap="round" stroke-linejoin="round" stroke-miterlimit="10" points="
	64,5.88 64,132.88 335,132.88 364.645,132.88 400,168.235 435.355,132.88 742,132.88 742,5.88 "/>
</svg>
