<?xml version="1.0" encoding="utf-8"?>
<!-- Generator: Adobe Illustrator 16.0.0, SVG Export Plug-In . SVG Version: 6.00 Build 0)  -->
<!DOCTYPE svg PUBLIC "-//W3C//DTD SVG 1.0//EN" "http://www.w3.org/TR/2001/REC-SVG-20010904/DTD/svg10.dtd">
<svg version="1.0" id="Layer_9" xmlns="http://www.w3.org/2000/svg" xmlns:xlink="http://www.w3.org/1999/xlink" x="0px" y="0px"
	 width="130px" height="130px" viewBox="0 0 130 130" enable-background="new 0 0 130 130" xml:space="preserve">
<path fill="#FFFFFF" d="M64.669,2.778L64.669,2.778c-7.296,0-14.537,1.276-21.394,3.772C36.418,9.046,30.05,12.723,24.46,17.412
	c-5.589,4.692-10.314,10.322-13.963,16.643c-3.648,6.318-6.163,13.227-7.431,20.414c-1.266,7.186-1.266,14.538,0,21.724
	c1.269,7.186,3.783,14.093,7.431,20.414c3.649,6.318,8.374,11.951,13.963,16.643c5.59,4.689,11.958,8.366,18.815,10.86
	c6.857,2.496,14.097,3.773,21.394,3.773c7.297,0,14.537-1.277,21.395-3.773c6.857-2.494,13.224-6.171,18.813-10.86
	c5.589-4.691,10.315-10.324,13.965-16.643c3.647-6.321,6.162-13.229,7.431-20.414c1.266-7.187,1.266-14.538,0-21.724
	c-1.269-7.187-3.783-14.096-7.431-20.414c-3.649-6.321-8.376-11.951-13.965-16.643c-5.59-4.689-11.956-8.366-18.813-10.862
	C79.206,4.054,71.966,2.778,64.669,2.778"/>
<path fill="none" stroke="#fbae17" stroke-width="2" stroke-miterlimit="10" d="M64.669,2.778L64.669,2.778
	c-7.296,0-14.537,1.276-21.394,3.772C36.418,9.046,30.05,12.723,24.46,17.412c-5.589,4.692-10.314,10.322-13.963,16.643
	c-3.648,6.318-6.163,13.227-7.431,20.414c-1.266,7.186-1.266,14.538,0,21.724c1.269,7.186,3.783,14.093,7.431,20.414
	c3.649,6.318,8.374,11.951,13.963,16.643c5.59,4.689,11.958,8.366,18.815,10.86c6.857,2.496,14.097,3.773,21.394,3.773
	c7.297,0,14.537-1.277,21.395-3.773c6.857-2.494,13.224-6.171,18.813-10.86c5.589-4.691,10.315-10.324,13.965-16.643
	c3.647-6.321,6.162-13.229,7.431-20.414c1.266-7.187,1.266-14.538,0-21.724c-1.269-7.187-3.783-14.096-7.431-20.414
	c-3.649-6.321-8.376-11.951-13.965-16.643c-5.59-4.689-11.956-8.366-18.813-10.862C79.206,4.054,71.966,2.778,64.669,2.778z"/>
<path fill="#fbae17" d="M64.669,112.245L64.669,112.245c-25.91,0-46.914-21.005-46.914-46.914c0-25.911,21.004-46.916,46.914-46.916
	c25.91,0,46.914,21.005,46.914,46.916C111.583,91.24,90.579,112.245,64.669,112.245"/>
<path fill="#FFFFFF" d="M85.549,56.22c2.648,0,4.795-2.146,4.795-4.794c0-2.647-2.146-4.794-4.795-4.794H70.688
	c1.966-1.633,3.218-4.096,3.218-6.85c0-4.918-3.987-8.904-8.905-8.904c-4.917,0-8.903,3.986-8.903,8.904
	c0,2.753,1.251,5.216,3.216,6.85h-14.86c-2.649,0-4.795,2.146-4.795,4.794c0,2.648,2.146,4.794,4.795,4.794h15.753v16.383
	c-0.191,0.165-0.375,0.343-0.542,0.543l-15.85,18.889c-1.701,2.029-1.438,5.052,0.592,6.754c2.028,1.704,5.051,1.437,6.754-0.59
	L65,81.705l13.842,16.494c1.701,2.026,4.725,2.294,6.754,0.59c2.028-1.702,2.294-4.725,0.592-6.754L70.338,73.146
	c-0.168-0.2-0.351-0.378-0.542-0.543V56.22H85.549z"/>
</svg>
