<?xml version="1.0" encoding="utf-8"?>
<!-- Generator: Adobe Illustrator 16.0.0, SVG Export Plug-In . SVG Version: 6.00 Build 0)  -->
<!DOCTYPE svg PUBLIC "-//W3C//DTD SVG 1.1//EN" "http://www.w3.org/Graphics/SVG/1.1/DTD/svg11.dtd">
<svg version="1.1" id="Layer_9" xmlns="http://www.w3.org/2000/svg" xmlns:xlink="http://www.w3.org/1999/xlink" x="0px" y="0px"
	 width="130px" height="130px" viewBox="0 0 130 130" enable-background="new 0 0 130 130" xml:space="preserve">
<g>
	<path fill="#FFFFFF" d="M65,2.645L65,2.645c-7.274,0-14.493,1.273-21.327,3.761c-6.835,2.487-13.183,6.152-18.754,10.827
		c-5.572,4.675-10.284,10.29-13.92,16.589c-3.638,6.3-6.144,13.187-7.406,20.351c-1.264,7.163-1.264,14.493,0,21.655
		c1.262,7.165,3.769,14.051,7.406,20.351c3.637,6.3,8.348,11.914,13.92,16.59c5.571,4.675,11.918,8.34,18.754,10.827
		c6.834,2.488,14.053,3.761,21.327,3.761c7.274,0,14.491-1.272,21.326-3.761c6.836-2.487,13.184-6.152,18.755-10.827
		c5.572-4.676,10.284-10.29,13.92-16.59c3.637-6.3,6.144-13.186,7.407-20.351c1.263-7.162,1.263-14.492,0-21.655
		c-1.264-7.164-3.771-14.05-7.407-20.351c-3.636-6.299-8.348-11.914-13.92-16.589c-5.571-4.675-11.919-8.34-18.755-10.827
		C79.491,3.918,72.274,2.645,65,2.645"/>
	<path fill="none" stroke="#88A80D" stroke-width="2" stroke-linecap="round" stroke-linejoin="round" stroke-miterlimit="10" d="
		M65,2.645L65,2.645c-7.274,0-14.493,1.273-21.327,3.761c-6.835,2.487-13.183,6.152-18.754,10.827
		c-5.572,4.675-10.284,10.29-13.92,16.589c-3.638,6.3-6.144,13.187-7.406,20.351c-1.264,7.163-1.264,14.493,0,21.655
		c1.262,7.165,3.769,14.051,7.406,20.351c3.637,6.3,8.348,11.914,13.92,16.59c5.571,4.675,11.918,8.34,18.754,10.827
		c6.834,2.488,14.053,3.761,21.327,3.761c7.274,0,14.491-1.272,21.326-3.761c6.836-2.487,13.184-6.152,18.755-10.827
		c5.572-4.676,10.284-10.29,13.92-16.59c3.637-6.3,6.144-13.186,7.407-20.351c1.263-7.162,1.263-14.492,0-21.655
		c-1.264-7.164-3.771-14.05-7.407-20.351c-3.636-6.299-8.348-11.914-13.92-16.589c-5.571-4.675-11.919-8.34-18.755-10.827
		C79.491,3.918,72.274,2.645,65,2.645z"/>
	<path fill="#7F47DD" d="M65,117.858L65,117.858c-29.193,0-52.86-23.665-52.86-52.858v0c0-29.192,23.667-52.859,52.86-52.859
		c29.193,0,52.859,23.667,52.859,52.859v0C117.859,94.193,94.193,117.858,65,117.858"/>
	<path fill="#FFFFFF" d="M43.825,90.71c-0.783-0.144-1.62-0.238-1.616,0.884c0.002,0.937,0.848,0.855,1.473,0.866
		c1.78,0.033,3.561,0.011,5.341,0.015c0.816,0.001,1.225-0.343,1.053-1.201c0.982,2.28,0.983,4.561,0.001,6.841
		c0.175-0.868-0.251-1.194-1.062-1.191c-1.782,0.004-3.564-0.01-5.347,0.003c-0.671,0.005-1.446,0.067-1.472,0.923
		c-0.028,0.89,0.76,0.949,1.425,0.942c1.965-0.019,3.932-0.072,5.896-0.114c1.779-0.367,0.761,2.813,3.123,2.248
		c2.154-0.516,4.526-0.128,6.802-0.107c1.596,0.016,2.838-0.595,3.322-2.138c0.45-1.436,1.315-1.5,2.596-1.373
		c4.371,0.435,8.732,0.282,12.949-1.075c4.646-1.497,7.197-4.732,7.15-8.823c-0.042-3.574-2.466-6.093-7.378-7.49
		c-4.125-1.173-8.383-1.487-12.642-1.801c-6.042-0.445-12.149-0.345-18.074-1.843c-1.816-0.46-3.93-1.045-4.3-3.214
		c-0.323-1.881,1.334-2.994,2.62-4.111c0.43-0.372,0.849-0.801,1.352-1.034c1.838-0.851,1.164-1.938,0.453-3.17
		c-0.93-1.609-1.741-0.43-2.511,0.063c-0.873,0.56-1.698,1.217-2.456,1.927c-5.29,4.954-4.14,10.376,2.726,12.758
		c1.333,0.462,2.736,0.773,4.131,0.998c4.593,0.74,9.24,0.897,13.876,1.215c5.093,0.35,10.249,0.475,15.13,2.25
		c1.611,0.583,3.281,1.379,3.34,3.437c0.059,2.079-1.015,3.618-2.876,4.523c-0.928,0.453-1.912,0.823-2.907,1.1
		c-3.438,0.95-6.955,0.637-10.46,0.575c-1.41-0.023-2.231-0.34-2.478-1.96c-0.292-1.922-1.584-2.974-3.646-2.753
		c-3.327,0.355-7.012-1.21-9.843,1.823c-1.517-0.003-3.033-0.005-4.55-0.007C44.585,90.698,44.206,90.705,43.825,90.71"/>
	<path fill="#FFFFFF" d="M65.763,66.938c9.926-0.024,17.901-7.968,17.926-17.856c0.024-10.014-8.052-18.113-18.042-18.095
		c-9.967,0.017-17.949,8.14-17.896,18.208C47.802,59.088,55.794,66.961,65.763,66.938"/>
	<path fill="#FFFFFF" d="M38.5,44.756c2.415,1.29,4.542,2.426,6.705,3.583c1.738-5.344,1.735-5.36-3.348-4.469
		C40.866,44.043,39.777,43.811,38.5,44.756"/>
	<path fill="#FFFFFF" d="M92.547,44.722c-0.047-0.19-0.095-0.381-0.143-0.572c-2.098-0.314-4.197-0.606-6.289-0.953
		c-1.158-0.192-1.297,0.307-1.061,1.273c0.2,0.823,0.326,1.669,0.413,2.513c0.107,1.051,0.551,1.332,1.493,0.808
		C88.817,46.76,90.684,45.744,92.547,44.722"/>
	<path fill="#FFFFFF" d="M54.815,32.18c-2.438-1.454-4.544-2.711-7.31-4.361c1.043,2.658,1.781,4.564,2.547,6.459
		c0.167,0.416,0.436,0.79,0.729,1.308C52.113,34.462,53.316,33.446,54.815,32.18"/>
	<path fill="#FFFFFF" d="M65.623,21.472c-0.517,1.366-0.9,2.295-1.224,3.246c-1.64,4.825-1.634,4.827,3.739,4.307
		C67.678,26.55,66.736,24.262,65.623,21.472"/>
	<path fill="#FFFFFF" d="M83.33,28.564c-0.184-0.12-0.368-0.24-0.554-0.362c-2.057,1.272-4.114,2.543-6.342,3.92
		c1.227,1.069,2.229,1.899,3.18,2.786c0.715,0.668,1.079,0.462,1.391-0.371C81.759,32.539,82.553,30.554,83.33,28.564"/>
	<path fill="#FFFFFF" d="M61.458,68.885c-1.897-0.63-3.377-1.12-5.065-1.679c-0.084,2.7-0.399,5.158,0.088,7.972
		C58.201,73.004,59.696,71.114,61.458,68.885"/>
	<path fill="#FFFFFF" d="M46.97,56.914c-1.775,2.026-3.414,3.895-5.053,5.766c2.709-0.104,5.242-0.218,7.726-1.299
		C48.716,59.833,47.91,58.483,46.97,56.914"/>
	<path fill="#FFFFFF" d="M74.635,74.711c0.196-0.085,0.39-0.168,0.584-0.253c0-0.84,0.011-1.678-0.002-2.518
		c-0.076-5.104-0.08-5.104-4.758-3.219c-0.064,0.027-0.092,0.141-0.29,0.461C71.618,70.976,73.126,72.843,74.635,74.711"/>
	<path fill="#FFFFFF" d="M89.721,62.942c-1.059-1.232-1.66-1.939-2.269-2.64c-3.313-3.809-3.313-3.809-5.55,1.133
		C84.243,62.183,86.619,62.596,89.721,62.942"/>
	<path fill="#FFFFFF" d="M81.246,67.846c-0.417-1.444-0.348-3.135-1.75-3.918c-0.282-0.157-1.891,1.094-1.808,1.417
		C78.107,66.968,79.944,67.02,81.246,67.846"/>
	<path fill="#FFFFFF" d="M50.219,67.985c1.149-0.979,3.128-0.848,3.417-2.667c0.061-0.375-1.276-1.463-1.589-1.33
		C50.402,64.689,50.62,66.464,50.219,67.985"/>
	<path fill="#FFFFFF" d="M89.939,53.42c-1.73-0.805-2.718-2.256-4.278-1.688c-0.51,0.185-0.804,1.877-0.233,2.208
		C86.734,54.703,88.116,53.93,89.939,53.42"/>
	<path fill="#FFFFFF" d="M41.393,53.529c1.826,0.632,3.237,1.259,4.618,0.404c0.251-0.156,0.06-1.86-0.294-2.017
		C43.981,51.148,43.122,52.901,41.393,53.529"/>
	<path fill="#FFFFFF" d="M86.669,37.512c-1.549-0.226-3.182-0.563-4.058,0.627c-0.354,0.482,0.456,1.703,1.468,2.305
		C84.942,39.465,85.805,38.488,86.669,37.512"/>
	<path fill="#FFFFFF" d="M57.299,26.692c-0.253,1.41-0.855,2.902,0.178,3.958c0.439,0.451,2.026-0.151,2.139-0.721
		C59.922,28.35,58.23,27.754,57.299,26.692"/>
	<path fill="#FFFFFF" d="M65.687,73.393c0.521-1.29,1.839-2.456,1.145-3.995c-0.143-0.313-1.767-0.456-2.039-0.126
		C63.581,70.744,65.278,71.896,65.687,73.393"/>
	<path fill="#FFFFFF" d="M44.141,37.275c1.383,1.202,1.852,2.871,3.261,3.031c0.714,0.082,1.189-1.356,1.375-2.386
		C47.366,37.572,46.148,37.073,44.141,37.275"/>
	<path fill="#FFFFFF" d="M73.979,26.188c-3.192,3.692-3.192,3.692-0.117,4.546C74.221,29.38,74.156,28.037,73.979,26.188"/>
	<path fill-rule="evenodd" clip-rule="evenodd" fill="#FFFFFF" d="M65.763,66.938c-9.968,0.022-17.96-7.85-18.013-17.744
		c-0.053-10.068,7.93-18.19,17.896-18.208c9.99-0.018,18.066,8.082,18.042,18.095C83.664,58.971,75.688,66.914,65.763,66.938"/>
	<path fill-rule="evenodd" clip-rule="evenodd" fill="#FFFFFF" d="M49.517,90.701c2.832-3.033,6.517-1.468,9.843-1.824
		c2.062-0.22,3.354,0.832,3.646,2.754c0.247,1.62,1.068,1.937,2.478,1.96c3.505,0.062,7.021,0.374,10.46-0.575
		c0.995-0.275,1.979-0.646,2.907-1.1c1.861-0.905,2.935-2.445,2.876-4.524c-0.059-2.057-1.729-2.853-3.339-3.437
		c-4.882-1.774-10.038-1.899-15.131-2.248c-4.636-0.318-9.283-0.476-13.876-1.217c-1.395-0.224-2.798-0.535-4.131-0.997
		c-6.866-2.382-8.016-7.805-2.726-12.759c0.758-0.708,1.584-1.366,2.456-1.926c0.77-0.494,1.581-1.673,2.511-0.063
		c0.711,1.231,1.385,2.318-0.453,3.171c-0.503,0.232-0.921,0.661-1.352,1.032c-1.286,1.118-2.942,2.231-2.62,4.111
		c0.37,2.17,2.484,2.755,4.3,3.215c5.925,1.498,12.033,1.397,18.074,1.843c4.259,0.314,8.517,0.628,12.642,1.802
		c4.912,1.396,7.336,3.915,7.378,7.489c0.047,4.091-2.504,7.326-7.15,8.823c-4.217,1.357-8.578,1.51-12.949,1.075
		c-1.281-0.127-2.146-0.062-2.596,1.373c-0.484,1.543-1.727,2.152-3.322,2.137c-2.275-0.021-4.648-0.407-6.802,0.108
		c-2.361,0.565-1.344-2.615-3.123-2.249c0.186-0.187,0.372-0.374,0.559-0.562c0.982-2.28,0.981-4.561-0.001-6.842
		C49.889,91.083,49.704,90.892,49.517,90.701"/>
	<path fill-rule="evenodd" clip-rule="evenodd" fill="#FFFFFF" d="M38.5,44.756c1.277-0.945,2.367-0.713,3.357-0.887
		c5.083-0.891,5.086-0.875,3.348,4.469C43.041,47.182,40.915,46.046,38.5,44.756"/>
	<path fill-rule="evenodd" clip-rule="evenodd" fill="#FFFFFF" d="M92.547,44.722c-1.863,1.022-3.729,2.038-5.586,3.069
		c-0.942,0.523-1.386,0.243-1.493-0.808c-0.087-0.844-0.213-1.69-0.413-2.513c-0.236-0.966-0.098-1.465,1.061-1.273
		c2.092,0.347,4.191,0.639,6.289,0.953C92.452,44.341,92.5,44.531,92.547,44.722"/>
	<path fill-rule="evenodd" clip-rule="evenodd" fill="#FFFFFF" d="M54.815,32.18c-1.5,1.267-2.702,2.282-4.033,3.406
		c-0.293-0.518-0.562-0.893-0.729-1.308c-0.767-1.895-1.504-3.801-2.547-6.459C50.271,29.469,52.377,30.726,54.815,32.18"/>
	<path fill-rule="evenodd" clip-rule="evenodd" fill="#FFFFFF" d="M65.623,21.472c1.113,2.79,2.055,5.078,2.516,7.553
		c-5.374,0.52-5.379,0.518-3.739-4.307C64.723,23.767,65.106,22.838,65.623,21.472"/>
	<path fill-rule="evenodd" clip-rule="evenodd" fill="#FFFFFF" d="M83.33,28.564c-0.777,1.99-1.571,3.975-2.325,5.974
		c-0.312,0.833-0.676,1.039-1.391,0.371c-0.95-0.887-1.953-1.717-3.18-2.786c2.228-1.377,4.285-2.648,6.342-3.92
		C82.962,28.324,83.146,28.444,83.33,28.564"/>
	<path fill-rule="evenodd" clip-rule="evenodd" fill="#FFFFFF" d="M61.458,68.885c-1.763,2.229-3.257,4.119-4.977,6.293
		c-0.487-2.813-0.172-5.271-0.088-7.972C58.082,67.765,59.562,68.255,61.458,68.885"/>
	<path fill-rule="evenodd" clip-rule="evenodd" fill="#FFFFFF" d="M46.97,56.914c0.939,1.569,1.746,2.919,2.672,4.467
		c-2.484,1.081-5.016,1.195-7.726,1.299C43.556,60.809,45.195,58.94,46.97,56.914"/>
	<path fill-rule="evenodd" clip-rule="evenodd" fill="#FFFFFF" d="M74.635,74.711c-1.509-1.868-3.017-3.735-4.466-5.528
		c0.198-0.32,0.226-0.434,0.29-0.461c4.678-1.885,4.682-1.885,4.758,3.219c0.013,0.84,0.002,1.678,0.002,2.518
		C75.024,74.543,74.831,74.626,74.635,74.711"/>
	<path fill-rule="evenodd" clip-rule="evenodd" fill="#FFFFFF" d="M89.721,62.942c-3.102-0.347-5.478-0.759-7.818-1.507
		c2.236-4.942,2.236-4.942,5.55-1.133C88.061,61.003,88.662,61.71,89.721,62.942"/>
	<path fill-rule="evenodd" clip-rule="evenodd" fill="#FFFFFF" d="M50.077,98.114c-0.187,0.188-0.373,0.375-0.559,0.562
		c-1.965,0.042-3.931,0.096-5.896,0.114c-0.665,0.008-1.453-0.052-1.426-0.942c0.026-0.855,0.801-0.918,1.473-0.923
		c1.783-0.013,3.564,0.001,5.347-0.003C49.825,96.92,50.251,97.246,50.077,98.114"/>
	<path fill-rule="evenodd" clip-rule="evenodd" fill="#FFFFFF" d="M49.517,90.701c0.187,0.19,0.372,0.382,0.559,0.571
		c0.172,0.859-0.237,1.203-1.053,1.202c-1.78-0.004-3.561,0.019-5.341-0.015c-0.625-0.011-1.471,0.07-1.473-0.866
		c-0.003-1.121,0.833-1.027,1.616-0.884c0.388,0.504,0.772,0.804,1.142-0.017C46.484,90.696,48,90.699,49.517,90.701"/>
	<path fill-rule="evenodd" clip-rule="evenodd" fill="#FFFFFF" d="M81.246,67.846c-1.302-0.826-3.139-0.878-3.558-2.5
		c-0.083-0.323,1.525-1.574,1.808-1.417C80.898,64.711,80.829,66.401,81.246,67.846"/>
	<path fill-rule="evenodd" clip-rule="evenodd" fill="#FFFFFF" d="M50.219,67.985c0.401-1.521,0.183-3.296,1.828-3.998
		c0.313-0.133,1.65,0.955,1.589,1.33C53.347,67.138,51.368,67.006,50.219,67.985"/>
	<path fill-rule="evenodd" clip-rule="evenodd" fill="#FFFFFF" d="M89.939,53.42c-1.823,0.509-3.205,1.283-4.512,0.52
		c-0.57-0.332-0.276-2.024,0.233-2.208C87.222,51.165,88.209,52.615,89.939,53.42"/>
	<path fill-rule="evenodd" clip-rule="evenodd" fill="#FFFFFF" d="M41.393,53.529c1.729-0.628,2.588-2.381,4.323-1.613
		c0.354,0.157,0.545,1.861,0.294,2.017C44.63,54.788,43.218,54.161,41.393,53.529"/>
	<path fill-rule="evenodd" clip-rule="evenodd" fill="#FFFFFF" d="M86.669,37.512c-0.864,0.976-1.727,1.953-2.59,2.932
		c-1.012-0.602-1.822-1.823-1.468-2.305C83.487,36.949,85.12,37.286,86.669,37.512"/>
	<path fill-rule="evenodd" clip-rule="evenodd" fill="#FFFFFF" d="M57.299,26.692c0.932,1.062,2.624,1.657,2.317,3.236
		c-0.112,0.57-1.699,1.172-2.139,0.721C56.444,29.595,57.046,28.103,57.299,26.692"/>
	<path fill-rule="evenodd" clip-rule="evenodd" fill="#FFFFFF" d="M65.687,73.393c-0.409-1.496-2.105-2.648-0.894-4.121
		c0.271-0.33,1.896-0.188,2.039,0.126C67.525,70.937,66.208,72.103,65.687,73.393"/>
	<path fill-rule="evenodd" clip-rule="evenodd" fill="#FFFFFF" d="M44.141,37.275c2.007-0.202,3.225,0.297,4.636,0.645
		c-0.186,1.03-0.661,2.468-1.375,2.386C45.993,40.146,45.524,38.477,44.141,37.275"/>
	<path fill-rule="evenodd" clip-rule="evenodd" fill="#FFFFFF" d="M73.979,26.188c0.178,1.849,0.242,3.192-0.117,4.546
		C70.786,29.88,70.786,29.88,73.979,26.188"/>
	<path fill-rule="evenodd" clip-rule="evenodd" fill="#FFFFFF" d="M44.967,90.694c-0.368,0.819-0.754,0.52-1.143,0.016
		C44.206,90.705,44.585,90.698,44.967,90.694"/>
</g>
</svg>
