<?xml version="1.0" encoding="utf-8"?>
<!-- Generator: Adobe Illustrator 16.0.0, SVG Export Plug-In . SVG Version: 6.00 Build 0)  -->
<!DOCTYPE svg PUBLIC "-//W3C//DTD SVG 1.0//EN" "http://www.w3.org/TR/2001/REC-SVG-20010904/DTD/svg10.dtd">
<svg version="1.0" id="Layer_2" xmlns="http://www.w3.org/2000/svg" xmlns:xlink="http://www.w3.org/1999/xlink" x="0px" y="0px"
	 width="130px" height="130px" viewBox="0 0 130 130" enable-background="new 0 0 130 130" xml:space="preserve">
<path fill="#FFFFFF" d="M65,2.669L65,2.669c-7.271,0-14.486,1.272-21.318,3.759c-6.833,2.487-13.178,6.15-18.747,10.824
	c-5.569,4.673-10.278,10.286-13.915,16.583c-3.635,6.296-6.141,13.181-7.403,20.341c-1.263,7.161-1.263,14.487,0,21.648
	c1.263,7.159,3.769,14.044,7.403,20.341c3.637,6.297,8.346,11.909,13.915,16.583s11.914,8.337,18.747,10.823
	c6.832,2.486,14.047,3.76,21.318,3.76s14.486-1.273,21.318-3.76h0.002c6.832-2.486,13.176-6.149,18.746-10.823
	s10.279-10.286,13.914-16.583c3.637-6.297,6.143-13.182,7.404-20.341c1.262-7.161,1.262-14.487,0-21.648
	c-1.262-7.16-3.768-14.045-7.404-20.341c-3.635-6.297-8.344-11.91-13.914-16.583c-5.57-4.674-11.914-8.337-18.746-10.824h-0.002
	C79.486,3.941,72.271,2.669,65,2.669"/>
<path fill="none" stroke="#00acf2" stroke-width="2" stroke-miterlimit="10" d="M65,2.669L65,2.669
	c-7.271,0-14.486,1.272-21.318,3.759c-6.833,2.487-13.178,6.15-18.747,10.824c-5.569,4.673-10.278,10.286-13.915,16.583
	c-3.635,6.296-6.141,13.181-7.403,20.341c-1.263,7.161-1.263,14.487,0,21.648c1.263,7.159,3.769,14.044,7.403,20.341
	c3.637,6.297,8.346,11.909,13.915,16.583s11.914,8.337,18.747,10.823c6.832,2.486,14.047,3.76,21.318,3.76s14.486-1.273,21.318-3.76
	h0.002c6.832-2.486,13.176-6.149,18.746-10.823s10.279-10.286,13.914-16.583c3.637-6.297,6.143-13.182,7.404-20.341
	c1.262-7.161,1.262-14.487,0-21.648c-1.262-7.16-3.768-14.045-7.404-20.341c-3.635-6.297-8.344-11.91-13.914-16.583
	c-5.57-4.674-11.914-8.337-18.746-10.824h-0.002C79.486,3.941,72.271,2.669,65,2.669z"/>
<path fill="#00acf2" d="M65.001,111.748L65.001,111.748c-25.817,0-46.749-20.931-46.749-46.748
	c0-25.819,20.932-46.748,46.749-46.748S111.748,39.182,111.748,65C111.748,90.817,90.818,111.748,65.001,111.748"/>
<path fill="#FFFFFF" d="M82.54,69.134c-1.075-1.787-2.749-3.38-4.972-4.734c-2-1.218-4.955-2.472-8.793-3.732V45.518
	c3.518,0.37,7.02,1.237,10.422,2.58c0.288,0.117,0.635,0.105,0.921-0.018s0.534-0.364,0.649-0.653l2.044-5.149
	c0.236-0.599-0.074-1.321-0.67-1.562c-4.28-1.723-8.77-2.72-13.366-2.97v-6.007c0-0.646-0.558-1.205-1.204-1.205h-5.063
	c-0.646,0-1.204,0.559-1.204,1.205v6.177c-4.173,0.596-7.622,2.004-10.265,4.19c-2.962,2.451-4.464,5.635-4.464,9.459
	c0,3.904,1.215,7.15,3.609,9.646c2.233,2.329,5.876,4.312,11.119,6.052v15.47c-1.968-0.085-4.13-0.382-6.446-0.883
	c-2.766-0.599-5.238-1.377-7.342-2.31c-0.362-0.164-0.813-0.131-1.146,0.086c-0.333,0.216-0.55,0.615-0.55,1.011v6.133
	c0,0.456,0.285,0.903,0.7,1.095c1.861,0.858,4.258,1.535,7.122,2.012c2.468,0.412,5.04,0.646,7.662,0.701v7.685
	c0,0.646,0.558,1.204,1.204,1.204h5.063c0.646,0,1.204-0.559,1.204-1.204v-8.185c4.588-0.713,8.266-2.248,10.942-4.57
	c2.961-2.57,4.463-5.873,4.463-9.819C84.181,73.148,83.629,70.944,82.54,69.134 M68.775,69.713c2.366,0.911,4.001,1.812,4.871,2.681
	c0.962,0.962,1.43,2.209,1.43,3.811c0,1.186-0.001,4.646-6.301,5.94V69.713z M56.168,49.201c0.838-1.614,2.563-2.746,5.136-3.375
	v12.259c-1.943-0.831-3.355-1.69-4.206-2.561c-0.874-0.893-1.346-2.032-1.44-3.485C55.586,50.961,55.764,49.979,56.168,49.201"/>
</svg>
