<?xml version="1.0" encoding="utf-8"?>
<!-- Generator: Adobe Illustrator 16.0.0, SVG Export Plug-In . SVG Version: 6.00 Build 0)  -->
<!DOCTYPE svg PUBLIC "-//W3C//DTD SVG 1.1//EN" "http://www.w3.org/Graphics/SVG/1.1/DTD/svg11.dtd">
<svg version="1.1" id="Layer_9" xmlns="http://www.w3.org/2000/svg" xmlns:xlink="http://www.w3.org/1999/xlink" x="0px" y="0px"
	 width="130px" height="130px" viewBox="0 0 130 130" enable-background="new 0 0 130 130" xml:space="preserve">
<g>
	<path fill="#FFFFFF" d="M64.993,1.501C30.106,1.506,1.553,29.986,1.508,64.833c-0.045,34.985,28.273,63.652,62.881,63.666
		c35.318,0.014,63.828-28.089,64.101-62.669C128.762,31.532,101.514,1.843,64.993,1.501"/>
	<path fill="#FFC43E" d="M61.782,39.396c0.113,2.252,1.168,4.816,3.365,6.822c1.945,1.775,4.14,1.724,6.07-0.082
		c2.078-1.938,3.174-4.379,3.328-7.184c0.203-3.577-2.664-6.575-6.26-6.681C64.737,32.168,61.803,35.062,61.782,39.396
		 M52.02,75.786c2.109-0.273,5.012,0.92,6.129-0.494c1.057-1.341,0.297-4.106,0.338-6.245c0-0.067-0.004-0.128,0-0.19
		c0.127-0.988-0.309-1.328-1.291-1.307c-1.701,0.05-3.41-0.011-5.111-0.029c-0.049-0.196-0.1-0.404-0.146-0.605
		c0.021-2.327,0.004-4.657,0.082-6.99c0.033-1.007-0.34-1.293-1.312-1.278c-3.277,0.047-6.557,0.055-9.83,0
		c-1.107-0.024-1.41,0.396-1.373,1.432c0.072,2.266,0.055,4.532,0.072,6.804c-0.064,0.21-0.129,0.42-0.201,0.631
		c-1.633,0.012-3.273,0.069-4.908,0.029c-0.979-0.025-1.516,0.158-1.461,1.324c0.086,1.884,0.076,3.778,0,5.662
		c-0.043,1.059,0.424,1.258,1.342,1.236c1.697-0.039,3.398,0.013,5.1,0.031c0.029,0.243,0.064,0.484,0.098,0.73
		c-0.006,2.268,0.023,4.528-0.027,6.785c-0.029,0.986,0.328,1.337,1.301,1.329c3.326-0.037,6.656-0.05,9.986,0.004
		c1.086,0.02,1.221-0.491,1.199-1.38c-0.049-2.257-0.037-4.521-0.045-6.786C51.979,76.246,52,76.02,52.02,75.786 M9.862,65.26
		C9.534,35.376,34.551,9.785,65.871,10.452c28.975,0.617,53.713,24.446,53.598,55.206c-0.109,29.991-24.76,54.493-54.943,54.421
		C34.184,120.007,9.862,95.617,9.862,65.26"/>
	<path fill="#FFFFFF" d="M86.678,46.036c0.297,0.457,0.795,0.267,1.193,0.357c1.887,0.447,2.43,1.316,2.408,3.64
		c-0.021,1.751-0.859,2.788-2.57,2.876c-1.15,0.055-1.021,0.456-0.922,1.374c0.145,1.364,0.477,2.742,0.213,4.144
		c-0.131,0.687-0.203,1.469-1.176,1.397c-0.85-0.058-0.875-0.754-0.926-1.397c-0.119-1.401-0.045-2.812,0.301-4.137
		c0.328-1.264-0.174-1.381-1.188-1.355c-2.145,0.038-4.299,0.113-6.438-0.025c-1.486-0.093-1.744,0.448-1.736,1.814
		c0.045,12.621,0.053,25.251,0,37.871c-0.008,2.047,0.162,3.454-0.279,5.366c-0.289,1.258-1.064,1.504-2.461,1.548
		c-2.238,0.068-3.268-1.253-3.268-3.898c0-5.167-0.113-12.229-0.066-17.405c0.008-1.135-0.15-1.7-1.508-1.7
		c-1.359-0.004-1.516,0.547-1.508,1.683c0.041,5.931-0.057,11.868,0.068,17.8c0.082,3.638-0.67,3.727-2.076,3.817
		c-0.158,0.01-1.354,0.061-1.523,0.063c-1.016,0.028-2.791-1.32-2.83-3.737c-0.256-14.827-0.025-29.666,0.01-44.504
		c0.008-3.325,2.07-5.249,5.58-5.28c5.811-0.044,11.617-0.004,17.426-0.021c0.607,0,1.479,0.315,1.766-0.238
		c0.389-0.755-0.625-0.948-1.041-1.305c-1.344-1.16-1.77-2.402-1.209-4.186c0.695-2.223,1.256-4.484,2.176-6.632
		c0.236-0.548,0.365-1.367,1.17-1.279c0.602,0.068,0.816,0.7,1.004,1.263c0.705,2.085,1.385,4.176,2,6.294
		c0.633,2.143,0.121,3.68-1.691,4.892C87.229,45.365,86.744,45.5,86.678,46.036"/>
	<path fill="#FFFFFF" d="M61.782,57.348c0.021-4.334,2.955-7.228,6.503-7.122c3.596,0.105,6.463,3.104,6.26,6.679
		c-0.156,2.807-1.25,5.248-3.328,7.183c-1.926,1.809-4.125,1.859-6.07,0.085C62.952,62.163,61.895,59.6,61.782,57.348"/>
	<path fill="#FFFFFF" d="M45.913,60.947h0.945c3.746,0,3.693,0,3.572-3.718c-0.037-1.14-0.494-1.373-1.482-1.341
		c-1.824,0.044-3.658,0.139-5.469-0.024c-1.854-0.169-2.377,0.481-2.273,2.295c0.15,2.782,0.031,2.788,2.82,2.788H45.913z
		 M39.579,62.394c-0.02-2.271,0-4.532-0.074-6.804c-0.037-1.037,0.268-1.453,1.373-1.432c3.275,0.055,6.555,0.047,9.83,0
		c0.975-0.015,1.348,0.27,1.314,1.277c-0.08,2.332-0.059,4.664-0.084,6.992C47.819,62.419,43.7,62.404,39.579,62.394"/>
	<path fill="#FFFFFF" d="M45.895,73.464h-1.32c-3.611,0-3.562,0-3.457,3.646c0.029,1.108,0.428,1.39,1.447,1.355
		c1.883-0.062,3.785-0.149,5.652,0.021c1.875,0.176,2.344-0.496,2.238-2.29c-0.158-2.725-0.037-2.733-2.678-2.733H45.895z
		 M51.959,71.99c0.008,2.267-0.004,4.529,0.049,6.784c0.018,0.892-0.117,1.399-1.203,1.382c-3.33-0.053-6.656-0.04-9.986-0.003
		c-0.969,0.006-1.33-0.342-1.301-1.33c0.055-2.257,0.021-4.518,0.025-6.786c2.008-0.06,4.018-0.129,6.029-0.197h0.697
		C48.168,71.89,50.061,71.942,51.959,71.99"/>
	<path fill="#FFFFFF" d="M38.983,69.668h1.324c3.758,0,3.715,0,3.502-3.799c-0.055-1.015-0.434-1.292-1.365-1.267
		c-1.764,0.045-3.527,0-5.293,0.011c-2.84,0.021-2.529-0.295-2.521,2.52c0.01,2.923-0.385,2.487,2.461,2.532
		C37.721,69.673,38.352,69.668,38.983,69.668 M39.448,71.307c-1.703-0.017-3.402-0.069-5.098-0.03
		c-0.924,0.021-1.387-0.173-1.342-1.23c0.074-1.89,0.084-3.781,0-5.667c-0.057-1.168,0.482-1.35,1.459-1.324
		c1.635,0.039,3.275-0.019,4.908-0.03c2.012,0.442,4.064-0.021,6.084,0.267c0.01,2.608,0.018,5.216,0.021,7.819
		C43.471,71.176,41.456,71.242,39.448,71.307"/>
	<path fill="#FFFFFF" d="M52.354,69.683h0.943c3.889,0,3.855,0,3.645-3.993c-0.045-0.904-0.32-1.211-1.209-1.188
		c-2.074,0.039-4.156,0.102-6.219-0.019c-1.43-0.082-1.822,0.384-1.791,1.793c0.072,3.407,0,3.407,3.309,3.407H52.354z
		 M52.084,63.032c1.703,0.019,3.41,0.08,5.111,0.037c0.984-0.027,1.418,0.311,1.293,1.3c-0.006,0.062,0,0.124,0,0.189
		c-0.043,2.139,0.717,4.904-0.34,6.244c-1.117,1.416-4.021,0.22-6.127,0.495c-1.912-0.027-3.818-0.053-5.73-0.082
		c-0.266-2.661-0.154-5.331-0.061-7.995C48.182,63.102,50.141,63.436,52.084,63.032"/>
	<path fill="#FBDD82" d="M52.084,63.032c-1.943,0.403-3.902,0.069-5.854,0.188c-0.271-0.119-0.561-0.426-0.771,0.07
		c-2.02-0.288-4.072,0.176-6.084-0.267c0.068-0.211,0.135-0.421,0.203-0.631c4.121,0.011,8.242,0.025,12.361,0.034
		C51.985,62.631,52.036,62.835,52.084,63.032"/>
	<path fill="#FFD85C" d="M39.448,71.307c2.008-0.064,4.023-0.131,6.033-0.196c0.031,0.245,0.062,0.491,0.092,0.729
		c-2.012,0.068-4.021,0.138-6.029,0.203C39.51,71.793,39.481,71.551,39.448,71.307"/>
	<path fill="#FFD85C" d="M46.292,71.22c1.912,0.025,3.818,0.051,5.73,0.078C52,71.53,51.977,71.764,51.959,71.99
		c-1.898-0.048-3.791-0.101-5.689-0.15C46.278,71.633,46.286,71.427,46.292,71.22"/>
	<path fill="#FACD18" d="M45.917,60.947h-1.891c-2.787,0-2.67-0.006-2.824-2.788c-0.1-1.813,0.424-2.464,2.277-2.295
		c1.811,0.163,3.645,0.068,5.469,0.024c0.994-0.032,1.447,0.201,1.482,1.341c0.121,3.718,0.174,3.718-3.572,3.718H45.917z"/>
	<path fill="#FACD1B" d="M45.895,73.464h1.883c2.641,0,2.52,0.009,2.678,2.733c0.105,1.794-0.363,2.466-2.238,2.29
		c-1.869-0.171-3.77-0.084-5.65-0.018c-1.021,0.03-1.42-0.251-1.449-1.359c-0.105-3.646-0.154-3.646,3.457-3.646H45.895z"/>
	<path fill="#FACD14" d="M46.292,71.22c-0.006,0.207-0.014,0.413-0.021,0.62h-0.697c-0.029-0.238-0.062-0.484-0.092-0.729
		c-0.006-2.604-0.012-5.211-0.021-7.819c0.211-0.496,0.5-0.189,0.768-0.07C46.137,65.892,46.026,68.555,46.292,71.22"/>
	<path fill="#FACD18" d="M38.983,69.668c-0.631,0-1.262,0.005-1.893-0.003c-2.848-0.045-2.451,0.391-2.461-2.532
		c-0.008-2.814-0.318-2.498,2.521-2.52c1.766-0.011,3.529,0.034,5.293-0.011c0.932-0.025,1.311,0.252,1.365,1.267
		c0.213,3.799,0.25,3.799-3.502,3.799H38.983z"/>
	<path fill="#FBCE1F" d="M52.354,69.683h-1.322c-3.309,0-3.236,0-3.309-3.407c-0.031-1.409,0.361-1.875,1.791-1.793
		c2.062,0.12,4.146,0.058,6.219,0.019c0.889-0.022,1.162,0.284,1.209,1.188c0.211,3.993,0.244,3.993-3.645,3.993H52.354z"/>
</g>
</svg>
