<?xml version="1.0" encoding="utf-8"?>
<!-- Generator: Adobe Illustrator 16.0.0, SVG Export Plug-In . SVG Version: 6.00 Build 0)  -->
<!DOCTYPE svg PUBLIC "-//W3C//DTD SVG 1.0//EN" "http://www.w3.org/TR/2001/REC-SVG-20010904/DTD/svg10.dtd">
<svg version="1.0" id="Layer_3" xmlns="http://www.w3.org/2000/svg" xmlns:xlink="http://www.w3.org/1999/xlink" x="0px" y="0px"
	 width="130px" height="130px" viewBox="0 0 130 130" enable-background="new 0 0 130 130" xml:space="preserve">
<path fill="#FFFFFF" d="M65.713,3.275L65.713,3.275c-7.229,0-14.402,1.265-21.196,3.737s-13.103,6.114-18.64,10.762
	c-5.538,4.646-10.221,10.227-13.835,16.487v0.001c-3.615,6.261-6.106,13.105-7.361,20.225c-1.256,7.12-1.256,14.404,0,21.524
	c1.255,7.119,3.746,13.964,7.361,20.225c3.614,6.262,8.297,11.841,13.835,16.488c5.538,4.646,11.847,8.289,18.64,10.762
	s13.967,3.738,21.196,3.738c7.229,0,14.403-1.266,21.196-3.738c6.794-2.473,13.102-6.115,18.641-10.762
	c5.538-4.647,10.22-10.227,13.835-16.488c3.614-6.261,6.105-13.105,7.361-20.225c1.255-7.12,1.255-14.404,0-21.524
	c-1.256-7.12-3.747-13.964-7.361-20.225v-0.001c-3.615-6.26-8.297-11.84-13.835-16.487c-5.539-4.648-11.847-8.29-18.641-10.762
	C80.116,4.54,72.942,3.275,65.713,3.275"/>
<path fill="none" stroke="#00ACF2" stroke-width="2" stroke-miterlimit="10" d="M65.713,3.275L65.713,3.275
	c-7.229,0-14.402,1.265-21.196,3.737s-13.103,6.114-18.64,10.762c-5.538,4.646-10.221,10.227-13.835,16.487v0.001
	c-3.615,6.261-6.106,13.105-7.361,20.225c-1.256,7.12-1.256,14.404,0,21.524c1.255,7.119,3.746,13.964,7.361,20.225
	c3.614,6.262,8.297,11.841,13.835,16.488c5.538,4.646,11.847,8.289,18.64,10.762s13.967,3.738,21.196,3.738
	c7.229,0,14.403-1.266,21.196-3.738c6.794-2.473,13.102-6.115,18.641-10.762c5.538-4.647,10.22-10.227,13.835-16.488
	c3.614-6.261,6.105-13.105,7.361-20.225c1.255-7.12,1.255-14.404,0-21.524c-1.256-7.12-3.747-13.964-7.361-20.225v-0.001
	c-3.615-6.26-8.297-11.84-13.835-16.487c-5.539-4.648-11.847-8.29-18.641-10.762C80.116,4.54,72.942,3.275,65.713,3.275z"/>
<path fill="#00ACF2" d="M65.713,117.786L65.713,117.786c-29.015,0-52.537-23.521-52.537-52.537
	c0-29.015,23.521-52.536,52.537-52.536s52.537,23.521,52.537,52.536C118.25,94.265,94.729,117.786,65.713,117.786"/>
<path fill="#FFFFFF" d="M65.969,77.936c10.228,0.218,18.558-7.895,18.725-18.239c0.16-10.021-8.031-18.453-18.109-18.632
	c-10.015-0.183-18.522,7.984-18.767,18.015C47.568,69.295,55.674,77.719,65.969,77.936"/>
<path fill="#FFFFFF" d="M75.521,86.039c0.222-0.107,0.443-0.217,0.665-0.326c-0.09-2.02-0.205-4.036-0.261-6.055
	c-0.039-1.34-0.483-1.762-1.766-1.061c-0.67,0.365-1.432,0.604-2.181,0.767c-1.122,0.243-1.249,0.711-0.552,1.568
	C72.804,82.626,74.158,84.336,75.521,86.039"/>
<path fill="#FFFFFF" d="M38.504,55.109c0.554,0.359,0.857,0.583,1.185,0.761c1.354,0.747,2.762,1.407,4.065,2.229
	c1.561,0.985,2.036,0.655,2.243-1.187c0.396-3.504,0.504-3.55-2.914-2.864C41.688,54.329,40.179,54.127,38.504,55.109"/>
<path fill="#FFFFFF" d="M84.688,37.663c-2.918,1.917-5.307,2.937-7.311,4.771c1.386,1.13,2.637,2.15,4.141,3.378
	C82.531,43.212,83.459,40.831,84.688,37.663"/>
<path fill="#FFFFFF" d="M85.366,67.562c-0.831,1.389-1.524,2.544-2.22,3.696c-0.318,0.528-0.627,1.063,0.325,1.244
	c2.27,0.434,4.489,1.296,7.298,1.062C88.797,71.374,87.134,69.526,85.366,67.562"/>
<path fill="#FFFFFF" d="M56.495,86.265c0.646-0.48,0.912-0.607,1.082-0.815c1.092-1.353,2.122-2.762,3.256-4.076
	c0.981-1.134,0.893-1.577-0.641-2.099c-3.653-1.242-3.626-1.346-3.692,2.505C56.476,83.118,56.495,84.456,56.495,86.265"/>
<path fill="#FFFFFF" d="M49.811,72.271c-0.715-1.265-1.409-2.414-2.023-3.602c-0.453-0.878-0.88-0.866-1.484-0.162
	c-1.425,1.664-2.871,3.31-4.83,5.562C44.824,73.511,47.333,73.214,49.811,72.271"/>
<path fill="#FFFFFF" d="M93.657,55.209c-0.039-0.205-0.077-0.413-0.117-0.618c-0.923-0.148-1.841-0.318-2.769-0.439
	c-5.4-0.711-5.357-1.874-3.718,4.604C89.29,57.554,91.475,56.383,93.657,55.209"/>
<path fill="#FFFFFF" d="M55.098,42.34c-2.448-1.387-4.352-3.054-7.261-3.976c1.097,2.756,2.007,5.039,3.004,7.549
	C52.256,44.724,53.485,43.694,55.098,42.34"/>
<path fill="#FFFFFF" d="M66.159,31.034c-1.032,3.189-1.805,5.582-2.66,8.22c1.575,0,2.73-0.032,3.883,0.008
	c0.952,0.036,1.568-0.204,1.197-1.297C67.886,35.894,67.143,33.839,66.159,31.034"/>
<path fill="#FFFFFF" d="M66.213,84.587c0.715-1.396,1.955-2.688,1.248-4.187c-0.29-0.621-2.032-0.596-2.34-0.039
	C64.281,81.862,65.786,83.118,66.213,84.587"/>
<path fill="#FFFFFF" d="M57.72,36.706c-0.187,1.49-0.776,2.981,0.302,4.136c0.192,0.205,1.881-0.377,1.967-0.787
	C60.339,38.394,58.633,37.782,57.72,36.706"/>
<path fill="#FFFFFF" d="M45.627,62.005c-1.481,0.431-2.669,1.224-4.433,2.453c2.083,0.271,3.577,1.002,4.812,0.256
	C46.657,64.32,46.028,62.976,45.627,62.005"/>
<path fill="#FFFFFF" d="M90.46,63.902c-1.378-0.578-2.252-2.373-3.807-1.471c-0.404,0.236-0.556,1.949-0.311,2.089
	C87.774,65.34,89.16,64.636,90.46,63.902"/>
<path fill="#FFFFFF" d="M74.578,36.607c-0.83,1.186-2.635,1.752-2.303,3.38c0.115,0.569,1.738,1.198,2.201,0.722
	C75.539,39.621,74.881,38.094,74.578,36.607"/>
<path fill="#FFFFFF" d="M50.409,78.713c1.428-0.6,3.166-0.759,3.513-2.453c0.071-0.347-1.258-1.467-1.655-1.34
	C50.567,75.464,50.973,77.347,50.409,78.713"/>
<path fill="#FFFFFF" d="M87.584,47.488c-1.524,0.102-3.202-0.357-4.025,1.16c-0.183,0.339,0.74,1.826,1.07,1.797
	C86.287,50.308,86.758,48.691,87.584,47.488"/>
<path fill="#FFFFFF" d="M82.326,79.001c-0.481-1.826-0.511-3.422-1.975-4.147c-0.311-0.155-1.882,1.175-1.789,1.438
	C79.096,77.804,80.67,78.091,82.326,79.001"/>
<path fill="#FFFFFF" d="M44.154,47.188c1.415,1.686,1.984,3.189,3.431,3.415c0.611,0.095,1.476-1.493,1.153-1.994
	C47.916,47.328,46.3,47.631,44.154,47.188"/>
<path fill-rule="evenodd" clip-rule="evenodd" fill="#FFFFFF" d="M65.969,77.936c-10.295-0.217-18.401-8.641-18.152-18.857
	c0.245-10.03,8.752-18.197,18.767-18.015c10.078,0.18,18.27,8.611,18.109,18.632C84.526,70.041,76.196,78.153,65.969,77.936"/>
<path fill-rule="evenodd" clip-rule="evenodd" fill="#FFFFFF" d="M75.521,86.039c-1.363-1.703-2.718-3.413-4.094-5.106
	c-0.697-0.857-0.57-1.325,0.552-1.568c0.749-0.162,1.511-0.401,2.181-0.767c1.282-0.701,1.727-0.279,1.766,1.061
	c0.056,2.019,0.171,4.035,0.261,6.055C75.965,85.822,75.743,85.932,75.521,86.039"/>
<path fill-rule="evenodd" clip-rule="evenodd" fill="#FFFFFF" d="M30.073,55.667c1.674-0.982,11.613-1.338,13.01-1.618
	c3.418-0.687,3.31-0.641,2.915,2.864c-0.208,1.842-0.683,2.172-2.244,1.187c-1.303-0.822-4.766-0.426-6.121-1.172
	C37.306,56.749,30.626,56.025,30.073,55.667"/>
<path fill-rule="evenodd" clip-rule="evenodd" fill="#FFFFFF" d="M88.788,32.735c-1.229,3.167-6.257,10.478-7.27,13.077
	c-1.504-1.228-2.755-2.248-4.141-3.378C79.382,40.599,85.871,34.652,88.788,32.735"/>
<path fill-rule="evenodd" clip-rule="evenodd" fill="#FFFFFF" d="M85.366,67.562c1.768,1.964,5.985,5.316,7.958,7.507
	c-2.809,0.234-7.583-2.133-9.853-2.566c-0.952-0.181-0.644-0.716-0.325-1.244C83.842,70.106,84.535,68.951,85.366,67.562"/>
<path fill-rule="evenodd" clip-rule="evenodd" fill="#FFFFFF" d="M56.495,86.265c0-1.809-0.02-3.146,0.005-4.485
	c0.065-3.851,0.039-3.747,3.692-2.505c1.534,0.521,1.623,0.965,0.641,2.099c-1.134,1.314-2.164,2.724-3.256,4.076
	C57.407,85.657,57.141,85.784,56.495,86.265"/>
<path fill-rule="evenodd" clip-rule="evenodd" fill="#FFFFFF" d="M49.811,72.271c-2.478,0.943-7.82,2.997-11.169,3.556
	c1.958-2.253,6.238-5.655,7.663-7.319c0.604-0.704,1.031-0.716,1.484,0.162C48.402,69.856,49.096,71.006,49.811,72.271"/>
<path fill-rule="evenodd" clip-rule="evenodd" fill="#FFFFFF" d="M101.136,52.895c-2.184,1.173-11.846,4.66-14.082,5.861
	c-1.64-6.478-1.902-6.068,3.498-5.358C91.479,53.52,101.096,52.689,101.136,52.895"/>
<path fill-rule="evenodd" clip-rule="evenodd" fill="#FFFFFF" d="M55.098,42.34c-1.613,1.354-2.841,2.383-4.256,3.573
	c-0.998-2.511-7.828-11.431-8.924-14.187C44.826,32.649,52.65,40.953,55.098,42.34"/>
<path fill-rule="evenodd" clip-rule="evenodd" fill="#FFFFFF" d="M66.159,22.151c0.983,2.804,1.727,13.743,2.42,15.814
	c0.371,1.093-0.245,1.332-1.197,1.298c-1.152-0.042-2.308-0.01-3.883-0.01C64.354,36.616,65.127,25.34,66.159,22.151"/>
<path fill-rule="evenodd" clip-rule="evenodd" fill="#FFFFFF" d="M66.213,84.587c-0.427-1.469-1.932-2.725-1.092-4.226
	c0.308-0.557,2.05-0.582,2.34,0.039C68.168,81.898,66.928,83.19,66.213,84.587"/>
<path fill-rule="evenodd" clip-rule="evenodd" fill="#FFFFFF" d="M57.72,36.706c0.914,1.076,2.62,1.688,2.269,3.349
	c-0.086,0.41-1.774,0.992-1.967,0.787C56.943,39.688,57.533,38.196,57.72,36.706"/>
<path fill-rule="evenodd" clip-rule="evenodd" fill="#FFFFFF" d="M45.627,62.005c0.401,0.971,1.03,2.315,0.378,2.709
	c-1.235,0.746-2.729,0.015-4.812-0.256C42.958,63.229,44.146,62.436,45.627,62.005"/>
<path fill-rule="evenodd" clip-rule="evenodd" fill="#FFFFFF" d="M90.46,63.902c-1.3,0.734-2.686,1.438-4.117,0.618
	c-0.245-0.14-0.094-1.853,0.311-2.089C88.208,61.529,89.082,63.324,90.46,63.902"/>
<path fill-rule="evenodd" clip-rule="evenodd" fill="#FFFFFF" d="M74.578,36.607c0.303,1.487,0.961,3.014-0.102,4.102
	c-0.463,0.477-2.086-0.152-2.201-0.722C71.943,38.359,73.748,37.793,74.578,36.607"/>
<path fill-rule="evenodd" clip-rule="evenodd" fill="#FFFFFF" d="M50.409,78.713c0.563-1.366,0.158-3.249,1.857-3.793
	c0.397-0.127,1.727,0.993,1.655,1.34C53.575,77.954,51.837,78.113,50.409,78.713"/>
<path fill-rule="evenodd" clip-rule="evenodd" fill="#FFFFFF" d="M87.584,47.488c-0.826,1.204-1.297,2.82-2.955,2.958
	c-0.33,0.029-1.253-1.458-1.07-1.797C84.382,47.131,86.06,47.589,87.584,47.488"/>
<path fill-rule="evenodd" clip-rule="evenodd" fill="#FFFFFF" d="M82.326,79.001c-1.656-0.91-3.23-1.197-3.764-2.71
	c-0.093-0.263,1.479-1.593,1.789-1.438C81.815,75.579,81.845,77.175,82.326,79.001"/>
<path fill-rule="evenodd" clip-rule="evenodd" fill="#FFFFFF" d="M44.154,47.188c2.146,0.443,3.762,0.14,4.584,1.421
	c0.323,0.5-0.542,2.088-1.153,1.994C46.139,50.378,45.569,48.874,44.154,47.188"/>
<path fill-rule="evenodd" clip-rule="evenodd" fill="#00ACF2" d="M71.759,46.838c-0.872,3.463-1.679,6.945-2.645,10.382
	c-0.506,1.802-0.34,2.837,1.856,2.586c1.952-0.223,2.427,0.7,1.82,2.419c-0.062,0.182-0.128,0.365-0.176,0.553
	c-2.143,8.504-2.14,8.465-10.838,7.801c-1.639-0.124-1.783-0.597-1.057-1.896c0.797-1.428,1.485-2.915,2.243-4.423
	c-1.104-0.937-2.412-0.079-3.691-0.982c3.992-5.55,7.985-11.099,11.976-16.646C71.42,46.7,71.591,46.77,71.759,46.838"/>
<path fill="#FFFFFF" d="M66.252,94.245c-2.704,0-5.408-0.005-8.11,0.002c-1.161,0.003-1.708,0.442-1.707,1.331
	c0.004,0.888,0.56,1.337,1.716,1.338c5.441,0.005,10.883,0.005,16.324-0.001c1.106-0.002,1.732-0.505,1.729-1.349
	c-0.004-0.857-0.595-1.316-1.738-1.319C71.728,94.239,68.989,94.244,66.252,94.245"/>
<path fill="#FFFFFF" d="M66.262,87.367c-2.703,0-5.406-0.004-8.109,0.003c-1.169,0.003-1.719,0.436-1.719,1.316
	c0,0.881,0.569,1.347,1.711,1.349c5.442,0.006,10.883,0.007,16.323,0.002c1.107-0.001,1.735-0.503,1.738-1.345
	c0.003-0.86-0.584-1.32-1.729-1.324C71.737,87.362,68.999,87.365,66.262,87.367"/>
<path fill="#FFFFFF" d="M66.36,93.467c2.702,0,5.406,0.006,8.108-0.003c1.156-0.003,1.737-0.459,1.736-1.314
	c0-0.854-0.607-1.354-1.731-1.356c-5.44-0.009-10.881-0.009-16.321-0.001c-1.154,0.002-1.711,0.463-1.715,1.349
	c-0.005,0.892,0.53,1.32,1.711,1.324C60.886,93.475,63.623,93.468,66.36,93.467"/>
<path fill="#FFFFFF" d="M57.008,97.779c1.03,1.902,2.375,2.98,4.424,3.001c1.487,0.015,2.978,0.007,4.467,0.006
	c1.802-0.001,3.604,0.033,5.403-0.016c2.001-0.055,3.755-1.365,4.091-2.991H57.008z"/>
<path fill-rule="evenodd" clip-rule="evenodd" fill="#FFFFFF" d="M66.252,94.245c2.737,0,5.476-0.006,8.215,0.002
	c1.144,0.002,1.734,0.462,1.738,1.319c0.003,0.844-0.623,1.347-1.729,1.349c-5.441,0.006-10.883,0.006-16.324,0.001
	c-1.156-0.001-1.712-0.45-1.716-1.338c-0.001-0.889,0.546-1.328,1.707-1.331C60.844,94.24,63.548,94.246,66.252,94.245"/>
<path fill-rule="evenodd" clip-rule="evenodd" fill="#FFFFFF" d="M66.262,87.367c2.737-0.001,5.476-0.005,8.214,0.001
	c1.146,0.004,1.732,0.464,1.729,1.324c-0.003,0.842-0.631,1.344-1.738,1.345c-5.439,0.005-10.881,0.004-16.323-0.002
	c-1.142-0.002-1.711-0.468-1.711-1.349c0-0.881,0.55-1.313,1.719-1.316C60.856,87.363,63.559,87.368,66.262,87.367"/>
<path fill-rule="evenodd" clip-rule="evenodd" fill="#FFFFFF" d="M66.36,93.467c-2.737,0.001-5.475,0.008-8.212-0.002
	c-1.182-0.004-1.716-0.433-1.711-1.324c0.004-0.886,0.561-1.347,1.715-1.349c5.44-0.008,10.881-0.008,16.321,0.001
	c1.124,0.003,1.731,0.502,1.731,1.356c0.001,0.855-0.58,1.312-1.736,1.314C71.767,93.473,69.062,93.467,66.36,93.467"/>
<path fill-rule="evenodd" clip-rule="evenodd" fill="#FFFFFF" d="M57.008,97.779h18.385c-0.336,1.626-2.09,2.937-4.091,2.991
	c-1.8,0.049-3.602,0.015-5.403,0.016c-1.489,0.001-2.979,0.009-4.467-0.006C59.383,100.76,58.038,99.682,57.008,97.779"/>
</svg>
