<?xml version="1.0" encoding="utf-8"?>
<!-- Generator: Adobe Illustrator 16.0.0, SVG Export Plug-In . SVG Version: 6.00 Build 0)  -->
<!DOCTYPE svg PUBLIC "-//W3C//DTD SVG 1.0//EN" "http://www.w3.org/TR/2001/REC-SVG-20010904/DTD/svg10.dtd">
<svg version="1.0" id="Layer_11" xmlns="http://www.w3.org/2000/svg" xmlns:xlink="http://www.w3.org/1999/xlink" x="0px" y="0px"
	 width="130px" height="130px" viewBox="0 0 130 130" enable-background="new 0 0 130 130" xml:space="preserve">
<path fill="#FFFFFF" d="M65.118,3.122L65.118,3.122c-7.275,0-14.494,1.273-21.33,3.762c-6.835,2.488-13.185,6.152-18.757,10.829
	c-5.572,4.676-10.284,10.291-13.921,16.591c-3.638,6.301-6.145,13.189-7.408,20.354c-1.263,7.165-1.263,14.495,0,21.659
	c1.263,7.165,3.77,14.053,7.408,20.354c3.638,6.299,8.349,11.915,13.921,16.591c5.572,4.677,11.922,8.342,18.757,10.83
	c6.836,2.487,14.055,3.761,21.33,3.761c7.276,0,14.494-1.273,21.33-3.761c6.837-2.488,13.185-6.153,18.758-10.83
	c5.572-4.676,10.284-10.292,13.923-16.591c3.638-6.301,6.145-13.188,7.406-20.354c1.265-7.164,1.265-14.494,0-21.659
	c-1.262-7.165-3.769-14.053-7.406-20.354c-3.639-6.3-8.351-11.915-13.923-16.591c-5.573-4.677-11.921-8.341-18.758-10.829
	C79.612,4.395,72.395,3.122,65.118,3.122"/>
<path fill="none" stroke="#88A80D" stroke-width="2" stroke-miterlimit="10" d="M65.118,3.122L65.118,3.122
	c-7.275,0-14.494,1.273-21.33,3.762c-6.835,2.488-13.185,6.152-18.757,10.829c-5.572,4.676-10.284,10.291-13.921,16.591
	c-3.638,6.301-6.145,13.189-7.408,20.354c-1.263,7.165-1.263,14.495,0,21.659c1.263,7.165,3.77,14.053,7.408,20.354
	c3.638,6.299,8.349,11.915,13.921,16.591c5.572,4.677,11.922,8.342,18.757,10.83c6.836,2.487,14.055,3.761,21.33,3.761
	c7.276,0,14.494-1.273,21.33-3.761c6.837-2.488,13.185-6.153,18.758-10.83c5.572-4.676,10.284-10.292,13.923-16.591
	c3.638-6.301,6.145-13.188,7.406-20.354c1.265-7.164,1.265-14.494,0-21.659c-1.262-7.165-3.769-14.053-7.406-20.354
	c-3.639-6.3-8.351-11.915-13.923-16.591c-5.573-4.677-11.921-8.341-18.758-10.829C79.612,4.395,72.395,3.122,65.118,3.122z"/>
<path fill="#88A80D" d="M65.118,112.26L65.118,112.26c-25.833,0-46.773-20.94-46.773-46.772v-0.001
	c0-25.832,20.941-46.772,46.773-46.772c25.833,0,46.773,20.941,46.773,46.772v0.001C111.892,91.319,90.951,112.26,65.118,112.26"/>
<path fill="none" stroke="#88A80D" stroke-width="2" stroke-linecap="round" stroke-linejoin="round" stroke-miterlimit="10" d="
	M65.118,112.26L65.118,112.26c-25.833,0-46.773-20.94-46.773-46.772v-0.001c0-25.832,20.941-46.772,46.773-46.772
	c25.833,0,46.773,20.941,46.773,46.772v0.001C111.892,91.319,90.951,112.26,65.118,112.26z"/>
<path fill="#FFFFFF" d="M62.219,99.243c-8.455-0.804-16.281-4.712-22.035-11.003c-5.792-6.333-8.982-14.551-8.982-23.14
	c0-13.81,8.218-26.212,20.936-31.596l1.874,4.426c-10.937,4.63-18.004,15.295-18.004,27.17c0,7.384,2.742,14.45,7.723,19.896
	c4.949,5.409,11.675,8.771,18.944,9.462L62.219,99.243z"/>
<polygon fill="#FFFFFF" points="49.445,30.019 62.446,33.35 53.063,42.944 "/>
<path fill="#FFFFFF" d="M78.873,96.697l-1.874-4.427C87.936,87.64,95.002,76.975,95.002,65.1c0-7.384-2.742-14.45-7.723-19.895
	c-4.947-5.411-11.676-8.771-18.942-9.463l0.456-4.785c8.455,0.804,16.281,4.712,22.034,11.003c5.792,6.333,8.982,14.552,8.982,23.14
	C99.81,78.909,91.591,91.312,78.873,96.697"/>
<polygon fill="#FFFFFF" points="81.566,100.182 68.564,96.851 77.949,87.255 "/>
</svg>
