<?xml version="1.0" encoding="utf-8"?>
<!-- Generator: Adobe Illustrator 16.0.0, SVG Export Plug-In . SVG Version: 6.00 Build 0)  -->
<!DOCTYPE svg PUBLIC "-//W3C//DTD SVG 1.0//EN" "http://www.w3.org/TR/2001/REC-SVG-20010904/DTD/svg10.dtd">
<svg version="1.0" id="Layer_10" xmlns="http://www.w3.org/2000/svg" xmlns:xlink="http://www.w3.org/1999/xlink" x="0px" y="0px"
	 width="130px" height="130px" viewBox="0 0 130 130" enable-background="new 0 0 130 130" xml:space="preserve">
<path fill="#FFFFFF" d="M64.669,3.777L64.669,3.777c-7.18,0-14.305,1.255-21.053,3.711c-6.747,2.456-13.013,6.074-18.513,10.688
	c-5.5,4.617-10.151,10.158-13.741,16.377c-3.59,6.217-6.064,13.017-7.312,20.088c-1.247,7.072-1.247,14.306,0,21.378
	c1.248,7.069,3.722,13.868,7.312,20.087s8.241,11.761,13.741,16.378c5.5,4.614,11.766,8.232,18.513,10.688
	c6.749,2.456,13.874,3.713,21.053,3.713c7.181,0,14.306-1.257,21.053-3.713c6.747-2.455,13.014-6.073,18.514-10.688
	c5.5-4.617,10.15-10.159,13.741-16.378c3.589-6.219,6.064-13.018,7.312-20.087c1.247-7.072,1.247-14.306,0-21.378
	c-1.248-7.072-3.724-13.871-7.312-20.088c-3.591-6.22-8.241-11.76-13.741-16.377c-5.5-4.614-11.767-8.232-18.514-10.688
	S71.85,3.777,64.669,3.777"/>
<path fill="none" stroke="#88A80D" stroke-width="2" stroke-miterlimit="10" d="M64.669,3.777L64.669,3.777
	c-7.18,0-14.305,1.255-21.053,3.711c-6.747,2.456-13.013,6.074-18.513,10.688c-5.5,4.617-10.151,10.158-13.741,16.377
	c-3.59,6.217-6.064,13.017-7.312,20.088c-1.247,7.072-1.247,14.306,0,21.378c1.248,7.069,3.722,13.868,7.312,20.087
	s8.241,11.761,13.741,16.378c5.5,4.614,11.766,8.232,18.513,10.688c6.749,2.456,13.874,3.713,21.053,3.713
	c7.181,0,14.306-1.257,21.053-3.713c6.747-2.455,13.014-6.073,18.514-10.688c5.5-4.617,10.15-10.159,13.741-16.378
	c3.589-6.219,6.064-13.018,7.312-20.087c1.247-7.072,1.247-14.306,0-21.378c-1.248-7.072-3.724-13.871-7.312-20.088
	c-3.591-6.22-8.241-11.76-13.741-16.377c-5.5-4.614-11.767-8.232-18.514-10.688S71.85,3.777,64.669,3.777z"/>
<path fill="#7F47DD" d="M64.669,111.497L64.669,111.497c-25.496,0-46.166-20.67-46.166-46.166c0-25.497,20.669-46.167,46.166-46.167
	c25.495,0,46.165,20.669,46.165,46.167C110.834,90.827,90.164,111.497,64.669,111.497"/>
<polygon fill="#FFFFFF" points="85.524,56.567 65.05,36.094 44.578,56.567 55.744,56.567 55.744,91.728 74.357,91.728 
	74.357,56.567 "/>
</svg>
