<?xml version="1.0" encoding="utf-8"?>
<!-- Generator: Adobe Illustrator 16.0.0, SVG Export Plug-In . SVG Version: 6.00 Build 0)  -->
<!DOCTYPE svg PUBLIC "-//W3C//DTD SVG 1.0//EN" "http://www.w3.org/TR/2001/REC-SVG-20010904/DTD/svg10.dtd">
<svg version="1.0" id="Layer_6" xmlns="http://www.w3.org/2000/svg" xmlns:xlink="http://www.w3.org/1999/xlink" x="0px" y="0px"
	 width="130px" height="130px" viewBox="0 0 130 130" enable-background="new 0 0 130 130" xml:space="preserve">
<g>
	<path fill="#FFFFFF" d="M64.928,3.108L64.928,3.108c-7.27,0-14.482,1.271-21.314,3.759c-6.83,2.485-13.173,6.147-18.742,10.82
		c-5.569,4.672-10.276,10.283-13.911,16.579c-3.635,6.295-6.141,13.178-7.403,20.336c-1.262,7.159-1.262,14.483,0,21.643
		c1.262,7.158,3.768,14.041,7.403,20.337c3.634,6.294,8.342,11.905,13.911,16.578s11.913,8.335,18.742,10.821
		c6.832,2.485,14.044,3.758,21.314,3.758c7.269,0,14.482-1.272,21.313-3.758c6.83-2.486,13.174-6.148,18.742-10.821
		c5.569-4.673,10.276-10.284,13.911-16.578c3.635-6.296,6.141-13.179,7.403-20.337c1.262-7.16,1.262-14.484,0-21.643
		c-1.263-7.158-3.769-14.042-7.403-20.336c-3.635-6.295-8.342-11.906-13.911-16.579c-5.568-4.673-11.912-8.335-18.742-10.82
		C79.41,4.38,72.197,3.108,64.928,3.108"/>
	<path fill="none" stroke="#00ACF2" stroke-width="2" stroke-miterlimit="10" d="M64.928,3.108L64.928,3.108
		c-7.27,0-14.482,1.271-21.314,3.759c-6.83,2.485-13.173,6.147-18.742,10.82c-5.569,4.672-10.276,10.283-13.911,16.579
		c-3.635,6.295-6.141,13.178-7.403,20.336c-1.262,7.159-1.262,14.483,0,21.643c1.262,7.158,3.768,14.041,7.403,20.337
		c3.634,6.294,8.342,11.905,13.911,16.578s11.913,8.335,18.742,10.821c6.832,2.485,14.044,3.758,21.314,3.758
		c7.269,0,14.482-1.272,21.313-3.758c6.83-2.486,13.174-6.148,18.742-10.821c5.569-4.673,10.276-10.284,13.911-16.578
		c3.635-6.296,6.141-13.179,7.403-20.337c1.262-7.16,1.262-14.484,0-21.643c-1.263-7.158-3.769-14.042-7.403-20.336
		c-3.635-6.295-8.342-11.906-13.911-16.579c-5.568-4.673-11.912-8.335-18.742-10.82C79.41,4.38,72.197,3.108,64.928,3.108z"/>
	<path fill="#00ACF2" d="M95.335,57.37h-1.952c-0.98-6.505-6.595-11.492-13.374-11.492h-1.707c-0.726,0-1.437,0.059-2.132,0.169
		c-1.138-7.358-7.497-12.992-15.174-12.992H49.564c-8.481,0-15.358,6.875-15.358,15.356v8.798c0,0.07,0.006,0.139,0.006,0.209
		c-6.958,0.558-12.432,6.378-12.432,13.48c0,7.47,6.056,13.527,13.528,13.527h60.027c7.472,0,13.528-6.058,13.528-13.527
		C108.863,63.427,102.807,57.37,95.335,57.37"/>
	<path fill="#FFFFFF" d="M57.363,52.112c-1.57-0.776-3.301-1.169-5.146-1.169c-1.77,0-3.338,0.386-4.662,1.148
		c-1.334,0.769-2.368,1.889-3.072,3.33c-0.692,1.417-1.042,3.088-1.042,4.964c0,2.982,0.729,5.322,2.17,6.95
		c1.456,1.646,3.554,2.48,6.236,2.48c1.783,0,3.403-0.271,4.816-0.805c0.192-0.073,0.319-0.257,0.319-0.462v-2.439
		c0-0.157-0.074-0.304-0.201-0.398c-0.126-0.092-0.288-0.119-0.438-0.074c-0.725,0.224-1.436,0.411-2.111,0.555
		c-0.652,0.139-1.339,0.209-2.039,0.209c-1.566,0-2.72-0.478-3.529-1.462c-0.822-0.999-1.238-2.523-1.238-4.53
		c0-1.914,0.436-3.422,1.294-4.485c0.846-1.045,1.981-1.554,3.473-1.554c0.666,0,1.309,0.098,1.912,0.291
		c0.63,0.204,1.238,0.441,1.802,0.709c0.121,0.056,0.261,0.062,0.386,0.015c0.125-0.047,0.227-0.143,0.279-0.267l1.023-2.368
		C57.703,52.509,57.598,52.229,57.363,52.112"/>
	<path fill="#FFFFFF" d="M67.568,50.918c-2.757,0-4.92,0.831-6.426,2.469c-1.498,1.626-2.256,3.965-2.256,6.951
		c0,2.984,0.754,5.332,2.241,6.978c1.499,1.659,3.658,2.501,6.417,2.501c2.728,0,4.875-0.848,6.382-2.52
		c1.493-1.657,2.251-3.99,2.251-6.935c0-2.953-0.755-5.286-2.245-6.936C72.43,51.762,70.288,50.918,67.568,50.918 M70.981,64.947
		c-0.77,0.978-1.893,1.453-3.437,1.453c-1.553,0-2.683-0.48-3.455-1.47c-0.792-1.012-1.192-2.549-1.192-4.569
		c0-2.011,0.402-3.541,1.196-4.549c0.778-0.986,1.914-1.466,3.474-1.466c1.542,0,2.662,0.479,3.423,1.462
		c0.78,1.009,1.176,2.541,1.176,4.553C72.167,62.403,71.769,63.947,70.981,64.947"/>
	<path fill="#FFFFFF" d="M84.623,75.27h-3.666l0.952-0.922c0.817-0.77,1.39-1.368,1.749-1.829c0.365-0.472,0.644-0.94,0.823-1.394
		c0.188-0.469,0.282-0.969,0.282-1.487c0-0.979-0.345-1.772-1.023-2.36c-0.659-0.571-1.53-0.86-2.592-0.86
		c-0.657,0-1.287,0.111-1.874,0.33c-0.581,0.218-1.185,0.586-1.79,1.098c-0.206,0.175-0.233,0.481-0.063,0.69l0.882,1.076
		c0.171,0.208,0.476,0.241,0.688,0.075c0.437-0.344,0.818-0.581,1.135-0.706c0.305-0.119,0.622-0.18,0.946-0.18
		c0.356,0,0.618,0.083,0.799,0.258c0.177,0.167,0.262,0.404,0.262,0.725c0,0.269-0.047,0.522-0.139,0.755
		c-0.1,0.248-0.263,0.522-0.485,0.816c-0.24,0.312-0.743,0.863-1.494,1.633l-2.616,2.629c-0.092,0.093-0.144,0.218-0.144,0.349
		v1.234c0,0.273,0.221,0.495,0.494,0.495h6.875c0.273,0,0.495-0.222,0.495-0.495v-1.436C85.118,75.491,84.896,75.27,84.623,75.27"/>
</g>
</svg>
