<?xml version="1.0" encoding="utf-8"?>
<!-- Generator: Adobe Illustrator 16.0.0, SVG Export Plug-In . SVG Version: 6.00 Build 0)  -->
<!DOCTYPE svg PUBLIC "-//W3C//DTD SVG 1.1//EN" "http://www.w3.org/Graphics/SVG/1.1/DTD/svg11.dtd">
<svg version="1.1" id="Layer_9" xmlns="http://www.w3.org/2000/svg" xmlns:xlink="http://www.w3.org/1999/xlink" x="0px" y="0px"
	 width="130px" height="130px" viewBox="0 0 130 130" enable-background="new 0 0 130 130" xml:space="preserve">
<g>
	<path fill="#FFFFFF" d="M65,2.063L65,2.063c-7.341,0-14.626,1.285-21.525,3.796c-6.9,2.51-13.306,6.21-18.93,10.928
		c-5.624,4.719-10.379,10.386-14.049,16.744C6.825,39.89,4.295,46.841,3.02,54.072c-1.274,7.229-1.274,14.626,0,21.856
		c1.275,7.231,3.805,14.183,7.476,20.541c3.67,6.357,8.425,12.024,14.049,16.743c5.624,4.72,12.03,8.419,18.93,10.929
		c6.898,2.511,14.184,3.796,21.525,3.796c7.342,0,14.628-1.285,21.525-3.796c6.898-2.51,13.306-6.209,18.93-10.929
		c5.624-4.719,10.379-10.386,14.051-16.743c3.671-6.358,6.2-13.31,7.475-20.541c1.275-7.229,1.275-14.627,0-21.856
		c-1.274-7.231-3.804-14.182-7.475-20.541c-3.672-6.358-8.427-12.025-14.051-16.744c-5.624-4.718-12.031-8.418-18.93-10.928
		C79.628,3.348,72.342,2.063,65,2.063"/>
	<path fill="none" stroke="#88A80D" stroke-width="2" stroke-linecap="round" stroke-linejoin="round" stroke-miterlimit="10" d="
		M65,2.063L65,2.063c-7.341,0-14.626,1.285-21.525,3.796c-6.9,2.51-13.306,6.21-18.93,10.928
		c-5.624,4.719-10.379,10.386-14.049,16.744C6.825,39.89,4.295,46.841,3.02,54.072c-1.274,7.229-1.274,14.626,0,21.856
		c1.275,7.231,3.805,14.183,7.476,20.541c3.67,6.357,8.425,12.024,14.049,16.743c5.624,4.72,12.03,8.419,18.93,10.929
		c6.898,2.511,14.184,3.796,21.525,3.796c7.342,0,14.628-1.285,21.525-3.796c6.898-2.51,13.306-6.209,18.93-10.929
		c5.624-4.719,10.379-10.386,14.051-16.743c3.671-6.358,6.2-13.31,7.475-20.541c1.275-7.229,1.275-14.627,0-21.856
		c-1.274-7.231-3.804-14.182-7.475-20.541c-3.672-6.358-8.427-12.025-14.051-16.744c-5.624-4.718-12.031-8.418-18.93-10.928
		C79.628,3.348,72.342,2.063,65,2.063z"/>
	<path fill="#A81D3F" d="M65,118.352L65,118.352c-29.465,0-53.353-23.886-53.353-53.352v0c0-29.465,23.887-53.352,53.353-53.352
		c29.466,0,53.353,23.887,53.353,53.352v0C118.353,94.466,94.466,118.352,65,118.352"/>
	<path fill="#FFFFFF" d="M65.965,77.291c11.82-0.028,21.317-9.487,21.345-21.262c0.029-11.925-9.587-21.571-21.484-21.549
		c-11.868,0.021-21.373,9.693-21.31,21.681C44.577,67.943,54.093,77.318,65.965,77.291"/>
	<path fill="#FFFFFF" d="M33.5,50.876c2.874,1.535,5.407,2.889,7.983,4.266c2.071-6.364,2.067-6.382-3.987-5.321
		C36.317,50.027,35.021,49.751,33.5,50.876"/>
	<path fill="#FFFFFF" d="M97.859,50.836c-0.057-0.228-0.114-0.454-0.171-0.682c-2.497-0.374-4.998-0.721-7.489-1.134
		c-1.378-0.229-1.543,0.366-1.265,1.516c0.24,0.979,0.391,1.988,0.494,2.993c0.128,1.25,0.655,1.586,1.778,0.962
		C93.418,53.263,95.641,52.053,97.859,50.836"/>
	<path fill="#FFFFFF" d="M52.928,35.9c-2.903-1.731-5.411-3.228-8.704-5.193c1.243,3.165,2.122,5.435,3.034,7.692
		c0.199,0.494,0.52,0.94,0.868,1.556C49.711,38.618,51.144,37.408,52.928,35.9"/>
	<path fill="#FFFFFF" d="M65.798,23.149c-0.615,1.628-1.073,2.735-1.457,3.866c-1.953,5.746-1.946,5.749,4.453,5.13
		C68.243,29.197,67.125,26.472,65.798,23.149"/>
	<path fill="#FFFFFF" d="M86.884,31.596c-0.22-0.143-0.439-0.287-0.658-0.431c-2.452,1.515-4.9,3.029-7.553,4.667
		c1.461,1.273,2.654,2.262,3.786,3.317c0.854,0.795,1.284,0.552,1.657-0.44C85.011,36.328,85.958,33.966,86.884,31.596"/>
	<path fill="#FFFFFF" d="M60.84,79.607c-2.26-0.749-4.022-1.333-6.034-1.998c-0.099,3.216-0.474,6.143,0.106,9.492
		C56.96,84.513,58.741,82.264,60.84,79.607"/>
	<path fill="#FFFFFF" d="M43.586,65.354c-2.113,2.413-4.066,4.639-6.017,6.867c3.227-0.126,6.241-0.26,9.2-1.549
		C45.666,68.83,44.704,67.224,43.586,65.354"/>
	<path fill="#FFFFFF" d="M76.528,86.546c0.233-0.101,0.465-0.201,0.696-0.302c0-0.999,0.012-1.998-0.002-2.997
		c-0.092-6.077-0.094-6.077-5.666-3.831c-0.075,0.031-0.109,0.166-0.345,0.548C72.936,82.097,74.733,84.322,76.528,86.546"/>
	<path fill="#FFFFFF" d="M94.492,72.532c-1.26-1.467-1.976-2.31-2.7-3.143c-3.945-4.536-3.946-4.536-6.609,1.35
		C87.97,71.629,90.801,72.121,94.492,72.532"/>
	<path fill="#FFFFFF" d="M84.401,78.373c-0.496-1.722-0.414-3.734-2.085-4.667c-0.333-0.188-2.25,1.303-2.149,1.688
		C80.664,77.326,82.851,77.388,84.401,78.373"/>
	<path fill="#FFFFFF" d="M47.455,78.538c1.369-1.167,3.724-1.01,4.068-3.178c0.072-0.446-1.52-1.74-1.893-1.583
		C47.672,74.61,47.933,76.725,47.455,78.538"/>
	<path fill="#FFFFFF" d="M94.752,61.195c-2.058-0.959-3.235-2.687-5.093-2.012c-0.606,0.221-0.957,2.235-0.278,2.631
		C90.936,62.721,92.583,61.8,94.752,61.195"/>
	<path fill="#FFFFFF" d="M36.945,61.323c2.173,0.753,3.854,1.5,5.498,0.481c0.299-0.186,0.072-2.215-0.349-2.401
		C40.027,58.489,39.004,60.575,36.945,61.323"/>
	<path fill="#FFFFFF" d="M90.858,42.25c-1.845-0.268-3.789-0.669-4.831,0.747c-0.423,0.574,0.544,2.028,1.749,2.745
		C88.804,44.576,89.831,43.414,90.858,42.25"/>
	<path fill="#FFFFFF" d="M55.885,29.367c-0.301,1.679-1.017,3.456,0.213,4.712c0.524,0.537,2.414-0.18,2.545-0.86
		C59.01,31.341,56.995,30.632,55.885,29.367"/>
	<path fill="#FFFFFF" d="M65.873,84.977c0.622-1.537,2.191-2.924,1.363-4.756c-0.17-0.375-2.104-0.545-2.428-0.151
		C63.365,81.823,65.386,83.194,65.873,84.977"/>
	<path fill="#FFFFFF" d="M40.218,41.967c1.648,1.433,2.205,3.418,3.882,3.61c0.849,0.098,1.417-1.615,1.638-2.841
		C44.058,42.321,42.607,41.727,40.218,41.967"/>
	<path fill="#FFFFFF" d="M75.747,28.765c-3.801,4.397-3.801,4.397-0.139,5.413C76.035,32.567,75.961,30.966,75.747,28.765"/>
	<path fill-rule="evenodd" clip-rule="evenodd" fill="#FFFFFF" d="M65.965,77.291c-11.872,0.027-21.388-9.348-21.449-21.13
		c-0.063-11.988,9.441-21.66,21.31-21.681c11.897-0.022,21.514,9.624,21.484,21.549C87.282,67.804,77.785,77.263,65.965,77.291"/>
	<path fill-rule="evenodd" clip-rule="evenodd" fill="#FFFFFF" d="M33.5,50.876c1.521-1.125,2.817-0.85,3.997-1.056
		c6.054-1.061,6.058-1.042,3.987,5.321C38.907,53.766,36.374,52.412,33.5,50.876"/>
	<path fill-rule="evenodd" clip-rule="evenodd" fill="#FFFFFF" d="M97.859,50.836c-2.219,1.217-4.441,2.427-6.652,3.654
		c-1.123,0.624-1.65,0.288-1.778-0.962c-0.104-1.005-0.254-2.013-0.494-2.993c-0.278-1.15-0.113-1.745,1.265-1.516
		c2.491,0.414,4.992,0.76,7.489,1.134C97.745,50.382,97.803,50.608,97.859,50.836"/>
	<path fill-rule="evenodd" clip-rule="evenodd" fill="#FFFFFF" d="M52.928,35.9c-1.784,1.508-3.217,2.717-4.802,4.056
		c-0.348-0.616-0.669-1.062-0.868-1.556c-0.912-2.257-1.791-4.527-3.034-7.692C47.517,32.672,50.024,34.169,52.928,35.9"/>
	<path fill-rule="evenodd" clip-rule="evenodd" fill="#FFFFFF" d="M65.798,23.149c1.327,3.323,2.445,6.048,2.996,8.996
		c-6.399,0.619-6.406,0.616-4.453-5.13C64.725,25.884,65.183,24.777,65.798,23.149"/>
	<path fill-rule="evenodd" clip-rule="evenodd" fill="#FFFFFF" d="M86.884,31.596c-0.926,2.37-1.873,4.732-2.768,7.113
		c-0.373,0.992-0.804,1.236-1.657,0.44c-1.132-1.055-2.325-2.044-3.786-3.317c2.652-1.639,5.101-3.153,7.553-4.667
		C86.444,31.309,86.664,31.453,86.884,31.596"/>
	<path fill-rule="evenodd" clip-rule="evenodd" fill="#FFFFFF" d="M60.84,79.607c-2.099,2.656-3.88,4.905-5.928,7.494
		c-0.58-3.35-0.205-6.276-0.106-9.492C56.817,78.274,58.58,78.858,60.84,79.607"/>
	<path fill-rule="evenodd" clip-rule="evenodd" fill="#FFFFFF" d="M43.586,65.354c1.118,1.87,2.08,3.476,3.184,5.318
		c-2.959,1.289-5.974,1.423-9.2,1.549C39.52,69.993,41.473,67.767,43.586,65.354"/>
	<path fill-rule="evenodd" clip-rule="evenodd" fill="#FFFFFF" d="M76.528,86.546c-1.795-2.224-3.593-4.449-5.316-6.582
		c0.235-0.382,0.27-0.517,0.345-0.548c5.572-2.246,5.574-2.246,5.666,3.831c0.014,0.999,0.002,1.998,0.002,2.997
		C76.993,86.345,76.762,86.445,76.528,86.546"/>
	<path fill-rule="evenodd" clip-rule="evenodd" fill="#FFFFFF" d="M94.492,72.532c-3.691-0.411-6.522-0.903-9.31-1.793
		c2.663-5.886,2.664-5.886,6.609-1.35C92.517,70.223,93.232,71.065,94.492,72.532"/>
	<path fill-rule="evenodd" clip-rule="evenodd" fill="#FFFFFF" d="M84.401,78.373c-1.551-0.985-3.737-1.047-4.234-2.979
		c-0.101-0.386,1.816-1.876,2.149-1.688C83.987,74.639,83.905,76.651,84.401,78.373"/>
	<path fill-rule="evenodd" clip-rule="evenodd" fill="#FFFFFF" d="M47.455,78.538c0.478-1.813,0.217-3.928,2.176-4.761
		c0.373-0.157,1.964,1.137,1.893,1.583C51.179,77.528,48.824,77.371,47.455,78.538"/>
	<path fill-rule="evenodd" clip-rule="evenodd" fill="#FFFFFF" d="M94.752,61.195c-2.169,0.605-3.816,1.526-5.371,0.619
		c-0.679-0.396-0.328-2.41,0.278-2.631C91.517,58.508,92.694,60.236,94.752,61.195"/>
	<path fill-rule="evenodd" clip-rule="evenodd" fill="#FFFFFF" d="M36.945,61.323c2.059-0.749,3.082-2.834,5.148-1.92
		c0.421,0.186,0.648,2.215,0.349,2.401C40.799,62.823,39.119,62.077,36.945,61.323"/>
	<path fill-rule="evenodd" clip-rule="evenodd" fill="#FFFFFF" d="M90.858,42.25c-1.027,1.163-2.055,2.325-3.082,3.491
		c-1.205-0.717-2.172-2.17-1.749-2.745C87.069,41.581,89.014,41.982,90.858,42.25"/>
	<path fill-rule="evenodd" clip-rule="evenodd" fill="#FFFFFF" d="M55.885,29.367c1.11,1.266,3.125,1.974,2.758,3.852
		c-0.131,0.68-2.021,1.397-2.545,0.86C54.868,32.822,55.583,31.046,55.885,29.367"/>
	<path fill-rule="evenodd" clip-rule="evenodd" fill="#FFFFFF" d="M65.873,84.977c-0.487-1.782-2.508-3.153-1.065-4.907
		c0.324-0.394,2.258-0.224,2.428,0.151C68.064,82.053,66.495,83.439,65.873,84.977"/>
	<path fill-rule="evenodd" clip-rule="evenodd" fill="#FFFFFF" d="M40.218,41.967c2.39-0.24,3.84,0.354,5.521,0.769
		c-0.221,1.226-0.789,2.939-1.638,2.841C42.423,45.385,41.866,43.4,40.218,41.967"/>
	<path fill-rule="evenodd" clip-rule="evenodd" fill="#FFFFFF" d="M75.747,28.765c0.214,2.201,0.288,3.802-0.139,5.413
		C71.946,33.163,71.946,33.163,75.747,28.765"/>
	<path fill-rule="evenodd" clip-rule="evenodd" fill="#FFFFFF" d="M52.582,92.574c2.313-2.531,6.843-2.017,10.671-1.978
		c2.248,0.022,3.635,0.9,3.952,2.985c0.269,1.756,1.159,2.099,2.687,2.126c3.8,0.066,7.611,0.406,11.34-0.626
		c1.079-0.298,2.146-0.7,3.151-1.189c2.018-0.984,3.183-2.652,3.118-4.906c-0.063-2.23-0.69-5.224-3.333-7.453
		c-0.563-0.477,1.75-2.578,3.295-2.608c3.294,2.744,4.666,6.176,4.393,10.604c0.051,4.435-3.022,7.418-8.059,9.04
		c-4.571,1.472-9.299,1.637-14.038,1.165c-1.391-0.137-2.328-0.066-2.815,1.489c-0.524,1.673-1.873,2.256-3.601,2.317
		c-2.579,0.093-4.638,0.093-7.374,0.117c-2.633,0.024-1.458-2.836-3.386-2.438c0.202-0.202,0.403-0.406,0.604-0.61
		c1.064-2.471,1.064-4.943,0-7.415C52.985,92.987,52.783,92.781,52.582,92.574"/>
	<path fill-rule="evenodd" clip-rule="evenodd" fill="#FFFFFF" d="M53.188,100.61c-0.202,0.203-0.403,0.407-0.604,0.61
		c-2.13,0.045-4.262,0.104-6.394,0.125c-0.72,0.008-1.575-0.058-1.545-1.023c0.028-0.928,0.87-0.995,1.597-1
		c1.932-0.014,3.864,0,5.796-0.004C52.915,99.316,53.377,99.669,53.188,100.61"/>
	<path fill-rule="evenodd" clip-rule="evenodd" fill="#FFFFFF" d="M52.582,92.574c0.201,0.207,0.403,0.413,0.605,0.62
		c0.187,0.931-0.256,1.304-1.141,1.303c-1.931-0.005-3.861,0.021-5.791-0.017c-0.679-0.012-1.595,0.077-1.598-0.938
		c-0.004-1.216,0.904-1.114,1.752-0.959c0.421,0.548,0.839,0.872,1.238-0.018C49.292,92.568,50.937,92.571,52.582,92.574"/>
	<path fill-rule="evenodd" clip-rule="evenodd" fill="#FFFFFF" d="M47.648,92.565c-0.399,0.891-0.817,0.564-1.238,0.018
		C46.823,92.578,47.235,92.571,47.648,92.565"/>
	<path fill="#A81D3F" d="M69.671,41.544c0.411,0.399,0.888,0.75,1.219,1.208c0.491,0.679,0.904,1.419,1.3,2.161
		c0.309,0.58,0.622,1.054,1.393,0.993c0.187-0.015,0.429,0.162,0.584,0.315c1.351,1.334,2.706,2.667,4.024,4.032
		c0.87,0.897,1.217,2.052,1.324,3.256c0.211,2.345-0.181,4.621-0.963,6.964c-0.603-0.596-1.165-1.133-1.696-1.7
		c-0.086-0.092-0.022-0.317-0.045-0.477c-0.149-1.091-0.275-2.187-0.474-3.27c-0.065-0.362-0.286-0.709-0.486-1.032
		c-0.938-1.507-1.54-1.578-2.794-0.329c-2.299,2.289-4.594,4.58-6.868,6.894c-0.202,0.207-0.322,0.579-0.329,0.878
		c-0.012,0.524-0.162,0.929-0.539,1.304c-2.348,2.33-4.689,4.667-7.01,7.024c-0.562,0.572-1.191,0.642-1.871,0.391
		c-1.159-0.429-1.964-1.258-2.416-2.402c-0.278-0.71-0.175-1.343,0.412-1.921c2.34-2.308,4.656-4.64,6.972-6.971
		c0.365-0.367,0.762-0.641,1.297-0.541c0.41,0.076,0.67-0.084,0.946-0.363c1.981-2.004,3.975-3.994,5.964-5.988
		c0.075-0.076,0.149-0.153,0.22-0.233c1.352-1.569,0.818-3.371-1.216-3.745c-1.405-0.259-2.089-1.313-2.948-2.195
		c-0.334-0.343,0.002-0.686,0.253-0.937c1.112-1.113,2.24-2.212,3.363-3.315H69.671z"/>
	<path fill="#A81D3F" d="M57.371,41.544c1.457,0.215,2.801,0.699,3.905,1.71c1.636,1.498,2.637,3.276,2.387,5.583
		c-0.021,0.188-0.038,0.403-0.138,0.552c-0.463,0.701-0.129,1.142,0.404,1.61c0.658,0.575,1.25,1.221,1.938,1.901
		c-1.104,1.092-2.179,2.178-3.282,3.231c-0.294,0.281-0.642,0.237-0.95-0.085c-0.59-0.616-1.192-1.223-1.815-1.804
		c-0.139-0.13-0.434-0.249-0.58-0.188c-2.057,0.838-3.86,0.226-5.502-1.013c-1.536-1.158-2.506-2.7-2.781-4.645
		c-0.077-0.534,0.082-0.911,0.574-1.17c0.552,0.55,1.139,1.078,1.656,1.667c0.706,0.806,1.573,0.94,2.557,0.753
		c1.402-0.268,3.102-2.112,3.262-3.524c0.096-0.838-0.099-1.561-0.727-2.151c-0.588-0.556-1.17-1.121-1.799-1.725
		c0.25-0.274,0.443-0.488,0.638-0.701H57.371z"/>
	<path fill="#A81D3F" d="M75.819,70.371c-1.055-0.127-1.54-0.951-2.055-1.714c-1.468-2.177-3.454-3.874-5.269-5.732
		c-0.88-0.9-0.886-0.955-0.015-1.829c0.916-0.921,1.827-1.848,2.786-2.819c1.05,1.063,2.097,2.063,3.074,3.127
		c1.337,1.456,2.911,2.616,4.49,3.777c0.783,0.576,0.854,1.514,0.195,2.181c-0.987,0.998-1.968,2.004-2.952,3.009H75.819z
		 M77.225,66.429c0.002-0.825-0.731-1.558-1.549-1.548c-0.784,0.01-1.503,0.742-1.505,1.531c0,0.808,0.688,1.513,1.49,1.526
		C76.511,67.953,77.222,67.267,77.225,66.429"/>
	<path fill="#FFFFFF" d="M77.225,66.429c-0.003,0.838-0.714,1.524-1.563,1.51c-0.802-0.014-1.49-0.719-1.49-1.526
		c0.002-0.789,0.721-1.521,1.505-1.531C76.493,64.871,77.227,65.604,77.225,66.429"/>
</g>
</svg>
