<?xml version="1.0" encoding="utf-8"?>
<!-- Generator: Adobe Illustrator 16.0.0, SVG Export Plug-In . SVG Version: 6.00 Build 0)  -->
<!DOCTYPE svg PUBLIC "-//W3C//DTD SVG 1.1//EN" "http://www.w3.org/Graphics/SVG/1.1/DTD/svg11.dtd">
<svg version="1.1" id="Layer_9" xmlns="http://www.w3.org/2000/svg" xmlns:xlink="http://www.w3.org/1999/xlink" x="0px" y="0px"
	 width="130px" height="130px" viewBox="0 0 130 130" enable-background="new 0 0 130 130" xml:space="preserve">
<g>
	<path fill="#FFFFFF" d="M65,1.708L65,1.708c-7.383,0-14.709,1.292-21.646,3.817c-6.938,2.525-13.381,6.245-19.036,10.99
		c-5.656,4.746-10.438,10.444-14.129,16.838C6.497,39.749,3.953,46.739,2.67,54.01c-1.282,7.271-1.282,14.71,0,21.98
		c1.282,7.271,3.826,14.261,7.519,20.655c3.69,6.394,8.473,12.093,14.129,16.838c5.655,4.746,12.097,8.466,19.036,10.991
		C50.291,127,57.617,128.291,65,128.291s14.709-1.291,21.647-3.816c6.938-2.525,13.379-6.245,19.035-10.991
		c5.656-4.745,10.438-10.444,14.13-16.838c3.69-6.395,6.235-13.385,7.517-20.655c1.282-7.271,1.282-14.71,0-21.98
		c-1.281-7.271-3.826-14.261-7.517-20.655c-3.692-6.394-8.474-12.093-14.13-16.838S93.585,8.051,86.647,5.526
		C79.709,3,72.383,1.708,65,1.708"/>
	<path fill="none" stroke="#A81D3F" stroke-width="2" stroke-linecap="round" stroke-linejoin="round" stroke-miterlimit="10" d="
		M65,1.708L65,1.708c-7.383,0-14.709,1.292-21.646,3.817c-6.938,2.525-13.381,6.245-19.036,10.99
		c-5.656,4.746-10.438,10.444-14.129,16.838C6.497,39.749,3.953,46.739,2.67,54.01c-1.282,7.271-1.282,14.71,0,21.98
		c1.282,7.271,3.826,14.261,7.519,20.655c3.69,6.394,8.473,12.093,14.129,16.838c5.655,4.746,12.097,8.466,19.036,10.991
		C50.291,127,57.617,128.291,65,128.291s14.709-1.291,21.647-3.816c6.938-2.525,13.379-6.245,19.035-10.991
		c5.656-4.745,10.438-10.444,14.13-16.838c3.69-6.395,6.235-13.385,7.517-20.655c1.282-7.271,1.282-14.71,0-21.98
		c-1.281-7.271-3.826-14.261-7.517-20.655c-3.692-6.394-8.474-12.093-14.13-16.838S93.585,8.051,86.647,5.526
		C79.709,3,72.383,1.708,65,1.708z"/>
	<path fill="#A81D3F" d="M65,112.469L65,112.469c-26.217,0-47.469-21.252-47.469-47.469v0c0-26.215,21.252-47.468,47.469-47.468
		c26.216,0,47.468,21.253,47.468,47.468v0C112.469,91.217,91.217,112.469,65,112.469"/>
	<path fill="#FFFFFF" d="M85.672,58.732h-0.367c2.533-1.526,4.228-4.302,4.228-7.475c0-4.817-3.904-8.721-8.721-8.721
		c-1.83,0-3.526,0.564-4.929,1.527c1.101,1.867,1.736,4.041,1.736,6.362c0,2.65-0.855,5.209-2.363,7.318
		c4.298,1.774,7.33,6.01,7.33,10.942V83.15h9.897c0.71,0,1.285-0.575,1.285-1.285V66.828C93.769,62.357,90.144,58.732,85.672,58.732
		"/>
	<path fill="#FFFFFF" d="M72.561,59.365c-0.585-0.113-1.188-0.174-1.806-0.174h-0.432c1.294-0.779,2.399-1.836,3.237-3.088
		c1.086-1.625,1.721-3.577,1.721-5.677c0-1.714-0.424-3.331-1.17-4.75c-1.711-3.256-5.123-5.477-9.056-5.477
		c-3.946,0-7.367,2.236-9.073,5.508c-0.736,1.412-1.154,3.016-1.154,4.718c0,2.087,0.626,4.027,1.699,5.646
		c0.84,1.266,1.954,2.334,3.259,3.12h-0.723c-0.618,0-1.22,0.061-1.805,0.174c-4.379,0.843-7.689,4.694-7.689,9.32V83.15v3.169
		c0,0.832,0.674,1.506,1.507,1.506h27.667c0.832,0,1.507-0.674,1.507-1.506V83.15V68.686C80.249,64.06,76.939,60.208,72.561,59.365"
		/>
	<path fill="#FFFFFF" d="M54.79,57.652c-1.468-2.09-2.299-4.613-2.299-7.226c0-2.312,0.63-4.478,1.725-6.34
		c-1.409-0.977-3.118-1.549-4.96-1.549c-4.816,0-8.721,3.904-8.721,8.72c0,3.173,1.695,5.949,4.228,7.475h-0.616
		c-4.473,0-8.097,3.625-8.097,8.096v15.038c0,0.709,0.575,1.284,1.285,1.284h9.896V68.686C47.231,63.668,50.372,59.37,54.79,57.652"
		/>
</g>
</svg>
