<?xml version="1.0" encoding="utf-8"?>
<!-- Generator: Adobe Illustrator 16.0.0, SVG Export Plug-In . SVG Version: 6.00 Build 0)  -->
<!DOCTYPE svg PUBLIC "-//W3C//DTD SVG 1.1//EN" "http://www.w3.org/Graphics/SVG/1.1/DTD/svg11.dtd">
<svg version="1.1" id="Layer_9" xmlns="http://www.w3.org/2000/svg" xmlns:xlink="http://www.w3.org/1999/xlink" x="0px" y="0px"
	 width="130px" height="130px" viewBox="0 0 130 130" enable-background="new 0 0 130 130" xml:space="preserve">
<g>
	<path fill="#FFFFFF" d="M64.994,1.501C30.104,1.506,1.55,29.986,1.508,64.833c-0.046,34.985,28.272,63.652,62.879,63.666
		c35.32,0.014,63.83-28.089,64.104-62.67C128.758,31.532,101.512,1.843,64.994,1.501"/>
	<path fill="#FFFFFF" d="M111.1,97.164c-11.994,14.843-27.247,22.714-46.218,22.257c-18.93-0.453-33.827-8.993-45.038-24.243
		c-1.231,0.699-2.357,1.339-3.494,1.986c23.265,35.146,74.502,35.901,98.723,2.541C113.764,98.871,112.463,98.034,111.1,97.164
		 M13.796,63.759C13.267,90.18,34.64,116.04,66.013,116.091c29.401,0.049,52.485-23.284,52.374-52.437
		c-0.121-31.419-25.857-51.963-51.663-52.261C37.512,11.057,13.305,35.18,13.796,63.759"/>
	<path fill="#FFFFFF" d="M51.181,54.587c3.541,0.009,5.896,2.364,5.883,5.895c-0.013,3.441-2.511,5.926-5.941,5.902
		c-3.453-0.021-5.877-2.479-5.875-5.959C45.254,56.908,47.623,54.578,51.181,54.587"/>
	<path fill="#FFFFFF" d="M49.047,71.237c0.723,2.91,1.462,5.814,2.174,8.726c0.898,3.688,1.74,7.387,2.687,11.059
		c0.303,1.182,0.127,2.271-1.024,2.443c-0.594,0.081-1.718-0.857-1.991-1.562c-1.542-4.052-2.905-8.172-4.325-12.264
		c-0.079-0.228-0.232-0.486-0.182-0.687c0.633-2.597,1.3-5.188,1.957-7.776C48.574,71.198,48.811,71.22,49.047,71.237"/>
	<path fill="#FFFFFF" d="M50.708,60.249c0.432-3.345,0.833-6.416,1.235-9.495c0.167-0.028,0.334-0.055,0.501-0.082
		c0.332,1.394,0.751,2.771,0.969,4.182c0.21,1.355,0.9,1.963,2.224,2.065c0.833,0.065,1.662,0.249,2.483,0.429
		c1.266,0.281,1.841,1.142,1.623,2.384c-0.206,1.215-0.918,1.964-2.277,1.73C55.288,61.083,53.111,60.685,50.708,60.249"/>
	<path fill="#45B477" d="M49.329,63.908c2.406,0.435,4.584,0.833,6.762,1.215c1.358,0.235,2.068-0.517,2.277-1.726
		c0.214-1.25-0.358-2.109-1.624-2.389c-0.82-0.182-1.648-0.364-2.481-0.431c-1.328-0.103-2.017-0.71-2.227-2.063
		c-0.214-1.413-0.636-2.788-0.966-4.182c-0.169,0.025-0.336,0.052-0.503,0.084C50.165,57.492,49.767,60.565,49.329,63.908
		 M47.671,74.896c-0.236-0.017-0.474-0.039-0.706-0.062c-0.657,2.596-1.323,5.183-1.956,7.775c-0.052,0.201,0.103,0.46,0.181,0.688
		c1.42,4.096,2.783,8.216,4.326,12.263c0.271,0.706,1.396,1.645,1.99,1.562c1.152-0.172,1.328-1.26,1.025-2.443
		c-0.946-3.672-1.788-7.37-2.687-11.057C49.133,80.711,48.395,77.809,47.671,74.896 M49.803,35.808
		c-3.557-0.012-5.923,2.321-5.93,5.837c-0.002,3.481,2.417,5.94,5.871,5.96c3.432,0.022,5.931-2.463,5.943-5.899
		C55.7,38.174,53.347,35.817,49.803,35.808 M37.522,81.705c-0.673-0.147-1.238-0.241-1.795-0.4c-2.437-0.688-4.847-1.48-7.315-2.022
		c-0.653-0.144-1.665,0.314-2.144,0.829c-0.28,0.308,0.014,1.381,0.35,1.925c0.273,0.442,0.962,0.68,1.51,0.9
		c3.931,1.532,7.87,3.052,11.815,4.561c2.358,0.897,2.714,0.646,3.396-1.771c1.256-4.444,1.666-9.164,4.288-13.167
		c0.223-0.341,0.328-0.788,0.381-1.201c0.863-6.577,1.74-13.161,2.551-19.742c0.237-1.911-0.53-2.881-2.41-3.474
		c-2.139-0.664-3.695-0.244-4.606,1.324c-1.884,3.23-3.674,6.523-5.636,9.709c-0.907,1.469-0.969,2.708,0.269,3.878
		c1.707,1.609,1.971,3.455,1.139,5.562c-0.107,0.271-0.117,0.591-0.158,0.89C38.62,73.498,38.086,77.493,37.522,81.705
		 M30.536,93.672c-0.059,0.172-0.116,0.343-0.173,0.516c0.702,0.62,1.345,1.335,2.116,1.854c5.325,3.549,10.817,6.867,15.966,10.657
		c2.969,2.185,5.409,2.219,8.675,0.701c10.609-4.934,21.382-9.496,32.053-14.295c4.776-2.153,9.483-4.473,14.155-6.838
		c1.15-0.585,2.176-1.548,3.025-2.544c1.326-1.554,1.082-2.899-0.715-3.86c-1.26-0.674-2.662-1.134-4.049-1.489
		c-4.961-1.266-9.979-2.312-14.893-3.713c-2.758-0.779-5.463-1.906-8.002-3.233c-1.829-0.963-1.676-2.132,0.084-3.245
		c0.819-0.511,1.666-1.019,2.57-1.321c6.228-2.071,12.469-4.095,18.719-6.107c1.48-0.472,3-0.828,4.502-1.235
		c-0.359-0.346-0.654-0.389-0.939-0.339c-7.662,1.343-15.33,2.604-22.965,4.07c-3.602,0.688-7.149,1.689-10.681,2.707
		c-1.627,0.465-3.249,1.297-3.559,3.233c-0.321,2.026,1.072,3.298,2.521,4.283c1.536,1.05,3.263,1.805,4.896,2.709
		c1.361,0.763,2.757,1.48,4.045,2.356c1.169,0.805,1.104,1.89,0,2.679c-1.167,0.836-2.398,1.732-3.74,2.152
		c-5.803,1.808-11.651,3.463-17.495,5.141c-1.578,0.45-3.195,0.789-4.824,1.18c0.481,2.05,1.067,3.791,1.225,5.574
		c0.065,0.73-0.591,1.881-1.25,2.254c-0.98,0.548-1.989-0.039-2.519-1.102c-0.22-0.429-0.333-0.907-0.505-1.356
		c-0.53-1.402-0.696-3.481-1.702-4.029c-1.099-0.602-2.979,0.149-4.502,0.416C38.557,92.156,34.545,92.927,30.536,93.672
		 M12.419,64.309c-0.49-28.582,23.716-52.704,52.929-52.367c25.807,0.304,51.543,20.84,51.664,52.261
		c0.111,29.153-22.977,52.49-52.375,52.438C33.265,116.587,11.889,90.729,12.419,64.309"/>
</g>
</svg>
