<?xml version="1.0" encoding="utf-8"?>
<!-- Generator: Adobe Illustrator 16.0.0, SVG Export Plug-In . SVG Version: 6.00 Build 0)  -->
<!DOCTYPE svg PUBLIC "-//W3C//DTD SVG 1.1//EN" "http://www.w3.org/Graphics/SVG/1.1/DTD/svg11.dtd">
<svg version="1.1" id="Layer_2" xmlns="http://www.w3.org/2000/svg" xmlns:xlink="http://www.w3.org/1999/xlink" x="0px" y="0px"
	 width="130px" height="130px" viewBox="0 0 130 130" enable-background="new 0 0 130 130" xml:space="preserve">
<g>
	<path fill="#FFFFFF" d="M65,2.848L65,2.848c-7.25,0-14.443,1.269-21.257,3.748c-6.812,2.479-13.139,6.133-18.692,10.793H25.05
		c-5.554,4.66-10.249,10.256-13.874,16.535c-3.625,6.278-6.124,13.144-7.384,20.282c-1.259,7.142-1.259,14.446,0,21.584
		c1.26,7.141,3.759,14.006,7.384,20.285c3.625,6.277,8.32,11.875,13.874,16.535h0.001c5.554,4.658,11.88,8.312,18.692,10.793
		c6.813,2.479,14.007,3.748,21.257,3.748s14.444-1.27,21.258-3.748c6.812-2.48,13.139-6.135,18.692-10.793h0.001
		c5.553-4.66,10.249-10.258,13.874-16.535c3.625-6.279,6.124-13.145,7.383-20.285c1.26-7.139,1.26-14.443,0-21.584
		c-1.259-7.139-3.758-14.004-7.383-20.282c-3.625-6.279-8.321-11.875-13.874-16.535h-0.001c-5.554-4.66-11.88-8.313-18.692-10.793
		C79.444,4.117,72.25,2.848,65,2.848"/>
	<path fill="none" stroke="#00ACF2" stroke-width="2" stroke-linecap="round" stroke-linejoin="round" stroke-miterlimit="10" d="
		M65,2.848L65,2.848c-7.25,0-14.443,1.269-21.257,3.748c-6.812,2.479-13.139,6.133-18.692,10.793H25.05
		c-5.554,4.66-10.249,10.256-13.874,16.535c-3.625,6.278-6.124,13.144-7.384,20.282c-1.259,7.142-1.259,14.446,0,21.584
		c1.26,7.141,3.759,14.006,7.384,20.285c3.625,6.277,8.32,11.875,13.874,16.535h0.001c5.554,4.658,11.88,8.312,18.692,10.793
		c6.813,2.479,14.007,3.748,21.257,3.748s14.444-1.27,21.258-3.748c6.812-2.48,13.139-6.135,18.692-10.793h0.001
		c5.553-4.66,10.249-10.258,13.874-16.535c3.625-6.279,6.124-13.145,7.383-20.285c1.26-7.139,1.26-14.443,0-21.584
		c-1.259-7.139-3.758-14.004-7.383-20.282c-3.625-6.279-8.321-11.875-13.874-16.535h-0.001c-5.554-4.66-11.88-8.313-18.692-10.793
		C79.444,4.117,72.25,2.848,65,2.848z"/>
	<path fill="#00ACF2" d="M65,111.613L65,111.613c-25.743,0-46.613-20.869-46.613-46.613c0-25.744,20.87-46.615,46.613-46.615
		c25.744,0,46.614,20.871,46.614,46.615C111.614,90.744,90.744,111.613,65,111.613"/>
	<path fill="#FFFFFF" d="M86.664,47.125h-4.561c-0.737,0-1.336-0.599-1.336-1.336v-9.599c0-0.737-0.598-1.335-1.335-1.335h-7.368
		c-0.737,0-1.336,0.598-1.336,1.335v9.599c0,0.737-0.598,1.336-1.334,1.336H43.641c-0.452,0-0.875,0.229-1.121,0.609L34.14,60.68
		c-0.574,0.888,0.063,2.061,1.121,2.061h59.782c1.059,0,1.697-1.173,1.121-2.061l-8.379-12.945
		C87.539,47.354,87.117,47.125,86.664,47.125"/>
	<path fill="#FFFFFF" d="M43.064,92.855h26.33c0.736,0,1.335-0.598,1.335-1.334V77.459c0-0.736,0.598-1.334,1.335-1.334h7.368
		c0.737,0,1.335,0.598,1.335,1.334v14.062c0,0.736,0.599,1.334,1.336,1.334h5.137c0.736,0,1.335-0.598,1.335-1.334V68.537
		c0-0.738-0.599-1.336-1.335-1.336H43.064c-0.737,0-1.335,0.598-1.335,1.336v22.984C41.729,92.258,42.327,92.855,43.064,92.855
		 M50.872,76.125h7.368c0.736,0,1.335,0.598,1.335,1.334v7.369c0,0.738-0.599,1.336-1.335,1.336h-7.368
		c-0.737,0-1.335-0.598-1.335-1.336v-7.369C49.537,76.723,50.135,76.125,50.872,76.125"/>
</g>
</svg>
