<?xml version="1.0" encoding="utf-8"?>
<!-- Generator: Adobe Illustrator 16.0.0, SVG Export Plug-In . SVG Version: 6.00 Build 0)  -->
<!DOCTYPE svg PUBLIC "-//W3C//DTD SVG 1.1//EN" "http://www.w3.org/Graphics/SVG/1.1/DTD/svg11.dtd">
<svg version="1.1" id="Layer_2" xmlns="http://www.w3.org/2000/svg" xmlns:xlink="http://www.w3.org/1999/xlink" x="0px" y="0px"
	 width="130px" height="130px" viewBox="0 0 130 130" enable-background="new 0 0 130 130" xml:space="preserve">
<g>
	<path fill="#FFFFFF" d="M65,2.848L65,2.848c-7.25,0-14.443,1.269-21.257,3.748c-6.812,2.479-13.139,6.133-18.692,10.793
		c-5.555,4.66-10.25,10.256-13.875,16.535c-3.625,6.278-6.124,13.144-7.384,20.282c-1.259,7.142-1.259,14.446,0,21.584
		c1.26,7.141,3.759,14.006,7.384,20.285c3.625,6.277,8.32,11.875,13.875,16.535c5.554,4.658,11.88,8.312,18.692,10.793
		c6.813,2.479,14.007,3.748,21.257,3.748s14.444-1.27,21.258-3.748c6.812-2.48,13.139-6.135,18.692-10.793
		c5.554-4.66,10.25-10.258,13.875-16.535c3.625-6.279,6.124-13.145,7.383-20.285c1.26-7.139,1.26-14.443,0-21.584
		c-1.259-7.139-3.758-14.004-7.383-20.282c-3.625-6.279-8.321-11.875-13.875-16.535S93.07,9.076,86.258,6.596
		C79.444,4.117,72.25,2.848,65,2.848"/>
	<path fill="none" stroke="#7F47DD" stroke-width="2" stroke-linecap="round" stroke-linejoin="round" stroke-miterlimit="10" d="
		M65,2.848L65,2.848c-7.25,0-14.443,1.269-21.257,3.748c-6.812,2.479-13.139,6.133-18.692,10.793
		c-5.555,4.66-10.25,10.256-13.875,16.535c-3.625,6.278-6.124,13.144-7.384,20.282c-1.259,7.142-1.259,14.446,0,21.584
		c1.26,7.141,3.759,14.006,7.384,20.285c3.625,6.277,8.32,11.875,13.875,16.535c5.554,4.658,11.88,8.312,18.692,10.793
		c6.813,2.479,14.007,3.748,21.257,3.748s14.444-1.27,21.258-3.748c6.812-2.48,13.139-6.135,18.692-10.793
		c5.554-4.66,10.25-10.258,13.875-16.535c3.625-6.279,6.124-13.145,7.383-20.285c1.26-7.139,1.26-14.443,0-21.584
		c-1.259-7.139-3.758-14.004-7.383-20.282c-3.625-6.279-8.321-11.875-13.875-16.535S93.07,9.076,86.258,6.596
		C79.444,4.117,72.25,2.848,65,2.848z"/>
	<path fill="#7F47DD" d="M65,111.613L65,111.613c-25.743,0-46.613-20.869-46.613-46.613c0-25.744,20.87-46.615,46.613-46.615
		c25.744,0,46.614,20.871,46.614,46.615C111.614,90.744,90.744,111.613,65,111.613"/>
	<path fill="#FFFFFF" d="M87.349,90.613H41.956c-2.652,0-4.804-2.15-4.804-4.803V45.801c0-2.652,2.151-4.804,4.804-4.804h45.393
		c2.652,0,4.804,2.151,4.804,4.804v40.009C92.152,88.463,90.001,90.613,87.349,90.613"/>
	<path fill="#7F47DD" d="M68.348,72.248h-7.391c-0.836,0-1.515-0.678-1.515-1.514v-6.417c0-0.838,0.679-1.514,1.515-1.514h7.391
		c0.836,0,1.514,0.676,1.514,1.514v6.417C69.861,71.57,69.184,72.248,68.348,72.248"/>
	<path fill="#7F47DD" d="M68.348,84.189h-7.391c-0.836,0-1.515-0.678-1.515-1.514v-6.418c0-0.836,0.679-1.514,1.515-1.514h7.391
		c0.836,0,1.514,0.678,1.514,1.514v6.418C69.861,83.512,69.184,84.189,68.348,84.189"/>
	<path fill="#7F47DD" d="M81.189,60.307h-7.391c-0.837,0-1.515-0.679-1.515-1.515v-6.418c0-0.836,0.678-1.514,1.515-1.514h7.391
		c0.836,0,1.514,0.678,1.514,1.514v6.418C82.703,59.628,82.025,60.307,81.189,60.307"/>
	<path fill="#7F47DD" d="M68.348,60.377h-7.391c-0.836,0-1.515-0.678-1.515-1.514v-6.418c0-0.836,0.679-1.514,1.515-1.514h7.391
		c0.836,0,1.514,0.678,1.514,1.514v6.418C69.861,59.7,69.184,60.377,68.348,60.377"/>
	<path fill="#7F47DD" d="M81.189,72.248h-7.391c-0.837,0-1.515-0.678-1.515-1.514v-6.417c0-0.838,0.678-1.514,1.515-1.514h7.391
		c0.836,0,1.514,0.676,1.514,1.514v6.417C82.703,71.57,82.025,72.248,81.189,72.248"/>
	<path fill="#7F47DD" d="M81.189,84.189h-7.391c-0.837,0-1.515-0.678-1.515-1.514v-6.418c0-0.836,0.678-1.514,1.515-1.514h7.391
		c0.836,0,1.514,0.678,1.514,1.514v6.418C82.703,83.512,82.025,84.189,81.189,84.189"/>
	<path fill="#7F47DD" d="M55.748,60.307h-7.391c-0.836,0-1.514-0.679-1.514-1.515v-6.418c0-0.836,0.678-1.514,1.514-1.514h7.391
		c0.837,0,1.515,0.678,1.515,1.514v6.418C57.263,59.628,56.585,60.307,55.748,60.307"/>
	<path fill="#7F47DD" d="M55.748,72.248h-7.391c-0.836,0-1.514-0.678-1.514-1.514v-6.417c0-0.838,0.678-1.514,1.514-1.514h7.391
		c0.837,0,1.515,0.676,1.515,1.514v6.417C57.263,71.57,56.585,72.248,55.748,72.248"/>
	<path fill="#7F47DD" d="M55.748,84.189h-7.391c-0.836,0-1.514-0.678-1.514-1.514v-6.418c0-0.836,0.678-1.514,1.514-1.514h7.391
		c0.837,0,1.515,0.678,1.515,1.514v6.418C57.263,83.512,56.585,84.189,55.748,84.189"/>
	<path fill="#FFFFFF" d="M52.261,36.098h-0.657c-0.886,0-1.609,0.725-1.609,1.609v6.473c0,0.885,0.724,1.609,1.609,1.609h0.657
		c0.885,0,1.61-0.725,1.61-1.609v-6.473C53.871,36.823,53.146,36.098,52.261,36.098"/>
	<path fill="#FFFFFF" d="M65.102,36.098h-0.656c-0.886,0-1.61,0.725-1.61,1.609v6.473c0,0.885,0.725,1.609,1.61,1.609h0.656
		c0.886,0,1.61-0.725,1.61-1.609v-6.473C66.712,36.823,65.987,36.098,65.102,36.098"/>
	<path fill="#FFFFFF" d="M77.943,36.098h-0.656c-0.887,0-1.61,0.725-1.61,1.609v6.473c0,0.885,0.724,1.609,1.61,1.609h0.656
		c0.885,0,1.61-0.725,1.61-1.609v-6.473C79.554,36.823,78.828,36.098,77.943,36.098"/>
</g>
</svg>
