<?xml version="1.0" encoding="utf-8"?>
<!-- Generator: Adobe Illustrator 16.0.0, SVG Export Plug-In . SVG Version: 6.00 Build 0)  -->
<!DOCTYPE svg PUBLIC "-//W3C//DTD SVG 1.1//EN" "http://www.w3.org/Graphics/SVG/1.1/DTD/svg11.dtd">
<svg version="1.1" id="Layer_9" xmlns="http://www.w3.org/2000/svg" xmlns:xlink="http://www.w3.org/1999/xlink" x="0px" y="0px"
	 width="130px" height="130px" viewBox="0 0 130 130" enable-background="new 0 0 130 130" xml:space="preserve">
<g>
	<path fill="#FFFFFF" d="M65,2.967L65,2.967c-7.236,0-14.417,1.266-21.216,3.741c-6.8,2.474-13.114,6.121-18.657,10.771
		c-5.544,4.651-10.23,10.237-13.848,16.503C7.659,40.25,5.166,47.102,3.91,54.229c-1.258,7.125-1.258,14.417,0,21.543
		c1.256,7.127,3.749,13.979,7.368,20.245c3.618,6.267,8.304,11.853,13.848,16.504c5.543,4.651,11.857,8.297,18.657,10.771
		s13.98,3.741,21.216,3.741s14.417-1.267,21.217-3.741s13.114-6.12,18.658-10.771c5.543-4.651,10.229-10.237,13.848-16.504
		s6.111-13.118,7.369-20.245c1.256-7.126,1.256-14.417,0-21.543c-1.258-7.127-3.751-13.979-7.369-20.246
		c-3.618-6.267-8.305-11.853-13.848-16.503c-5.544-4.651-11.858-8.297-18.658-10.771C79.417,4.233,72.236,2.967,65,2.967"/>
	<path fill="none" stroke="#88A80D" stroke-width="2" stroke-linecap="round" stroke-linejoin="round" stroke-miterlimit="10" d="
		M65,2.967L65,2.967c-7.236,0-14.417,1.266-21.216,3.741c-6.8,2.474-13.114,6.121-18.657,10.771
		c-5.544,4.651-10.23,10.237-13.848,16.503C7.659,40.25,5.166,47.102,3.91,54.229c-1.258,7.125-1.258,14.417,0,21.543
		c1.256,7.127,3.749,13.979,7.368,20.245c3.618,6.267,8.304,11.853,13.848,16.504c5.543,4.651,11.857,8.297,18.657,10.771
		s13.98,3.741,21.216,3.741s14.417-1.267,21.217-3.741s13.114-6.12,18.658-10.771c5.543-4.651,10.229-10.237,13.848-16.504
		s6.111-13.118,7.369-20.245c1.256-7.126,1.256-14.417,0-21.543c-1.258-7.127-3.751-13.979-7.369-20.246
		c-3.618-6.267-8.305-11.853-13.848-16.503c-5.544-4.651-11.858-8.297-18.658-10.771C79.417,4.233,72.236,2.967,65,2.967z"/>
	<path fill="#00ACF2" d="M65,117.586L65,117.586c-29.042,0-52.586-23.543-52.586-52.586v0c0-29.042,23.543-52.586,52.586-52.586
		c29.043,0,52.587,23.544,52.587,52.586v0C117.587,94.043,94.043,117.586,65,117.586"/>
	<path fill="#FFFFFF" d="M65.256,77.698c10.237,0.219,18.576-7.902,18.742-18.257c0.161-10.031-8.039-18.47-18.126-18.65
		c-10.026-0.183-18.541,7.992-18.785,18.032C46.837,69.048,54.951,77.48,65.256,77.698"/>
	<path fill="#FFFFFF" d="M74.817,85.81c0.223-0.107,0.445-0.219,0.666-0.326c-0.09-2.022-0.205-4.04-0.261-6.061
		c-0.039-1.342-0.484-1.765-1.768-1.062c-0.67,0.365-1.433,0.605-2.183,0.768c-1.123,0.242-1.251,0.712-0.553,1.57
		C72.098,82.394,73.453,84.105,74.817,85.81"/>
	<path fill="#FFFFFF" d="M37.766,54.85c0.554,0.358,0.857,0.584,1.185,0.762c1.357,0.747,2.765,1.408,4.068,2.23
		c1.563,0.987,2.038,0.657,2.248-1.188c0.395-3.508,0.504-3.554-2.918-2.866C40.951,54.068,39.441,53.867,37.766,54.85"/>
	<path fill="#FFFFFF" d="M83.994,37.387c-2.921,1.919-5.312,2.94-7.318,4.776c1.387,1.132,2.639,2.152,4.145,3.381
		C81.834,42.941,82.763,40.558,83.994,37.387"/>
	<path fill="#FFFFFF" d="M84.672,67.315c-0.831,1.39-1.526,2.546-2.223,3.699c-0.318,0.529-0.627,1.064,0.327,1.245
		c2.271,0.435,4.492,1.297,7.304,1.064C88.105,71.131,86.441,69.281,84.672,67.315"/>
	<path fill="#FFFFFF" d="M55.773,86.034c0.647-0.48,0.912-0.607,1.083-0.814c1.094-1.354,2.125-2.765,3.259-4.081
		c0.982-1.135,0.894-1.579-0.643-2.102c-3.655-1.243-3.629-1.346-3.694,2.508C55.753,82.887,55.773,84.225,55.773,86.034"/>
	<path fill="#FFFFFF" d="M49.083,72.027c-0.715-1.266-1.41-2.416-2.026-3.605c-0.452-0.879-0.88-0.867-1.484-0.162
		c-1.427,1.666-2.874,3.313-4.835,5.568C44.092,73.27,46.604,72.972,49.083,72.027"/>
	<path fill="#FFFFFF" d="M92.972,54.951c-0.04-0.205-0.078-0.413-0.118-0.619c-0.923-0.148-1.843-0.318-2.771-0.44
		c-5.404-0.711-5.363-1.875-3.721,4.608C88.6,57.298,90.785,56.125,92.972,54.951"/>
	<path fill="#FFFFFF" d="M54.375,42.068c-2.451-1.388-4.356-3.057-7.267-3.979c1.098,2.759,2.009,5.043,3.007,7.557
		C51.53,44.455,52.76,43.423,54.375,42.068"/>
	<path fill="#FFFFFF" d="M65.446,30.752c-1.032,3.192-1.806,5.587-2.662,8.228c1.576,0,2.733-0.032,3.887,0.008
		c0.952,0.035,1.569-0.204,1.198-1.297C67.175,35.616,66.432,33.559,65.446,30.752"/>
	<path fill="#FFFFFF" d="M65.5,84.355c0.716-1.398,1.957-2.691,1.25-4.191c-0.291-0.62-2.034-0.596-2.343-0.039
		C63.567,81.629,65.073,82.887,65.5,84.355"/>
	<path fill="#FFFFFF" d="M57,36.429c-0.188,1.491-0.777,2.984,0.301,4.139c0.194,0.206,1.882-0.376,1.969-0.787
		C59.621,38.118,57.914,37.506,57,36.429"/>
	<path fill="#FFFFFF" d="M44.895,61.753c-1.482,0.43-2.672,1.224-4.437,2.454c2.084,0.271,3.58,1.003,4.815,0.256
		C45.925,64.07,45.296,62.723,44.895,61.753"/>
	<path fill="#FFFFFF" d="M89.77,63.651c-1.378-0.579-2.253-2.375-3.81-1.472c-0.404,0.235-0.557,1.95-0.311,2.089
		C87.082,65.092,88.47,64.387,89.77,63.651"/>
	<path fill="#FFFFFF" d="M73.873,36.331c-0.83,1.188-2.637,1.754-2.305,3.383c0.115,0.57,1.74,1.199,2.203,0.723
		C74.836,39.348,74.176,37.819,73.873,36.331"/>
	<path fill="#FFFFFF" d="M49.682,78.476c1.429-0.601,3.169-0.759,3.516-2.455c0.072-0.348-1.259-1.468-1.657-1.341
		C49.84,75.224,50.246,77.108,49.682,78.476"/>
	<path fill="#FFFFFF" d="M86.892,47.221c-1.525,0.102-3.204-0.357-4.028,1.162c-0.183,0.34,0.74,1.828,1.07,1.799
		C85.595,50.044,86.064,48.425,86.892,47.221"/>
	<path fill="#FFFFFF" d="M81.63,78.764c-0.482-1.827-0.512-3.425-1.978-4.15c-0.311-0.156-1.884,1.175-1.79,1.438
		C78.396,77.565,79.972,77.854,81.63,78.764"/>
	<path fill="#FFFFFF" d="M43.421,46.921c1.416,1.687,1.986,3.193,3.435,3.419c0.611,0.094,1.477-1.496,1.153-1.997
		C47.186,47.062,45.568,47.366,43.421,46.921"/>
	<path fill-rule="evenodd" clip-rule="evenodd" fill="#FFFFFF" d="M65.256,77.698c-10.305-0.218-18.419-8.65-18.168-18.875
		c0.244-10.04,8.759-18.215,18.785-18.032c10.087,0.18,18.287,8.619,18.126,18.65C83.832,69.796,75.493,77.917,65.256,77.698"/>
	<path fill-rule="evenodd" clip-rule="evenodd" fill="#FFFFFF" d="M74.817,85.81c-1.364-1.704-2.72-3.416-4.098-5.111
		c-0.698-0.858-0.57-1.328,0.553-1.57c0.75-0.162,1.513-0.402,2.183-0.768c1.283-0.702,1.729-0.279,1.768,1.062
		c0.056,2.021,0.171,4.038,0.261,6.061C75.263,85.591,75.04,85.702,74.817,85.81"/>
	<path fill-rule="evenodd" clip-rule="evenodd" fill="#FFFFFF" d="M29.326,55.408c1.676-0.983,11.625-1.341,13.022-1.62
		c3.422-0.688,3.313-0.642,2.917,2.866c-0.208,1.845-0.684,2.175-2.245,1.188c-1.304-0.822-4.771-0.427-6.127-1.173
		C36.565,56.491,29.88,55.767,29.326,55.408"/>
	<path fill-rule="evenodd" clip-rule="evenodd" fill="#FFFFFF" d="M88.097,32.454c-1.23,3.171-6.263,10.487-7.276,13.089
		c-1.506-1.229-2.758-2.25-4.145-3.38C78.682,40.327,85.178,34.373,88.097,32.454"/>
	<path fill-rule="evenodd" clip-rule="evenodd" fill="#FFFFFF" d="M84.672,67.315c1.77,1.966,5.991,5.321,7.966,7.515
		c-2.812,0.233-7.591-2.136-9.861-2.57c-0.954-0.181-0.646-0.716-0.327-1.245C83.146,69.861,83.841,68.705,84.672,67.315"/>
	<path fill-rule="evenodd" clip-rule="evenodd" fill="#FFFFFF" d="M55.773,86.034c0-1.81-0.02-3.147,0.005-4.489
		c0.065-3.854,0.039-3.751,3.694-2.508c1.537,0.522,1.625,0.967,0.643,2.102c-1.135,1.316-2.166,2.727-3.259,4.081
		C56.685,85.427,56.42,85.554,55.773,86.034"/>
	<path fill-rule="evenodd" clip-rule="evenodd" fill="#FFFFFF" d="M49.083,72.027c-2.479,0.944-7.829,3-11.181,3.559
		c1.961-2.255,6.244-5.66,7.671-7.326c0.604-0.705,1.032-0.717,1.484,0.162C47.673,69.611,48.368,70.762,49.083,72.027"/>
	<path fill-rule="evenodd" clip-rule="evenodd" fill="#FFFFFF" d="M100.457,52.633C98.271,53.808,88.6,57.298,86.361,58.5
		c-1.642-6.483-1.904-6.073,3.502-5.362C90.791,53.26,100.417,52.428,100.457,52.633"/>
	<path fill-rule="evenodd" clip-rule="evenodd" fill="#FFFFFF" d="M54.375,42.068c-1.615,1.354-2.844,2.387-4.26,3.577
		c-0.999-2.513-7.835-11.441-8.934-14.2C44.092,32.369,51.924,40.68,54.375,42.068"/>
	<path fill-rule="evenodd" clip-rule="evenodd" fill="#FFFFFF" d="M65.446,21.86c0.986,2.807,1.729,13.756,2.423,15.83
		c0.371,1.095-0.246,1.334-1.198,1.299c-1.154-0.042-2.311-0.01-3.887-0.01C63.64,36.339,64.414,25.053,65.446,21.86"/>
	<path fill-rule="evenodd" clip-rule="evenodd" fill="#FFFFFF" d="M65.5,84.355c-0.427-1.469-1.933-2.727-1.093-4.23
		c0.309-0.557,2.052-0.581,2.343,0.039C67.457,81.664,66.216,82.957,65.5,84.355"/>
	<path fill-rule="evenodd" clip-rule="evenodd" fill="#FFFFFF" d="M57,36.429c0.915,1.077,2.622,1.688,2.27,3.352
		c-0.086,0.41-1.775,0.993-1.969,0.787C56.222,39.414,56.812,37.92,57,36.429"/>
	<path fill-rule="evenodd" clip-rule="evenodd" fill="#FFFFFF" d="M44.895,61.753c0.401,0.97,1.03,2.317,0.378,2.71
		c-1.236,0.748-2.731,0.016-4.815-0.256C42.223,62.977,43.413,62.183,44.895,61.753"/>
	<path fill-rule="evenodd" clip-rule="evenodd" fill="#FFFFFF" d="M89.77,63.651c-1.3,0.736-2.688,1.441-4.12,0.617
		c-0.246-0.139-0.094-1.854,0.311-2.089C87.517,61.276,88.392,63.072,89.77,63.651"/>
	<path fill-rule="evenodd" clip-rule="evenodd" fill="#FFFFFF" d="M73.873,36.331c0.303,1.488,0.963,3.017-0.102,4.105
		c-0.463,0.477-2.088-0.153-2.203-0.723C71.236,38.085,73.043,37.519,73.873,36.331"/>
	<path fill-rule="evenodd" clip-rule="evenodd" fill="#FFFFFF" d="M49.682,78.476c0.564-1.367,0.158-3.252,1.858-3.796
		c0.398-0.127,1.729,0.993,1.657,1.341C52.851,77.717,51.111,77.875,49.682,78.476"/>
	<path fill-rule="evenodd" clip-rule="evenodd" fill="#FFFFFF" d="M86.892,47.221c-0.827,1.204-1.297,2.823-2.958,2.961
		c-0.33,0.029-1.253-1.459-1.07-1.799C83.688,46.864,85.366,47.323,86.892,47.221"/>
	<path fill-rule="evenodd" clip-rule="evenodd" fill="#FFFFFF" d="M81.63,78.764c-1.658-0.91-3.234-1.198-3.768-2.712
		c-0.094-0.264,1.479-1.595,1.79-1.438C81.118,75.339,81.147,76.937,81.63,78.764"/>
	<path fill-rule="evenodd" clip-rule="evenodd" fill="#FFFFFF" d="M43.421,46.921c2.147,0.444,3.765,0.14,4.588,1.422
		c0.323,0.501-0.542,2.09-1.153,1.997C45.407,50.115,44.836,48.608,43.421,46.921"/>
	<path fill-rule="evenodd" clip-rule="evenodd" fill="#00ACF2" d="M71.053,46.571c-0.874,3.466-1.682,6.952-2.648,10.392
		c-0.506,1.803-0.34,2.84,1.858,2.588c1.954-0.223,2.429,0.701,1.822,2.422c-0.062,0.182-0.128,0.365-0.176,0.553
		c-2.146,8.512-2.142,8.473-10.849,7.808c-1.641-0.124-1.785-0.598-1.058-1.897c0.798-1.429,1.487-2.917,2.245-4.428
		c-1.105-0.936-2.414-0.079-3.694-0.983c3.995-5.555,7.993-11.11,11.987-16.662C70.713,46.433,70.883,46.502,71.053,46.571"/>
	<path fill="#FFFFFF" d="M65.54,94.023c-2.707,0-5.414-0.005-8.119,0.001c-1.162,0.003-1.708,0.442-1.708,1.334
		c0.003,0.888,0.561,1.337,1.718,1.338c5.447,0.005,10.893,0.005,16.339-0.001c1.107-0.001,1.734-0.505,1.73-1.35
		c-0.002-0.859-0.595-1.319-1.739-1.321C71.021,94.018,68.279,94.022,65.54,94.023"/>
	<path fill="#FFFFFF" d="M65.549,87.14c-2.706,0-5.411-0.005-8.117,0.001c-1.169,0.004-1.719,0.437-1.72,1.318
		c0,0.882,0.57,1.349,1.712,1.349c5.446,0.008,10.893,0.008,16.339,0.003c1.108-0.001,1.736-0.504,1.739-1.346
		c0.003-0.861-0.584-1.321-1.731-1.325C71.031,87.134,68.289,87.138,65.549,87.14"/>
	<path fill="#FFFFFF" d="M65.647,93.244c2.705,0,5.411,0.006,8.116-0.003c1.156-0.003,1.739-0.459,1.738-1.316
		c0-0.854-0.607-1.354-1.733-1.357c-5.445-0.009-10.89-0.009-16.336,0c-1.156,0.003-1.713,0.463-1.717,1.35
		c-0.004,0.891,0.531,1.321,1.713,1.325C60.168,93.252,62.908,93.245,65.647,93.244"/>
	<path fill="#FFFFFF" d="M56.287,97.561c1.03,1.904,2.376,2.984,4.428,3.004c1.489,0.015,2.981,0.006,4.472,0.006
		c1.802-0.001,3.606,0.032,5.408-0.016c2.003-0.055,3.759-1.365,4.096-2.994H56.287z"/>
	<path fill-rule="evenodd" clip-rule="evenodd" fill="#FFFFFF" d="M65.54,94.022c2.739,0,5.48-0.005,8.222,0.002
		c1.145,0.002,1.737,0.462,1.739,1.321c0.004,0.845-0.623,1.349-1.73,1.35c-5.446,0.006-10.892,0.006-16.339,0.002
		c-1.157-0.002-1.715-0.451-1.718-1.339c-0.001-0.892,0.545-1.331,1.708-1.334C60.126,94.019,62.833,94.023,65.54,94.022"/>
	<path fill-rule="evenodd" clip-rule="evenodd" fill="#FFFFFF" d="M65.549,87.139c2.74-0.001,5.482-0.005,8.222,0.002
		c1.147,0.003,1.734,0.463,1.731,1.324c-0.003,0.842-0.631,1.345-1.739,1.345c-5.446,0.006-10.893,0.006-16.339-0.001
		c-1.143-0.001-1.712-0.468-1.712-1.35c0.001-0.881,0.551-1.314,1.72-1.318C60.138,87.135,62.843,87.139,65.549,87.139"/>
	<path fill-rule="evenodd" clip-rule="evenodd" fill="#FFFFFF" d="M65.647,93.244c-2.739,0.001-5.479,0.008-8.22-0.002
		c-1.182-0.004-1.717-0.435-1.713-1.325c0.004-0.887,0.562-1.347,1.717-1.35c5.446-0.009,10.891-0.009,16.336,0
		c1.126,0.004,1.733,0.503,1.733,1.357c0.001,0.857-0.582,1.313-1.738,1.316C71.059,93.25,68.353,93.244,65.647,93.244"/>
	<path fill-rule="evenodd" clip-rule="evenodd" fill="#FFFFFF" d="M56.287,97.561H74.69c-0.337,1.629-2.093,2.939-4.096,2.994
		c-1.802,0.048-3.605,0.015-5.408,0.016c-1.491,0-2.983,0.009-4.472-0.006C58.664,100.545,57.317,99.465,56.287,97.561"/>
</g>
</svg>
