<?xml version="1.0" encoding="utf-8"?>
<!-- Generator: Adobe Illustrator 16.0.0, SVG Export Plug-In . SVG Version: 6.00 Build 0)  -->
<!DOCTYPE svg PUBLIC "-//W3C//DTD SVG 1.1//EN" "http://www.w3.org/Graphics/SVG/1.1/DTD/svg11.dtd">
<svg version="1.1" id="Layer_9" xmlns="http://www.w3.org/2000/svg" xmlns:xlink="http://www.w3.org/1999/xlink" x="0px" y="0px"
	 width="130px" height="130px" viewBox="0 0 130 130" enable-background="new 0 0 130 130" xml:space="preserve">
<g>
	<path fill="#FFFFFF" d="M64.995,1.501C30.104,1.506,1.552,29.986,1.507,64.833c-0.043,34.985,28.275,63.652,62.885,63.666
		c35.316,0.014,63.828-28.089,64.098-62.67C128.761,31.532,101.513,1.843,64.995,1.501"/>
	<path fill="#A71D41" d="M72.44,41.43c2.09-0.707,4.078-3.002,3.857-4.334C74.554,37.661,72.534,39.847,72.44,41.43 M60.101,38.781
		c0-1.468-2.227-3.825-3.902-4.128C56.181,36.143,58.388,38.48,60.101,38.781 M54.849,36.753c-0.293,0.304-0.586,0.604-0.877,0.908
		c1.268,1.248,2.533,2.491,3.805,3.743c0.25-0.301,0.752-0.82,0.717-0.857C57.31,39.254,56.075,38.012,54.849,36.753 M70.22,38.273
		c0.305,0.291,0.605,0.583,0.91,0.877c1.246-1.267,2.486-2.532,3.736-3.8c-0.297-0.255-0.814-0.753-0.852-0.724
		C72.722,35.811,71.476,37.041,70.22,38.273 M70.878,45.891c0.033-3.169-2.387-5.529-5.227-5.454
		c-2.812,0.082-5.158,2.407-4.99,5.13c0.15,2.459,1.043,4.674,2.867,6.411c1.48,1.418,3.035,1.435,4.506-0.007
		C69.825,50.222,70.616,47.986,70.878,45.891 M61.886,107.427c1.225-8.954,2.438-17.805,3.65-26.653
		c1.623,8.034,2.945,16.057,4.299,24.062c0.463,2.728,0.506,2.728,3.625,2.129v-47.04c0.156-0.021,0.312-0.047,0.471-0.07
		c1.891,2.012,3.773,4.025,5.545,5.903c-1.492,3.372-6.365,4.546-5.285,9.617c3.621-3.261,7.008-6.312,10.516-9.474
		c-3.592-3.861-7.092-7.576-10.516-11.354c-0.775-0.854-1.533-1.192-2.629-0.876c-4.076,1.183-8.15,1.471-12.248,0.009
		c-0.422-0.15-1.207-0.004-1.502,0.307c-3.666,3.9-7.273,7.853-11.004,11.909c3.48,3.118,6.822,6.117,10.332,9.269
		c1.207-4.771-3.381-6.054-4.711-9.165c1.832-2.146,3.682-4.316,5.539-6.491c0.145,0.066,0.289,0.132,0.439,0.198v47.721H61.886z
		 M64.94,119.729c-30.305,0-54.697-24.356-54.697-54.619c-0.002-30.326,24.529-54.9,54.758-54.861
		c30.596,0.045,54.949,24.598,54.645,55.672C119.349,96.999,93.63,120.038,64.94,119.729"/>
	<path fill="#FFFFFF" d="M61.884,107.427h-3.477V59.706c-0.146-0.066-0.295-0.132-0.441-0.198c-1.854,2.175-3.703,4.345-5.539,6.491
		c1.328,3.111,5.92,4.395,4.713,9.165c-3.51-3.151-6.852-6.15-10.332-9.269c3.73-4.057,7.34-8.009,11.006-11.905
		c0.293-0.314,1.078-0.461,1.5-0.311c4.1,1.462,8.17,1.174,12.248-0.009c1.098-0.316,1.854,0.021,2.629,0.876
		c3.424,3.778,6.924,7.493,10.514,11.354c-3.506,3.161-6.889,6.213-10.514,9.474c-1.086-5.071,3.795-6.245,5.285-9.617
		c-1.768-1.878-3.658-3.892-5.547-5.903c-0.156,0.025-0.312,0.049-0.469,0.07v47.04c-3.117,0.599-3.166,0.599-3.629-2.129
		c-1.35-8.006-2.668-16.028-4.297-24.062C64.319,89.622,63.11,98.473,61.884,107.427"/>
	<path fill="#FFFFFF" d="M70.876,45.891c-0.254,2.096-1.053,4.331-2.842,6.08c-1.473,1.441-3.025,1.421-4.504,0.007
		c-1.826-1.743-2.717-3.952-2.871-6.411c-0.17-2.723,2.18-5.048,4.992-5.13C68.493,40.361,70.913,42.722,70.876,45.891"/>
	<path fill="#FFFFFF" d="M70.218,38.273c1.26-1.232,2.502-2.463,3.797-3.646c0.035-0.029,0.555,0.469,0.852,0.724
		c-1.248,1.268-2.492,2.533-3.736,3.8C70.827,38.856,70.526,38.564,70.218,38.273"/>
	<path fill="#FFFFFF" d="M54.849,36.753c1.225,1.259,2.461,2.501,3.645,3.794c0.035,0.037-0.467,0.557-0.717,0.857
		c-1.271-1.252-2.537-2.495-3.805-3.743C54.263,37.357,54.556,37.057,54.849,36.753"/>
	<path fill="#FFFFFF" d="M60.097,38.781c-1.709-0.301-3.916-2.639-3.898-4.128C57.874,34.956,60.097,37.313,60.097,38.781"/>
	<path fill="#FFFFFF" d="M72.438,41.43c0.096-1.583,2.115-3.769,3.859-4.334C76.519,38.428,74.532,40.723,72.438,41.43"/>
</g>
</svg>
