<?xml version="1.0" encoding="utf-8"?>
<!-- Generator: Adobe Illustrator 16.0.0, SVG Export Plug-In . SVG Version: 6.00 Build 0)  -->
<!DOCTYPE svg PUBLIC "-//W3C//DTD SVG 1.1//EN" "http://www.w3.org/Graphics/SVG/1.1/DTD/svg11.dtd">
<svg version="1.1" id="Layer_2" xmlns="http://www.w3.org/2000/svg" xmlns:xlink="http://www.w3.org/1999/xlink" x="0px" y="0px"
	 width="270px" height="100px" viewBox="0 0 270 100" enable-background="new 0 0 270 100" xml:space="preserve">
<g>
	<path fill="#012445" d="M9.94,39.845V16.562c0-0.529,0.176-0.706,0.706-0.706h7.091c0.529,0,0.706,0.176,0.706,0.706v0.847
		c0,0.529-0.176,0.706-0.706,0.706h-4.692c-0.706,0-0.706,0-0.706,0.706v6.879c0,0.706,0,0.706,0.706,0.706h4.692
		c0.529,0,0.706,0.176,0.706,0.706v0.847c0,0.529-0.176,0.706-0.706,0.706h-4.692c-0.706,0-0.706,0-0.706,0.706v8.22
		c0,0.706,0,0.706,0.706,0.706h4.692c0.529,0,0.706,0.176,0.706,0.706v0.847c0,0.529-0.176,0.706-0.706,0.706h-7.091
		C10.116,40.551,9.94,40.375,9.94,39.845z"/>
	<path fill="#012445" d="M20.805,16.597c-0.177-0.564,0.105-0.741,0.388-0.741h1.129c0.459,0,0.6,0,0.776,0.529l2.61,8.008
		c0.071,0.211,0.212,0.211,0.282,0l2.646-8.008c0.176-0.529,0.317-0.529,0.776-0.529h1.129c0.282,0,0.564,0.176,0.388,0.741
		l-3.88,11.606l3.88,11.607c0.176,0.564-0.106,0.741-0.388,0.741h-1.129c-0.458,0-0.6,0-0.776-0.529l-2.646-8.008
		c-0.07-0.212-0.211-0.212-0.282,0l-2.61,8.008c-0.177,0.529-0.317,0.529-0.776,0.529h-1.129c-0.282,0-0.564-0.176-0.388-0.741
		l3.88-11.607L20.805,16.597z"/>
	<path fill="#012445" d="M42.959,40.551c-0.459,0-0.67,0-0.776-0.529l-0.423-2.434c-0.141-0.706-0.141-0.706-0.776-0.706h-4.339
		c-0.706,0-0.67,0-0.812,0.706l-0.423,2.434c-0.105,0.529-0.317,0.529-0.776,0.529h-1.059c-0.353,0-0.706,0-0.6-0.6l4.41-23.46
		c0.106-0.529,0.212-0.635,0.776-0.635h1.27c0.564,0,0.67,0.106,0.776,0.635l4.41,23.46c0.105,0.6-0.247,0.6-0.6,0.6H42.959z
		 M36.503,33.918c-0.106,0.706-0.106,0.706,0.6,0.706h3.387c0.706,0,0.706,0,0.6-0.706l-2.152-12.524
		c-0.035-0.176-0.247-0.176-0.282,0L36.503,33.918z"/>
	<path fill="#012445" d="M53.471,40.057l-3.034-12.523c-0.035-0.177-0.211-0.141-0.211,0v12.312c0,0.529-0.177,0.706-0.706,0.706
		h-0.988c-0.529,0-0.706-0.176-0.706-0.706V16.562c0-0.529,0.176-0.706,0.706-0.706h0.706c0.423,0,0.6,0.106,0.67,0.423
		l4.304,17.745c0.035,0.176,0.247,0.176,0.282,0l4.304-17.745c0.071-0.317,0.247-0.423,0.67-0.423h0.706
		c0.529,0,0.706,0.176,0.706,0.706v23.284c0,0.529-0.176,0.706-0.706,0.706h-0.988c-0.529,0-0.706-0.176-0.706-0.706V27.533
		c0-0.141-0.176-0.177-0.211,0l-3.034,12.523c-0.141,0.494-0.423,0.494-0.776,0.494h-0.212
		C53.895,40.551,53.612,40.551,53.471,40.057z"/>
	<path fill="#012445" d="M67.158,39.845c0,0.529-0.177,0.706-0.706,0.706h-0.988c-0.529,0-0.706-0.176-0.706-0.706V16.562
		c0-0.529,0.176-0.706,0.706-0.706h4.021c2.928,0,5.292,1.658,5.292,5.998v4.021c0,4.339-2.364,5.997-5.292,5.997h-1.623
		c-0.706,0-0.706,0-0.706,0.706V39.845z M67.158,28.909c0,0.705,0,0.705,0.706,0.705h1.623c1.94,0,2.893-1.164,2.893-4.339v-2.822
		c0-3.175-0.953-4.339-2.893-4.339h-1.623c-0.706,0-0.706,0-0.706,0.706V28.909z"/>
	<path fill="#012445" d="M77.953,39.845V16.562c0-0.529,0.176-0.706,0.706-0.706h0.988c0.529,0,0.706,0.176,0.706,0.706v21.026
		c0,0.706,0,0.706,0.706,0.706h5.044c0.529,0,0.706,0.176,0.706,0.706v0.847c0,0.529-0.177,0.706-0.706,0.706h-7.443
		C78.129,40.551,77.953,40.375,77.953,39.845z"/>
	<path fill="#012445" d="M89.453,39.845V16.562c0-0.529,0.176-0.706,0.706-0.706h7.091c0.529,0,0.706,0.176,0.706,0.706v0.847
		c0,0.529-0.176,0.706-0.706,0.706h-4.692c-0.706,0-0.706,0-0.706,0.706v6.879c0,0.706,0,0.706,0.706,0.706h4.692
		c0.529,0,0.706,0.176,0.706,0.706v0.847c0,0.529-0.176,0.706-0.706,0.706h-4.692c-0.706,0-0.706,0-0.706,0.706v8.22
		c0,0.706,0,0.706,0.706,0.706h4.692c0.529,0,0.706,0.176,0.706,0.706v0.847c0,0.529-0.176,0.706-0.706,0.706h-7.091
		C89.629,40.551,89.453,40.375,89.453,39.845z"/>
	<path fill="#012445" d="M101.058,34.483h1.093c0.459,0,0.706,0.176,0.706,0.812c0.105,1.587,1.34,3.14,3.245,3.14
		c2.399,0,3.528-2.152,3.316-3.986c-0.529-4.692-8.114-7.338-8.432-13.159c-0.176-3.104,1.976-5.574,5.045-5.574
		c2.399,0,4.798,1.834,4.939,4.974c-0.035,0.423-0.247,0.494-0.741,0.494h-0.776c-0.458,0-0.67-0.071-0.706-0.494
		c-0.141-1.552-1.164-2.716-2.716-2.716c-1.587,0-2.999,1.305-2.716,3.528c0.529,4.304,7.726,7.021,8.396,12.806
		c0.353,3.175-1.976,6.385-5.609,6.385c-3.034,0-5.433-2.364-5.645-5.256C100.423,34.941,100.423,34.483,101.058,34.483z"/>
	<path fill="#012445" d="M127.445,40.692c-2.928,0-5.292-1.658-5.292-5.998V21.712c0-4.339,2.364-5.997,5.292-5.997
		s5.292,1.658,5.292,5.997v12.982C132.736,39.034,130.373,40.692,127.445,40.692z M127.445,17.973c-1.94,0-2.893,1.164-2.893,4.339
		v11.783c0,3.175,0.953,4.339,2.893,4.339c1.94,0,2.893-1.164,2.893-4.339V22.312C130.337,19.137,129.385,17.973,127.445,17.973z"/>
	<path fill="#012445" d="M136.264,39.845V16.562c0-0.529,0.176-0.706,0.705-0.706h7.092c0.529,0,0.705,0.176,0.705,0.706v0.847
		c0,0.529-0.176,0.706-0.705,0.706h-4.692c-0.706,0-0.706,0-0.706,0.706v6.879c0,0.706,0,0.706,0.706,0.706h3.599
		c0.529,0,0.705,0.176,0.705,0.706v0.847c0,0.529-0.176,0.706-0.705,0.706h-3.599c-0.706,0-0.706,0-0.706,0.706v10.478
		c0,0.529-0.176,0.706-0.705,0.706h-0.988C136.439,40.551,136.264,40.375,136.264,39.845z"/>
	<path fill="#012445" d="M160.992,40.551h-4.586c-0.529,0-0.705-0.176-0.705-0.706V16.562c0-0.529,0.176-0.706,0.705-0.706h4.586
		c2.928,0,5.292,1.658,5.292,5.998v0.811c0,2.329-0.671,3.881-1.729,4.798c-0.036,0.036-0.036,0.106,0,0.141
		c1.058,0.953,1.729,2.47,1.729,4.798v2.152C166.284,38.893,163.92,40.551,160.992,40.551z M158.1,25.699
		c0,0.706,0,0.706,0.705,0.706h2.188c1.87,0,2.822-1.094,2.893-4.057v-0.282c-0.07-2.857-1.022-3.951-2.893-3.951h-2.188
		c-0.705,0-0.705,0-0.705,0.706V25.699z M158.1,37.587c0,0.706,0,0.706,0.705,0.706h2.188c1.87,0,2.822-1.094,2.893-4.057v-1.623
		c-0.07-2.857-1.022-3.951-2.893-3.951h-2.188c-0.705,0-0.705,0-0.705,0.706V37.587z"/>
	<path fill="#012445" d="M169.812,39.845V16.562c0-0.529,0.177-0.706,0.706-0.706h7.09c0.529,0,0.706,0.176,0.706,0.706v0.847
		c0,0.529-0.177,0.706-0.706,0.706h-4.691c-0.705,0-0.705,0-0.705,0.706v6.879c0,0.706,0,0.706,0.705,0.706h4.691
		c0.529,0,0.706,0.176,0.706,0.706v0.847c0,0.529-0.177,0.706-0.706,0.706h-4.691c-0.705,0-0.705,0-0.705,0.706v8.22
		c0,0.706,0,0.706,0.705,0.706h4.691c0.529,0,0.706,0.176,0.706,0.706v0.847c0,0.529-0.177,0.706-0.706,0.706h-7.09
		C169.988,40.551,169.812,40.375,169.812,39.845z"/>
	<path fill="#012445" d="M189.319,28.662h-4.374c-0.706,0-0.706,0-0.706,0.706v10.478c0,0.529-0.177,0.706-0.706,0.706h-0.987
		c-0.529,0-0.706-0.176-0.706-0.706V16.562c0-0.529,0.177-0.706,0.706-0.706h0.987c0.529,0,0.706,0.176,0.706,0.706v9.137
		c0,0.706,0,0.706,0.706,0.706h4.374c0.706,0,0.706,0,0.706-0.706v-9.137c0-0.529,0.176-0.706,0.705-0.706h0.988
		c0.528,0,0.705,0.176,0.705,0.706v23.284c0,0.529-0.177,0.706-0.705,0.706h-0.988c-0.529,0-0.705-0.176-0.705-0.706V29.368
		C190.025,28.662,190.025,28.662,189.319,28.662z"/>
	<path fill="#012445" d="M205.617,40.551c-0.459,0-0.67,0-0.776-0.529l-0.423-2.434c-0.142-0.706-0.142-0.706-0.776-0.706h-4.339
		c-0.706,0-0.671,0-0.812,0.706l-0.423,2.434c-0.105,0.529-0.317,0.529-0.776,0.529h-1.059c-0.352,0-0.705,0-0.6-0.6l4.41-23.46
		c0.105-0.529,0.212-0.635,0.776-0.635h1.271c0.564,0,0.67,0.106,0.775,0.635l4.41,23.46c0.105,0.6-0.247,0.6-0.6,0.6H205.617z
		 M199.161,33.918c-0.106,0.706-0.106,0.706,0.6,0.706h3.387c0.706,0,0.706,0,0.6-0.706l-2.151-12.524
		c-0.035-0.176-0.247-0.176-0.283,0L199.161,33.918z"/>
	<path fill="#012445" d="M219.48,15.856c0.354,0,0.705,0,0.6,0.6l-4.445,23.46c-0.105,0.529-0.211,0.635-0.775,0.635h-1.199
		c-0.564,0-0.671-0.106-0.776-0.635l-4.445-23.46c-0.106-0.6,0.247-0.6,0.6-0.6h1.059c0.458,0,0.67,0,0.776,0.529l3.245,18.627
		c0.035,0.176,0.247,0.176,0.282,0l3.246-18.627c0.105-0.529,0.317-0.529,0.775-0.529H219.48z"/>
	<path fill="#012445" d="M224.983,40.551h-0.987c-0.529,0-0.706-0.176-0.706-0.706V16.562c0-0.529,0.177-0.706,0.706-0.706h0.987
		c0.529,0,0.706,0.176,0.706,0.706v23.284C225.689,40.375,225.513,40.551,224.983,40.551z"/>
	<path fill="#012445" d="M234.508,40.692c-2.928,0-5.292-1.658-5.292-5.998V21.712c0-4.339,2.364-5.997,5.292-5.997
		s5.291,1.658,5.291,5.997v12.982C239.799,39.034,237.436,40.692,234.508,40.692z M234.508,17.973c-1.94,0-2.893,1.164-2.893,4.339
		v11.783c0,3.175,0.952,4.339,2.893,4.339s2.893-1.164,2.893-4.339V22.312C237.4,19.137,236.448,17.973,234.508,17.973z"/>
	<path fill="#012445" d="M248.442,40.692c-2.929,0-5.292-1.658-5.292-5.998V16.562c0-0.529,0.177-0.706,0.706-0.706h0.987
		c0.529,0,0.706,0.176,0.706,0.706v17.533c0,3.175,0.952,4.339,2.893,4.339s2.893-1.164,2.893-4.339V16.562
		c0-0.529,0.177-0.706,0.706-0.706h0.987c0.529,0,0.706,0.176,0.706,0.706v18.133C253.734,39.034,251.371,40.692,248.442,40.692z"/>
	<path fill="#012445" d="M257.438,39.845V16.562c0-0.529,0.176-0.706,0.705-0.706h4.021c2.929,0,5.293,1.658,5.293,5.998v1.94
		c0,2.646-0.883,4.304-2.223,5.186l2.187,10.972c0.106,0.6-0.247,0.6-0.6,0.6h-1.022c-0.459,0-0.671,0-0.776-0.529l-1.94-9.701
		c-0.105-0.529-0.177-0.529-0.67-0.529h-1.87c-0.706,0-0.706,0-0.706,0.706v9.349c0,0.529-0.176,0.706-0.705,0.706h-0.988
		C257.613,40.551,257.438,40.375,257.438,39.845z M259.836,26.828c0,0.706,0,0.706,0.706,0.706h1.622
		c1.941,0,2.894-1.164,2.894-4.339v-0.741c0-3.175-0.952-4.339-2.894-4.339h-1.622c-0.706,0-0.706,0-0.706,0.706V26.828z"/>
</g>
<g>
	<path fill="#012445" d="M9.517,73.852h1.094c0.458,0,0.705,0.177,0.705,0.812c0.106,1.587,1.341,3.139,3.246,3.139
		c2.398,0,3.527-2.151,3.316-3.986c-0.529-4.691-8.114-7.338-8.432-13.158c-0.176-3.104,1.976-5.574,5.045-5.574
		c2.399,0,4.798,1.834,4.939,4.975c-0.035,0.423-0.247,0.494-0.741,0.494h-0.776c-0.458,0-0.67-0.071-0.706-0.494
		c-0.141-1.553-1.164-2.717-2.716-2.717c-1.587,0-2.999,1.305-2.716,3.527c0.529,4.305,7.726,7.021,8.396,12.807
		c0.353,3.175-1.976,6.385-5.609,6.385c-3.034,0-5.433-2.363-5.645-5.256C8.881,74.311,8.881,73.852,9.517,73.852z"/>
	<path fill="#012445" d="M23.204,79.215V55.931c0-0.529,0.176-0.706,0.706-0.706H31c0.529,0,0.706,0.177,0.706,0.706v0.847
		c0,0.529-0.176,0.705-0.706,0.705h-4.692c-0.706,0-0.706,0-0.706,0.706v6.88c0,0.705,0,0.705,0.706,0.705H31
		c0.529,0,0.706,0.176,0.706,0.705v0.848c0,0.528-0.176,0.705-0.706,0.705h-4.692c-0.706,0-0.706,0-0.706,0.705v8.221
		c0,0.705,0,0.705,0.706,0.705H31c0.529,0,0.706,0.176,0.706,0.705v0.848c0,0.529-0.176,0.705-0.706,0.705h-7.091
		C23.38,79.92,23.204,79.744,23.204,79.215z"/>
	<path fill="#012445" d="M42.359,68.031h-1.411c-0.529,0-0.706-0.177-0.706-0.705v-0.848c0-0.529,0.177-0.705,0.706-0.705h3.81
		c0.529,0,0.706,0.176,0.706,0.705v7.585c0,4.339-2.364,5.997-5.292,5.997c-2.928,0-5.292-1.658-5.292-5.997V61.081
		c0-4.339,2.364-5.997,5.292-5.997c2.893,0,5.221,1.623,5.292,5.927c0.036,0.6-0.176,0.812-0.706,0.812H43.77
		c-0.494,0-0.67-0.141-0.706-0.564c-0.105-2.857-1.058-3.916-2.893-3.916c-1.94,0-2.893,1.164-2.893,4.34v11.782
		c0,3.175,0.953,4.339,2.893,4.339s2.893-1.164,2.893-4.339v-4.728C43.064,68.031,43.064,68.031,42.359,68.031z"/>
	<path fill="#012445" d="M54.67,79.426l-3.034-12.523c-0.035-0.177-0.211-0.141-0.211,0v12.312c0,0.529-0.177,0.705-0.706,0.705
		h-0.988c-0.529,0-0.706-0.176-0.706-0.705V55.931c0-0.529,0.176-0.706,0.706-0.706h0.706c0.423,0,0.6,0.106,0.67,0.424
		l4.304,17.745c0.035,0.177,0.247,0.177,0.282,0l4.304-17.745c0.071-0.317,0.247-0.424,0.67-0.424h0.706
		c0.529,0,0.706,0.177,0.706,0.706v23.284c0,0.529-0.176,0.705-0.706,0.705h-0.988c-0.529,0-0.706-0.176-0.706-0.705V66.902
		c0-0.141-0.176-0.177-0.211,0l-3.034,12.523c-0.141,0.494-0.423,0.494-0.776,0.494h-0.212C55.094,79.92,54.812,79.92,54.67,79.426z
		"/>
	<path fill="#012445" d="M65.958,79.215V55.931c0-0.529,0.176-0.706,0.706-0.706h7.091c0.529,0,0.706,0.177,0.706,0.706v0.847
		c0,0.529-0.176,0.705-0.706,0.705h-4.692c-0.706,0-0.706,0-0.706,0.706v6.88c0,0.705,0,0.705,0.706,0.705h4.692
		c0.529,0,0.706,0.176,0.706,0.705v0.848c0,0.528-0.176,0.705-0.706,0.705h-4.692c-0.706,0-0.706,0-0.706,0.705v8.221
		c0,0.705,0,0.705,0.706,0.705h4.692c0.529,0,0.706,0.176,0.706,0.705v0.848c0,0.529-0.176,0.705-0.706,0.705h-7.091
		C66.135,79.92,65.958,79.744,65.958,79.215z"/>
	<path fill="#012445" d="M86.913,79.92c-0.317,0-0.564-0.07-0.706-0.424l-5.539-15.733c-0.071-0.247-0.282-0.177-0.282,0v15.452
		c0,0.529-0.177,0.705-0.706,0.705h-0.988c-0.529,0-0.706-0.176-0.706-0.705V55.931c0-0.529,0.176-0.706,0.706-0.706h0.706
		c0.388,0,0.564,0.071,0.706,0.459l5.539,15.734c0.071,0.211,0.282,0.176,0.282,0V55.931c0-0.529,0.176-0.706,0.706-0.706h0.988
		c0.529,0,0.706,0.177,0.706,0.706v23.284c0,0.529-0.176,0.705-0.706,0.705H86.913z"/>
	<path fill="#012445" d="M91.675,55.225h9.172c0.529,0,0.706,0.177,0.706,0.706v0.847c0,0.529-0.176,0.705-0.706,0.705h-2.681
		c-0.706,0-0.706,0-0.706,0.706v21.026c0,0.529-0.176,0.705-0.706,0.705h-0.988c-0.529,0-0.706-0.176-0.706-0.705V58.188
		c0-0.706,0-0.706-0.67-0.706h-2.716c-0.529,0-0.706-0.176-0.706-0.705v-0.847C90.969,55.401,91.146,55.225,91.675,55.225z"/>
	<path fill="#012445" d="M112.454,79.92c-0.458,0-0.67,0-0.776-0.529l-0.423-2.434c-0.141-0.706-0.141-0.706-0.776-0.706h-4.339
		c-0.706,0-0.67,0-0.812,0.706l-0.423,2.434c-0.106,0.529-0.317,0.529-0.776,0.529h-1.059c-0.353,0-0.706,0-0.6-0.6l4.41-23.46
		c0.106-0.529,0.212-0.636,0.776-0.636h1.27c0.564,0,0.67,0.106,0.776,0.636l4.41,23.46c0.106,0.6-0.247,0.6-0.6,0.6H112.454z
		 M105.998,73.287c-0.106,0.706-0.106,0.706,0.6,0.706h3.387c0.706,0,0.706,0,0.6-0.706l-2.152-12.523
		c-0.035-0.176-0.247-0.176-0.282,0L105.998,73.287z"/>
	<path fill="#012445" d="M115.769,55.225h9.172c0.529,0,0.706,0.177,0.706,0.706v0.847c0,0.529-0.176,0.705-0.706,0.705h-2.681
		c-0.706,0-0.706,0-0.706,0.706v21.026c0,0.529-0.176,0.705-0.706,0.705h-0.988c-0.529,0-0.706-0.176-0.706-0.705V58.188
		c0-0.706,0-0.706-0.67-0.706h-2.716c-0.529,0-0.706-0.176-0.706-0.705v-0.847C115.063,55.401,115.239,55.225,115.769,55.225z"/>
	<path fill="#012445" d="M129.985,79.92h-0.988c-0.529,0-0.706-0.176-0.706-0.705V55.931c0-0.529,0.176-0.706,0.706-0.706h0.988
		c0.529,0,0.706,0.177,0.706,0.706v23.284C130.691,79.744,130.515,79.92,129.985,79.92z"/>
	<path fill="#012445" d="M139.51,80.061c-2.928,0-5.291-1.658-5.291-5.997V61.081c0-4.339,2.363-5.997,5.291-5.997
		c2.929,0,5.292,1.658,5.292,5.997v12.982C144.802,78.402,142.438,80.061,139.51,80.061z M139.51,57.342
		c-1.939,0-2.893,1.164-2.893,4.34v11.782c0,3.175,0.953,4.339,2.893,4.339c1.94,0,2.893-1.164,2.893-4.339V61.682
		C142.402,58.506,141.45,57.342,139.51,57.342z"/>
	<path fill="#012445" d="M157.254,79.92c-0.316,0-0.564-0.07-0.705-0.424l-5.539-15.733c-0.07-0.247-0.281-0.177-0.281,0v15.452
		c0,0.529-0.177,0.705-0.706,0.705h-0.987c-0.529,0-0.706-0.176-0.706-0.705V55.931c0-0.529,0.177-0.706,0.706-0.706h0.705
		c0.388,0,0.564,0.071,0.705,0.459l5.539,15.734c0.07,0.211,0.282,0.176,0.282,0V55.931c0-0.529,0.177-0.706,0.706-0.706h0.987
		c0.529,0,0.706,0.177,0.706,0.706v23.284c0,0.529-0.177,0.705-0.706,0.705H157.254z"/>
</g>
</svg>
